<?xml version="1.0" standalone="no"?>
<!DOCTYPE svg PUBLIC "-//W3C//DTD SVG 1.1//EN" "http://www.w3.org/Graphics/SVG/1.1/DTD/svg11.dtd" >
<svg>
<metadata>
Created by FontForge 20090622 at Mon Aug 15 12:54:37 2016
 By deploy user
2011 Joerg Hemker published by FSI FontShop International GmbH
</metadata>
<defs>
<font id="SeroOffcPro-Light" horiz-adv-x="1000" >
  <font-face 
    font-family="Sero Offc Pro Light"
    font-weight="350"
    font-stretch="normal"
    units-per-em="1000"
    panose-1="2 11 5 4 2 1 1 2 1 2"
    ascent="778"
    descent="-222"
    x-height="510"
    cap-height="720"
    bbox="-157 -222 1238 948"
    underline-thickness="57"
    underline-position="-45"
    unicode-range="U+000D-U+1F4AC"
  />
<missing-glyph horiz-adv-x="500" 
d="M0 720h500v-720h-500v720zM58 60h384v600h-384v-600z" />
    <glyph glyph-name=".notdef" horiz-adv-x="500" 
d="M0 720h500v-720h-500v720zM58 60h384v600h-384v-600z" />
    <glyph glyph-name=".null" horiz-adv-x="0" 
 />
    <glyph glyph-name="nonmarkingreturn" unicode="&#xd;" horiz-adv-x="220" 
 />
    <glyph glyph-name="space" unicode=" " horiz-adv-x="220" 
 />
    <glyph glyph-name="exclam" unicode="!" horiz-adv-x="315" 
d="M120 720h74l-12 -523h-50zM204 35q0 -20 -13 -33.5t-34 -13.5t-34 13.5t-13 33.5t13 33.5t34 13.5t34 -13.5t13 -33.5z" />
    <glyph glyph-name="quotedbl" unicode="&#x22;" horiz-adv-x="395" 
d="M248 720h64l-5 -253h-54zM82 720h64l-5 -253h-54z" />
    <glyph glyph-name="numbersign" unicode="#" horiz-adv-x="572" 
d="M338 216h-158l-46 -216h-57l46 216h-96v56h108l29 136h-99v56h111l46 216h57l-46 -216h158l46 216h57l-46 -216h96v-56h-108l-29 -136h99v-56h-111l-46 -216h-57zM192 272h158l29 136h-158z" />
    <glyph glyph-name="dollar" unicode="$" horiz-adv-x="572" 
d="M264 0q-54 2 -104 18.5t-92 43.5l23 62q39 -26 82 -43.5t91 -21.5v268q-33 10 -65.5 22.5t-58 32t-41 48t-15.5 70.5q0 75 49 122.5t131 55.5v82h49v-81q48 -2 91 -18t78 -42l-23 -63q-34 25 -69 42t-77 21v-239q34 -11 68.5 -23.5t61.5 -32.5t44 -51t17 -78
q0 -81 -51 -132.5t-140 -60.5v-102h-49v100zM435 187q0 27 -10 46.5t-26.5 34t-38.5 25t-47 19.5v-251q57 8 89.5 41.5t32.5 84.5zM152 508q0 -24 9 -42t24 -30.5t35.5 -22t43.5 -17.5v222q-53 -6 -82.5 -35.5t-29.5 -74.5z" />
    <glyph glyph-name="percent" unicode="%" horiz-adv-x="742" 
d="M354 563q0 -35 -10 -65t-29 -52t-46.5 -35t-61.5 -13t-61 12.5t-45.5 34.5t-28.5 51.5t-10 64.5q0 34 10 64.5t29 52.5t46 35t62 13q34 0 60.5 -12.5t45.5 -34.5t29 -52t10 -64zM299 562q0 51 -22 84.5t-69 33.5t-69 -33.5t-22 -84.5t22 -84.5t69 -33.5t69 33.5t22 84.5z
M564 720h61l-446 -720h-61zM389 158q0 34 10 63.5t29 52t46 35.5t62 13q34 0 60.5 -12.5t45.5 -34.5t29 -52t10 -64q0 -35 -10 -65t-29 -52t-46.5 -35t-61.5 -13t-61 12.5t-45.5 35t-28.5 52t-10 64.5zM444 158q0 -51 22 -84.5t69 -33.5t69 33.5t22 84.5t-22 84.5t-69 33.5
t-69 -33.5t-22 -84.5z" />
    <glyph glyph-name="ampersand" unicode="&#x26;" horiz-adv-x="609" 
d="M478 548q0 -36 -16 -63.5t-42.5 -49t-60.5 -39.5l-69 -35l169 -190q18 23 35.5 51t34.5 60l53 -30q-19 -37 -39.5 -68.5t-42.5 -59.5l81 -91l-49 -46l-78 88q-46 -43 -98.5 -65.5t-115.5 -22.5q-95 0 -148.5 49t-53.5 130q0 39 12.5 69.5t33.5 55t49.5 44.5t60.5 37
l-32 38t-25.5 36t-16.5 38.5t-6 44.5q0 35 13 65t37.5 51.5t59 34t78.5 12.5q41 0 74 -11t55.5 -30.5t34.5 -46t12 -56.5zM245 45q45 0 87 18.5t82 57.5l-183 208q-24 -14 -47 -29.5t-40 -34.5t-27.5 -42t-10.5 -52q0 -26 9 -49t26.5 -40t43.5 -27t60 -10zM180 528
q0 -16 4.5 -30t13.5 -28t23 -30.5l33 -37.5l47.5 23t52 30t42 39.5t17.5 50.5q0 17 -7 33t-21 29t-35 20.5t-49 7.5q-57 0 -89 -31t-32 -76z" />
    <glyph glyph-name="quotesingle" unicode="'" horiz-adv-x="228" 
d="M82 720h64l-5 -253h-54z" />
    <glyph glyph-name="parenleft" unicode="(" horiz-adv-x="363" 
d="M119 272q0 -78 18 -141.5t47 -115t65.5 -91.5t73.5 -70l-35 -40q-38 30 -80 71.5t-77 97t-58 127t-23 162.5t23 162.5t58 127t77 97t80 71.5l35 -40q-37 -30 -73.5 -70t-65.5 -91.5t-47 -115t-18 -141.5z" />
    <glyph glyph-name="parenright" unicode=")" horiz-adv-x="363" 
d="M243 272q0 78 -18 141.5t-47 115t-65.5 91.5t-73.5 70l35 40q38 -30 80 -71.5t77 -97t58 -127t23 -162.5t-23 -162.5t-58 -127t-77 -97t-80 -71.5l-35 40q37 30 73.5 70t65.5 91.5t47 115t18 141.5z" />
    <glyph glyph-name="asterisk" unicode="*" horiz-adv-x="423" 
d="M237 546l80 -115l-46 -27l-60 126l-60 -126l-46 27l80 115l-140 -11v54l140 -11l-80 115l46 27l60 -126l60 126l46 -27l-80 -115l140 11v-54z" />
    <glyph glyph-name="plus" unicode="+" horiz-adv-x="572" 
d="M256 0v225h-214v60h214v225h60v-225h214v-60h-214v-225h-60z" />
    <glyph glyph-name="comma" unicode="," horiz-adv-x="279" 
d="M45 -131q49 30 71 61.5t27 60.5h-5q-24 0 -37.5 14t-13.5 34q0 21 13 35t36 14q26 0 43 -20.5t17 -57.5q0 -39 -25 -86t-88 -88z" />
    <glyph glyph-name="hyphen" unicode="-" horiz-adv-x="406" 
d="M66 341h274v-59h-274v59z" />
    <glyph glyph-name="period" unicode="." horiz-adv-x="279" 
d="M190 38q0 -21 -13.5 -35.5t-36.5 -14.5t-36.5 14.5t-13.5 35.5t13.5 35.5t36.5 14.5t36.5 -14.5t13.5 -35.5z" />
    <glyph glyph-name="slash" unicode="/" horiz-adv-x="557" 
d="M462 720h71l-438 -760h-71z" />
    <glyph glyph-name="zero" unicode="0" horiz-adv-x="572" 
d="M456 339q0 148 -47 219.5t-123 71.5t-123 -71.5t-47 -219.5t47 -219.5t123 -71.5t123 71.5t47 219.5zM525 342q0 -87 -18 -153t-50.5 -110.5t-76.5 -67.5t-96 -23q-51 0 -94.5 22.5t-75 66.5t-49.5 109.5t-18 151.5q0 87 18 153t50.5 110.5t76.5 67.5t96 23
q51 0 94.5 -22.5t75 -66.5t49.5 -109.5t18 -151.5z" />
    <glyph glyph-name="one" unicode="1" horiz-adv-x="572" 
d="M74 569l208 111h56v-621h159v-59h-409v59h181v543l-170 -90z" />
    <glyph glyph-name="two" unicode="2" horiz-adv-x="572" 
d="M411 500q0 58 -35.5 94t-101.5 36q-57 0 -102.5 -28t-85.5 -79l-28 59q42 51 97 80.5t125 29.5q46 0 83.5 -13.5t63 -38t39.5 -59.5t14 -77q0 -43 -16 -87.5t-53 -96.5t-98.5 -115.5t-152.5 -143.5h340v-61h-442v52q95 84 162 149t109.5 118t62 96.5t19.5 84.5z" />
    <glyph glyph-name="three" unicode="3" horiz-adv-x="572" 
d="M129 378q122 0 191 35t69 109q0 53 -34.5 81t-93.5 28q-48 0 -90.5 -18.5t-87.5 -50.5l-20 58q45 33 96.5 52.5t108.5 19.5q42 0 77 -11t60.5 -31.5t39.5 -50.5t14 -69q0 -64 -39.5 -108t-114.5 -65q90 -17 131 -62.5t41 -108.5q0 -45 -21 -85t-68.5 -69.5t-125 -46.5
t-190.5 -17l-6 59q99 0 164.5 13t104.5 35t55 51t16 62q0 60 -51 96.5t-164 36.5q-16 0 -29 -0.5t-33 -1.5v59z" />
    <glyph glyph-name="four" unicode="4" horiz-adv-x="572" 
d="M28 208l317 472h87v-471h104v-59h-104v-150h-68v150h-336v58zM364 209v396l-267 -396h267z" />
    <glyph glyph-name="five" unicode="5" horiz-adv-x="572" 
d="M87 27q97 0 161.5 15t103.5 40.5t55 59.5t16 73q0 72 -47 108.5t-133 36.5q-29 0 -68.5 -5.5t-87.5 -20.5l11 346h364v-62h-300l-7 -213q31 8 56.5 10.5t47.5 2.5q52 0 94.5 -13t73.5 -38.5t48 -63t17 -87.5q0 -54 -22.5 -99.5t-70.5 -78.5t-123.5 -51.5t-182.5 -18.5z
" />
    <glyph glyph-name="six" unicode="6" horiz-adv-x="572" 
d="M469 651q-60 -13 -115 -33.5t-99 -54t-74.5 -82.5t-41.5 -118q42 39 87.5 57t93.5 18q44 0 81.5 -15t64.5 -43.5t42.5 -69.5t15.5 -93q0 -56 -17 -98.5t-46.5 -72t-69.5 -44.5t-85 -15q-52 0 -96 20t-76 58.5t-50 95.5t-18 131q0 105 35 178t90.5 122t125 77t139.5 42z
M307 379q-45 0 -86.5 -20.5t-86.5 -60.5v-6q0 -60 13 -106t36 -76.5t55.5 -46t70.5 -15.5q65 0 106.5 43t41.5 121q0 77 -40.5 122t-109.5 45z" />
    <glyph glyph-name="seven" unicode="7" horiz-adv-x="572" 
d="M142 0q74 187 142 337t134 280h-354v63h434v-58q-68 -131 -136.5 -282t-143.5 -340h-76z" />
    <glyph glyph-name="eight" unicode="8" horiz-adv-x="572" 
d="M52 171q0 39 14 68t37 50.5t52.5 37.5t61.5 30q-28 12 -52 26.5t-42 33.5t-28.5 44t-10.5 57q0 40 16 72t43.5 54.5t65 35t81.5 12.5q43 0 79.5 -12t62.5 -34.5t40.5 -54t14.5 -69.5q0 -31 -9.5 -54t-27 -42t-42.5 -34t-56 -29q32 -14 62 -30t53.5 -38t37.5 -51t14 -68
q0 -44 -18 -79t-50 -59t-75.5 -37t-94.5 -13q-50 0 -92 12.5t-72.5 36.5t-47.5 58t-17 76zM152 522q0 -26 10 -45t28 -34t43.5 -27t55.5 -24q64 25 97.5 53t33.5 76q0 51 -35 82t-98 31q-62 0 -98.5 -30.5t-36.5 -81.5zM450 173q0 32 -14 55.5t-37.5 41.5t-54.5 31.5
l-64 27.5q-34 -14 -63 -28.5t-50.5 -32t-33.5 -40t-12 -53.5q0 -61 45.5 -95.5t117.5 -34.5q36 0 66 8.5t52.5 25t35 40.5t12.5 54z" />
    <glyph glyph-name="nine" unicode="9" horiz-adv-x="572" 
d="M103 28q60 13 115 33.5t99 54t74.5 82.5t41.5 118q-42 -39 -87.5 -57t-93.5 -18q-44 0 -81.5 14.5t-64.5 42.5t-42.5 69t-15.5 93q0 55 17 98.5t46.5 73t69.5 45t85 15.5q52 0 96 -20t76 -58.5t50 -95.5t18 -131q0 -105 -35 -178t-90.5 -122t-125 -77t-139.5 -42z
M265 300q45 0 86.5 20.5t86.5 60.5v6q0 60 -13 106t-36.5 76.5t-55.5 46t-70 15.5q-65 0 -106.5 -43t-41.5 -121q0 -77 40.5 -122t109.5 -45z" />
    <glyph glyph-name="colon" unicode=":" horiz-adv-x="279" 
d="M190 440q0 -21 -13.5 -35.5t-36.5 -14.5t-36.5 14.5t-13.5 35.5t13.5 35.5t36.5 14.5t36.5 -14.5t13.5 -35.5zM190 38q0 -21 -13.5 -35.5t-36.5 -14.5t-36.5 14.5t-13.5 35.5t13.5 35.5t36.5 14.5t36.5 -14.5t13.5 -35.5z" />
    <glyph glyph-name="semicolon" unicode=";" horiz-adv-x="279" 
d="M45 -131q49 30 71 61.5t27 60.5h-5q-24 0 -37.5 14t-13.5 34q0 21 13 35t36 14q26 0 43 -20.5t17 -57.5q0 -39 -25 -86t-88 -88zM187 440q0 -21 -13.5 -35.5t-36.5 -14.5t-36.5 14.5t-13.5 35.5t13.5 35.5t36.5 14.5t36.5 -14.5t13.5 -35.5z" />
    <glyph glyph-name="less" unicode="&#x3c;" horiz-adv-x="572" 
d="M42 283l488 227v-62l-419 -193l419 -193v-62l-488 227v56z" />
    <glyph glyph-name="equal" unicode="=" horiz-adv-x="572" 
d="M530 329h-488v56h488v-56zM530 125h-488v56h488v-56z" />
    <glyph glyph-name="greater" unicode="&#x3e;" horiz-adv-x="572" 
d="M530 227l-488 -227v62l419 193l-419 193v62l488 -227v-56z" />
    <glyph glyph-name="question" unicode="?" horiz-adv-x="423" 
d="M182 35q0 -20 -13 -33.5t-34 -13.5t-34 13.5t-13 33.5t13 33.5t34 13.5t34 -13.5t13 -33.5zM296 552q0 31 -12.5 53.5t-33.5 37.5t-49.5 22t-61.5 7q-19 0 -44 -3t-54 -11v59q57 15 110 15q45 0 84 -11t68 -33t45.5 -55t16.5 -76t-15.5 -74.5t-38 -56.5t-49.5 -46.5
t-49.5 -44t-38 -49t-15.5 -60.5q0 -8 1 -13t3 -16h-58q-6 28 -6 50q0 36 14.5 62.5t36.5 49t47.5 42.5t47.5 41.5t36.5 48t14.5 61.5z" />
    <glyph glyph-name="at" unicode="@" horiz-adv-x="836" 
d="M420 -95q-77 0 -144.5 23t-117.5 67.5t-79 110.5t-29 152q0 85 28.5 156.5t80 123.5t123 81.5t157.5 29.5q77 0 141 -24t109.5 -67.5t71 -105.5t25.5 -137q0 -59 -15 -103t-39.5 -73t-56.5 -43.5t-66 -14.5q-50 0 -77.5 26.5t-32.5 68.5q-32 -39 -68.5 -67t-83.5 -28
q-48 0 -80 34.5t-32 111.5q0 42 11.5 85.5t36.5 79.5t65.5 58.5t99.5 22.5q41 0 72 -9.5t49 -17.5l-22 -210q-1 -8 -1.5 -15t-0.5 -15q0 -43 19 -60.5t47 -17.5q27 0 49.5 14t39 38.5t26 59.5t9.5 77q0 64 -22 116.5t-61.5 90t-94 57.5t-120.5 20q-74 0 -136 -26
t-106.5 -71.5t-69 -108.5t-24.5 -137q0 -76 25 -133t68.5 -95.5t101 -57.5t123.5 -19q53 0 103 11.5t95 28.5l15 -48q-45 -17 -99.5 -28.5t-112.5 -11.5zM355 130q21 0 41 10t38 25.5t33.5 33.5t27.5 34l18 177q-15 6 -32.5 10.5t-39.5 4.5q-45 0 -74.5 -20t-47 -49.5
t-25 -63.5t-7.5 -63q0 -54 19.5 -76.5t48.5 -22.5z" />
    <glyph glyph-name="A" unicode="A" horiz-adv-x="673" 
d="M637 0h-75l-72 206h-309l-72 -206h-73l261 720h83zM203 267h266l-132 379z" />
    <glyph glyph-name="B" unicode="B" horiz-adv-x="643" 
d="M96 720h223q109 0 171 -46t62 -140q0 -60 -27 -101.5t-84 -61.5q73 -18 107 -65t34 -113q0 -91 -61 -142t-186 -51h-239v720zM335 61q88 0 132.5 33t44.5 105t-44.5 105t-132.5 33h-169v-276h169zM314 396q85 0 126.5 31.5t41.5 99.5q0 69 -41.5 100t-126.5 31h-148v-262
h148z" />
    <glyph glyph-name="C" unicode="C" horiz-adv-x="607" 
d="M558 57q-39 -30 -90 -49.5t-113 -19.5q-64 0 -118.5 23t-94 69t-61.5 114.5t-22 159.5q0 92 23 162.5t64 118.5t97.5 72.5t123.5 24.5q57 0 103.5 -17t84.5 -46l-23 -67q-38 29 -78 47.5t-92 18.5q-51 0 -93.5 -19t-73.5 -58t-48 -97t-17 -136t17 -135.5t48 -95.5t73 -57
t93 -19t91.5 17.5t81.5 49.5z" />
    <glyph glyph-name="D" unicode="D" horiz-adv-x="695" 
d="M315 720q71 0 130 -23t101 -68t65.5 -112.5t23.5 -156.5t-23.5 -156.5t-66 -112.5t-101.5 -68t-129 -23h-220v720h220zM315 64q55 0 101 18t79 54.5t51 92t18 130.5t-18 130.5t-51 92.5t-79 55t-101 18h-149v-591h149z" />
    <glyph glyph-name="E" unicode="E" horiz-adv-x="588" 
d="M96 720h438v-65h-367v-249h323v-63h-323v-279h369v-64h-440v720z" />
    <glyph glyph-name="F" unicode="F" horiz-adv-x="543" 
d="M96 720h411v-65h-340v-259h304v-63h-304v-333h-71v720z" />
    <glyph glyph-name="G" unicode="G" horiz-adv-x="675" 
d="M379 49q42 0 78.5 9.5t71.5 27.5v227h-164v61h232v-319q-48 -31 -104 -49t-122 -18q-71 0 -128.5 22.5t-98 68t-63 114t-22.5 159.5q0 94 23.5 165t65.5 119t101 72t130 24q68 0 121 -20t97 -55l-24 -66q-46 37 -93 57t-105 20q-54 0 -99.5 -19t-77.5 -57.5t-50 -97
t-18 -138.5q0 -79 18 -137t50.5 -95.5t78.5 -56t102 -18.5z" />
    <glyph glyph-name="H" unicode="H" horiz-adv-x="703" 
d="M96 720h71v-312h369v312h71v-720h-71v343h-369v-343h-71v720z" />
    <glyph glyph-name="I" unicode="I" horiz-adv-x="281" 
d="M105 720h71v-720h-71v720z" />
    <glyph glyph-name="J" unicode="J" horiz-adv-x="405" 
d="M31 69q20 -5 43.5 -8t44.5 -3q37 0 62 9.5t39 28.5t20 46t6 62v516h71v-516q0 -51 -10 -90t-33 -66t-60 -40.5t-90 -13.5q-22 0 -47.5 2t-45.5 7v66z" />
    <glyph glyph-name="K" unicode="K" horiz-adv-x="643" 
d="M96 720h71v-355l339 355h90l-257 -263l282 -457h-81l-249 408l-124 -127v-281h-71v720z" />
    <glyph glyph-name="L" unicode="L" horiz-adv-x="530" 
d="M96 720h71v-655h332v-65h-403v720z" />
    <glyph glyph-name="M" unicode="M" horiz-adv-x="907" 
d="M774 720l55 -720h-73l-29 451q-2 23 -3 50t-2.5 53t-2.5 49.5t-1 38.5h-2q-3 -15 -9.5 -37.5t-15 -47.5l-18 -51.5l-17.5 -48.5l-171 -457h-66l-168 457l-19 52.5t-18 52l-14.5 45.5t-8.5 35h-2q0 -6 -1 -27t-2 -48.5t-3 -56.5t-3 -51l-32 -459h-70l59 720h94l161 -450
l33.5 -97t26.5 -85h2q14 45 29.5 89.5l31.5 88.5l166 454h93z" />
    <glyph glyph-name="N" unicode="N" horiz-adv-x="709" 
d="M96 720h81l369 -579v579h67v-720h-59l-391 612v-612h-67v720z" />
    <glyph glyph-name="O" unicode="O" horiz-adv-x="716" 
d="M657 362q0 -91 -22.5 -161t-63 -117t-95.5 -71.5t-120 -24.5q-64 0 -118.5 23.5t-94 70t-62 116t-22.5 160.5q0 92 23 162t63 117t95 71t120 24q64 0 118.5 -24t94 -70.5t62 -116t22.5 -159.5zM586 360q0 78 -16.5 136t-46.5 96t-72 57t-93 19t-93 -19t-72 -57t-46.5 -96
t-16.5 -136t16.5 -136t46.5 -96t72 -57t93 -19t93 19t72 57t46.5 96t16.5 136z" />
    <glyph glyph-name="P" unicode="P" horiz-adv-x="617" 
d="M96 720h243q112 0 174.5 -51.5t62.5 -154.5q0 -104 -64 -155.5t-179 -51.5h-166v-307h-71v720zM167 371h166q87 0 129.5 34t42.5 108t-42.5 108t-129.5 34h-166v-284z" />
    <glyph glyph-name="Q" unicode="Q" horiz-adv-x="717" 
d="M657 362q0 -87 -21 -154.5t-58 -114.5t-88 -72.5t-112 -29.5q-1 -7 -1 -13v-13q0 -28 6.5 -46t19 -28.5t30.5 -15t41 -4.5q29 0 53 5t44 11v-65q-21 -5 -48.5 -9.5t-58.5 -4.5q-71 0 -110 31.5t-39 108.5q0 11 0.5 22t2.5 22q-57 6 -104.5 32.5t-82 72.5t-53.5 111.5
t-19 149.5q0 92 23 162t63 117t95 71t120 24q64 0 118.5 -24t94 -70.5t62 -116t22.5 -159.5zM586 360q0 78 -16.5 136t-46.5 96t-72 57t-93 19t-93 -19t-72 -57t-46.5 -96t-16.5 -136t16.5 -136t46.5 -96t72 -57t93 -19t93 19t72 57t46.5 96t16.5 136z" />
    <glyph glyph-name="R" unicode="R" horiz-adv-x="670" 
d="M328 329h-161v-329h-71v720h250q110 0 171.5 -48.5t61.5 -146.5q0 -81 -43.5 -129.5t-130.5 -62.5l205 -333h-80zM340 388q85 0 126.5 31.5t41.5 102.5q0 70 -41.5 101.5t-126.5 31.5h-173v-267h173z" />
    <glyph glyph-name="S" unicode="S" horiz-adv-x="579" 
d="M83 121q45 -31 95 -50.5t106 -19.5q76 0 120.5 37.5t44.5 102.5q0 38 -16 63.5t-41.5 42.5t-59 28.5l-68 23t-67.5 25t-58.5 34t-41.5 51t-16 76.5q0 45 16.5 81.5t45.5 62t70 39.5t90 14q57 0 106.5 -17.5t91.5 -48.5l-23 -67q-41 31 -84.5 50t-94.5 19
q-69 0 -108 -33.5t-39 -90.5q0 -48 27.5 -74.5t68 -43t88.5 -29.5t88.5 -35t68 -59.5t27.5 -101.5q0 -50 -17 -89t-48.5 -67t-75.5 -42.5t-98 -14.5q-61 0 -117.5 18t-104.5 50z" />
    <glyph glyph-name="T" unicode="T" horiz-adv-x="561" 
d="M245 655h-214v65h499v-65h-214v-655h-71v655z" />
    <glyph glyph-name="U" unicode="U" horiz-adv-x="687" 
d="M88 720h72v-465q0 -106 43 -154.5t141 -48.5t141 48.5t43 154.5v465h70v-465q0 -138 -62 -202.5t-193 -64.5t-193 64t-62 200v468z" />
    <glyph glyph-name="V" unicode="V" horiz-adv-x="646" 
d="M36 720h74l213 -627l216 627h72l-254 -720h-72z" />
    <glyph glyph-name="W" unicode="W" horiz-adv-x="953" 
d="M533 415l-22 76.5l-13.5 49t-9.5 38.5l-10 45h-2q-11 -53 -25.5 -102.5l-29.5 -102.5l-124 -419h-69l-188 720h74l106 -415q0 -2 6 -25l14 -54.5l16 -65.5t12 -59h2q6 28 12 52l12 48q6 24 13 49l16 56l121 414h68l119 -413l16 -57l13 -48l12 -47l13 -54h2
q7 39 19.5 92.5t27.5 111.5l108 415h72l-193 -720h-68z" />
    <glyph glyph-name="X" unicode="X" horiz-adv-x="625" 
d="M267 371l-219 349h81l184 -297l183 297h80l-220 -349l234 -371h-81l-199 319l-197 -319h-80z" />
    <glyph glyph-name="Y" unicode="Y" horiz-adv-x="603" 
d="M266 309l-240 411h79l197 -341l198 341h77l-240 -411v-309h-71v309z" />
    <glyph glyph-name="Z" unicode="Z" horiz-adv-x="598" 
d="M41 54l409 601h-387v65h479v-55l-409 -601h414v-64h-506v54z" />
    <glyph glyph-name="bracketleft" unicode="[" horiz-adv-x="347" 
d="M307 -180h-221v900h221v-58h-152v-784h152v-58z" />
    <glyph glyph-name="backslash" unicode="\" horiz-adv-x="557" 
d="M533 -40h-71l-438 760h71z" />
    <glyph glyph-name="bracketright" unicode="]" horiz-adv-x="347" 
d="M40 -122h152v784h-152v58h221v-900h-221v58z" />
    <glyph glyph-name="asciicircum" unicode="^" horiz-adv-x="572" 
d="M314 720l227 -488h-62l-193 419l-193 -419h-62l227 488h56z" />
    <glyph glyph-name="underscore" unicode="_" horiz-adv-x="492" 
d="M-4 -73h500v-57h-500v57z" />
    <glyph glyph-name="grave" unicode="`" horiz-adv-x="500" 
d="M253 574l-124 146h84l96 -146h-56z" />
    <glyph glyph-name="a" unicode="a" horiz-adv-x="521" 
d="M270 463q-47 0 -88.5 -15.5t-82.5 -39.5l-20 56q40 24 91 41t110 17q78 0 122 -38t44 -130v-238q0 -57 3 -81.5t7 -34.5h-65q-5 8 -7.5 22.5t-4.5 43.5q-35 -36 -79 -57t-95 -21q-68 0 -111.5 39t-43.5 116q0 81 57 125t182 44q16 0 37 -1t52 -6v43q0 63 -27 89t-81 26z
M378 253q-30 5 -49.5 6.5t-40.5 1.5q-93 0 -131.5 -28.5t-38.5 -84.5q0 -52 27.5 -77t72.5 -25q48 0 88 23t72 55v129z" />
    <glyph glyph-name="b" unicode="b" horiz-adv-x="570" 
d="M149 720v-284q35 40 78 63t95 23q43 0 79 -17t62.5 -50t41.5 -82t15 -113q0 -67 -16 -118t-44 -85t-66 -51.5t-82 -17.5q-49 0 -89.5 20.5t-76.5 62.5v-71h-66v720h69zM307 461q-45 0 -84 -23t-74 -63v-248q33 -38 71 -59t82 -21q67 0 108 50.5t41 156.5q0 105 -40 156
t-104 51z" />
    <glyph glyph-name="c" unicode="c" horiz-adv-x="468" 
d="M404 415q-29 22 -57.5 35t-65.5 13q-35 0 -64.5 -12.5t-51.5 -38.5t-34 -65t-12 -92q0 -105 46 -157t118 -52q38 0 68 13t55 34l20 -56q-31 -25 -70.5 -37t-81.5 -12q-49 0 -90 16t-71 48t-46.5 81.5t-16.5 115.5q0 68 17.5 119t48.5 85.5t73.5 51.5t92.5 17
q45 0 79 -12.5t63 -33.5z" />
    <glyph glyph-name="d" unicode="d" horiz-adv-x="570" 
d="M434 0q-5 8 -8 24t-5 50q-34 -40 -77.5 -63t-95.5 -23q-42 0 -78.5 16.5t-63 49t-41.5 81t-15 113.5q0 67 16 118.5t44.5 86t67 52t82.5 17.5q92 0 161 -79v277h69v-604q0 -57 3 -81.5t7 -34.5h-66zM263 47q45 0 84 23t74 63v248q-33 38 -71 59t-82 21q-67 0 -108 -50.5
t-41 -156.5q0 -105 40 -156t104 -51z" />
    <glyph glyph-name="e" unicode="e" horiz-adv-x="537" 
d="M120 241q1 -51 14 -88t35 -61t52.5 -35.5t67.5 -11.5q42 0 80 13.5t79 38.5l20 -55q-41 -26 -90 -40t-98 -14q-51 0 -93.5 16.5t-73 49.5t-47 81.5t-16.5 112.5q0 66 17.5 117t48.5 86t73.5 53t91.5 18q91 0 146 -61.5t55 -181.5v-20q0 -7 -1 -18h-361zM278 466
q-66 0 -108 -44.5t-50 -127.5h295q0 46 -10.5 78.5t-28.5 53.5t-43 30.5t-55 9.5z" />
    <glyph glyph-name="f" unicode="f" horiz-adv-x="336" 
d="M25 510h105v72q0 70 30 107t103 37q27 0 59 -6v-59q-27 6 -50 6q-43 0 -58 -22.5t-15 -62.5v-72h123v-59h-123v-451h-69v451h-105v59z" />
    <glyph glyph-name="g" unicode="g" horiz-adv-x="577" 
d="M489 344q0 -44 -17 -78.5t-47 -58t-70 -36t-86 -12.5q-25 0 -49 4t-46 12q-14 -11 -23 -24.5t-9 -30.5q0 -16 8 -25t21 -13t30 -5t34 -1h118q81 0 128 -31.5t47 -93.5q0 -42 -22 -74.5t-60.5 -54t-90 -33t-110.5 -11.5q-50 0 -90.5 8t-69.5 24t-45 40t-16 56q0 41 27 72
t82 51q-26 11 -41 29.5t-15 45.5q0 30 17 52t40 39q-34 22 -54.5 57t-20.5 85q0 44 17 78.5t47 58t69.5 36t84.5 12.5q46 0 87 -13t70 -39q16 16 40.5 28.5t56.5 12.5h12q5 0 12 -1v-66q-5 1 -10.5 1.5t-13.5 0.5q-19 0 -35 -4t-29 -11q22 -38 22 -87zM128 338
q0 -33 11.5 -57t31 -39.5t46.5 -22.5t57 -7q64 0 105.5 31.5t41.5 96.5q0 33 -11.5 57t-31 39.5t-46.5 23t-57 7.5q-63 0 -105 -31.5t-42 -97.5zM205 15q-54 -16 -83 -40.5t-29 -59.5q0 -44 42.5 -63.5t117.5 -19.5q46 0 83.5 7t64.5 21t41.5 34.5t14.5 47.5q0 73 -118 73
h-134z" />
    <glyph glyph-name="h" unicode="h" horiz-adv-x="567" 
d="M80 720h69v-289q16 16 37.5 32.5t47.5 29.5t55.5 21t62.5 8q29 0 54.5 -7.5t44.5 -24t30 -43.5t11 -67v-380h-69v366q0 53 -24.5 73.5t-64.5 20.5q-52 0 -99.5 -26t-85.5 -64v-370h-69v720z" />
    <glyph glyph-name="i" unicode="i" horiz-adv-x="241" 
d="M86 510h69v-510h-69v510zM167 652q0 -20 -13 -33t-33 -13t-33 13t-13 33t13 33t33 13t33 -13t13 -33z" />
    <glyph glyph-name="j" unicode="j" horiz-adv-x="241" 
d="M155 -72q0 -70 -30 -107t-103 -37q-28 0 -59 6v59q27 -6 49 -6q44 0 59 22t15 63v582h69v-582zM167 652q0 -20 -13 -33t-33 -13t-33 13t-13 33t13 33t33 13t33 -13t13 -33z" />
    <glyph glyph-name="k" unicode="k" horiz-adv-x="524" 
d="M80 720h69v-432l235 222h88l-197 -180l220 -330h-76l-190 288l-80 -73v-215h-69v720z" />
    <glyph glyph-name="l" unicode="l" horiz-adv-x="241" 
d="M86 720h69v-720h-69v720z" />
    <glyph glyph-name="m" unicode="m" horiz-adv-x="884" 
d="M80 510h69v-78q16 16 36.5 32t45 29t53 21t60.5 8q20 0 40.5 -4t38 -14.5t31 -28t19.5 -43.5q16 15 36.5 31t46 29t55.5 21.5t63 8.5q29 0 53.5 -7.5t42.5 -24t28.5 -43.5t10.5 -67v-380h-69v366q0 54 -22.5 74t-60.5 20q-27 0 -53 -8t-48.5 -20.5t-42 -27.5t-34.5 -30
v-374h-69v366q0 54 -23 74t-61 20q-51 0 -95 -26t-82 -64v-370h-69v510z" />
    <glyph glyph-name="n" unicode="n" horiz-adv-x="567" 
d="M80 510h69v-79q37 37 89 64t115 27q28 0 53.5 -7.5t44.5 -24t30 -43.5t11 -67v-380h-69v366q0 53 -24.5 73.5t-64.5 20.5q-53 0 -99.5 -26.5t-85.5 -63.5v-370h-69v510z" />
    <glyph glyph-name="o" unicode="o" horiz-adv-x="554" 
d="M119 255q0 -56 12.5 -95.5t33.5 -64.5t50 -37t62 -12t62 12t50 37t33.5 64.5t12.5 95.5q0 55 -12.5 95t-33.5 65t-50 37t-62 12t-62 -12t-50 -37t-33.5 -65t-12.5 -95zM504 257q0 -69 -18 -119.5t-49.5 -83.5t-73 -49.5t-88.5 -16.5q-46 0 -87 15.5t-71.5 48t-48.5 82.5
t-18 119t18.5 120t49.5 84t72.5 49t88.5 16q46 0 87 -16t71.5 -48.5t48.5 -82.5t18 -118z" />
    <glyph glyph-name="p" unicode="p" horiz-adv-x="570" 
d="M149 510v-74q35 40 78 63t94 23q43 0 79.5 -17t63 -50t41.5 -82t15 -114q0 -67 -16 -117.5t-44 -84.5t-66 -51.5t-82 -17.5q-48 0 -88 20t-75 59v-277h-69v720h69zM307 461q-45 0 -84 -23t-74 -63v-248q33 -38 71 -59t82 -21q67 0 108 50.5t41 156.5q0 105 -40 156
t-104 51z" />
    <glyph glyph-name="q" unicode="q" horiz-adv-x="570" 
d="M421 -210v284q-35 -40 -78 -63t-95 -23q-43 0 -79 16.5t-62.5 49.5t-41.5 81.5t-15 112.5q0 67 16 118.5t44 86t66.5 52t82.5 17.5q48 0 88.5 -20.5t76.5 -62.5v71h66v-720h-69zM263 47q45 0 84 23t74 63v248q-33 38 -71 59t-82 21q-67 0 -108 -50.5t-41 -156.5
q0 -105 40 -156t104 -51z" />
    <glyph glyph-name="r" unicode="r" horiz-adv-x="367" 
d="M345 455q-8 1 -17 1.5t-17 0.5q-30 0 -55.5 -10.5t-46.5 -25t-36 -30.5t-24 -27v-364h-69v510h69v-82q11 16 27 32.5t36 30t45 22.5t55 9q18 0 33 -3v-64z" />
    <glyph glyph-name="s" unicode="s" horiz-adv-x="454" 
d="M368 413q-30 21 -63.5 36t-70.5 15q-45 0 -70.5 -23t-25.5 -58q0 -32 19.5 -48.5t49.5 -27.5t64 -20t64 -25t49.5 -43t19.5 -73q0 -74 -50.5 -116t-134.5 -42q-47 0 -90 13.5t-79 36.5l20 60q35 -23 73.5 -38t80.5 -15q54 0 83 25t29 67q0 35 -19.5 54t-49.5 31t-64 21
t-64 24t-49.5 40t-19.5 69q0 66 45.5 106t121.5 40q43 0 81 -13t70 -36z" />
    <glyph glyph-name="t" unicode="t" horiz-adv-x="375" 
d="M25 510h105v170h69v-170h135v-59h-135v-313q0 -50 12.5 -67.5t49.5 -17.5q21 0 38.5 4t34.5 9v-61q-18 -4 -38.5 -7.5t-47.5 -3.5q-32 0 -54.5 7t-36.5 22.5t-20.5 41.5t-6.5 65v321h-105v59z" />
    <glyph glyph-name="u" unicode="u" horiz-adv-x="567" 
d="M486 0h-69v79q-37 -37 -89 -64t-115 -27q-29 0 -54 7.5t-44 24t-30 43.5t-11 67v380h69v-368q0 -53 24.5 -73.5t64.5 -20.5q53 0 99.5 26.5t85.5 63.5v372h69v-510z" />
    <glyph glyph-name="v" unicode="v" horiz-adv-x="505" 
d="M25 510h73l153 -422l157 422h71l-194 -510h-71z" />
    <glyph glyph-name="w" unicode="w" horiz-adv-x="751" 
d="M180 0l-154 510h70l87 -292q13 -43 21 -76t13 -65h2q4 24 13 60.5t22 78.5l91 294h65l87 -293l11 -37l9.5 -31.5t8 -32t7.5 -39.5h2q5 32 13 65.5t21 76.5l88 291h68l-158 -510h-67l-85 284q-13 43 -21.5 75.5t-16.5 69.5h-2q-8 -37 -18 -71.5l-21 -71.5l-88 -286h-68z
" />
    <glyph glyph-name="x" unicode="x" horiz-adv-x="504" 
d="M210 265l-167 245h78l131 -200l132 200h76l-167 -245l181 -265h-78l-145 220l-147 -220h-75z" />
    <glyph glyph-name="y" unicode="y" horiz-adv-x="505" 
d="M38 -150l21.5 -4t24.5 -2q22 0 40 7t35 25.5t33.5 51t35.5 84.5h-24l-178 498h73l153 -441l156 441h71l-183 -498q-26 -71 -48.5 -115t-46.5 -69.5t-52 -34.5t-64 -9q-11 0 -24 1t-23 3v62z" />
    <glyph glyph-name="z" unicode="z" horiz-adv-x="482" 
d="M32 50l314 401h-295v59h384v-50l-314 -401h319v-59h-408v50z" />
    <glyph glyph-name="braceleft" unicode="{" horiz-adv-x="347" 
d="M200 -50q0 -34 15.5 -53t59.5 -19h39v-58h-39q-75 0 -109.5 33.5t-34.5 96.5v219q0 35 -15 53.5t-60 18.5h-23v58h23q45 0 60 18.5t15 53.5v219q0 63 34.5 96.5t109.5 33.5h39v-58h-39q-44 0 -59.5 -19t-15.5 -53v-219q0 -76 -63 -101q63 -26 63 -101v-219z" />
    <glyph glyph-name="bar" unicode="|" horiz-adv-x="343" 
d="M138 720h67v-900h-67v900z" />
    <glyph glyph-name="braceright" unicode="}" horiz-adv-x="347" 
d="M147 169q0 75 63 101q-63 25 -63 101v219q0 34 -15.5 53t-59.5 19h-39v58h39q75 0 109.5 -33.5t34.5 -96.5v-219q0 -35 15 -53.5t60 -18.5h23v-58h-23q-45 0 -60 -18.5t-15 -53.5v-219q0 -63 -34.5 -96.5t-109.5 -33.5h-39v58h39q44 0 59.5 19t15.5 53v219z" />
    <glyph glyph-name="asciitilde" unicode="~" horiz-adv-x="572" 
d="M165 250q-30 0 -56.5 -12t-49.5 -34l-29 52q23 21 58.5 37.5t77.5 16.5q29 0 61 -8t63.5 -17l61 -17t55.5 -8q30 0 56.5 12t49.5 34l29 -52q-23 -21 -58.5 -37.5t-77.5 -16.5q-29 0 -61 8t-63.5 17l-61.5 17t-55 8z" />
    <glyph glyph-name="uni00A0" unicode="&#xa0;" horiz-adv-x="220" 
 />
    <glyph glyph-name="exclamdown" unicode="&#xa1;" horiz-adv-x="315" 
d="M195 -210h-74l12 523h50zM111 475q0 20 13 33.5t34 13.5t34 -13.5t13 -33.5t-13 -33.5t-34 -13.5t-34 13.5t-13 33.5z" />
    <glyph glyph-name="cent" unicode="&#xa2;" horiz-adv-x="572" 
d="M246 8q-72 19 -116 79t-44 163q0 64 18 112.5t49.5 81.5t74.5 49.5t94 16.5q11 0 21 -0.5t18 -1.5l27 117h46l-29 -127q19 -6 36 -14.5t32 -19.5l-20 -60q-16 11 -30.5 20t-31.5 15l-88 -381q5 -1 10 -1h12q39 0 70 12t60 35l20 -55q-30 -23 -70 -36t-88 -13h-14
q-6 0 -13 1l-31 -136h-46zM155 255q0 -77 28 -123.5t76 -63.5l89 382q-7 1 -13 1.5t-15 0.5q-35 0 -65.5 -12t-52.5 -36.5t-34.5 -61.5t-12.5 -87z" />
    <glyph glyph-name="sterling" unicode="&#xa3;" horiz-adv-x="572" 
d="M425 633q-54 0 -75.5 -27.5t-26.5 -76.5l-17 -152h177v-55h-182l-9 -83q-7 -62 -26 -102.5t-57 -67.5q42 -5 86.5 -13.5t86.5 -8.5q26 0 49.5 5.5t49.5 21.5l20 -57q-23 -14 -54 -21.5t-64 -7.5q-26 0 -52.5 3.5t-53 8l-52.5 8.5t-50 4q-28 0 -52.5 -6.5t-47.5 -20.5
l-20 57q43 15 73 30.5t50 37t30.5 52.5t15.5 77l8 83h-153v55h159l16 152q8 80 44 121.5t122 41.5q17 0 32.5 -1.5t30.5 -3.5v-59q-15 2 -30 3.5t-28 1.5z" />
    <glyph glyph-name="currency" unicode="&#xa4;" horiz-adv-x="572" 
d="M187 255q0 -43 28.5 -71.5t70.5 -28.5t70.5 28.5t28.5 71.5t-28.5 71.5t-70.5 28.5t-70.5 -28.5t-28.5 -71.5zM435 255q0 -47 -24 -83l86 -87l-40 -42l-88 89q-18 -11 -39 -17t-44 -6t-44 6t-39 17l-88 -89l-40 42l86 87q-24 36 -24 83t24 83l-86 87l40 42l88 -89
q18 11 39 17t44 6t44 -6t39 -17l88 89l40 -42l-86 -87q24 -36 24 -83z" />
    <glyph glyph-name="yen" unicode="&#xa5;" horiz-adv-x="572" 
d="M83 308h161l-219 372h74l188 -321l188 321h72l-220 -372h162v-55h-169v-80h169v-55h-169v-118h-68v118h-169v55h169v80h-169v55z" />
    <glyph glyph-name="brokenbar" unicode="&#xa6;" horiz-adv-x="343" 
d="M138 720h67v-390h-67v390zM138 210h67v-390h-67v390z" />
    <glyph glyph-name="section" unicode="&#xa7;" horiz-adv-x="572" 
d="M318 692q46 0 87.5 -12.5t76.5 -34.5l-22 -61q-34 22 -70 35.5t-77 13.5q-65 0 -109 -34.5t-61 -94.5q39 -5 81 -16t81.5 -28.5t75.5 -43.5t62.5 -60.5t42.5 -79.5t16 -101q0 -61 -19 -110.5t-53.5 -84t-82.5 -53.5t-105 -19q-48 0 -91.5 12.5t-80.5 33.5l22 61
q35 -22 73.5 -35.5t82.5 -13.5q68 0 114.5 34t64.5 95q-58 7 -121 28t-115.5 60t-86.5 98.5t-34 144.5q0 60 18 109t50.5 84t78 54t101.5 19zM438 171q0 48 -13.5 85.5t-37 66.5t-54 50t-64.5 35.5t-68.5 23t-66.5 13.5v-15q0 -73 29.5 -123t74.5 -82t98.5 -48.5
t101.5 -23.5v18z" />
    <glyph glyph-name="dieresis" unicode="&#xa8;" horiz-adv-x="500" 
d="M114 622q0 18 12 30.5t31 12.5t31 -12.5t12 -30.5t-12 -30.5t-31 -12.5t-31 12.5t-12 30.5zM300 622q0 18 12 30.5t31 12.5t31 -12.5t12 -30.5t-12 -30.5t-31 -12.5t-31 12.5t-12 30.5z" />
    <glyph glyph-name="copyright" unicode="&#xa9;" horiz-adv-x="838" 
d="M542 202q-22 -16 -50.5 -25.5t-62.5 -9.5q-72 0 -118.5 47t-46.5 140q0 48 13 84t35.5 61t53.5 37.5t67 12.5q34 0 61 -9.5t46 -23.5l-13 -52q-19 14 -41.5 24.5t-51.5 10.5q-49 0 -81 -34.5t-32 -106.5q0 -73 33 -107.5t82 -34.5q27 0 49 9.5t42 24.5zM92 360
q0 -70 25.5 -130t69.5 -103.5t103.5 -68.5t128.5 -25t128.5 25t103.5 68.5t69.5 103.5t25.5 130t-25.5 130t-69.5 103.5t-103.5 68.5t-128.5 25t-128.5 -25t-103.5 -68.5t-69.5 -103.5t-25.5 -130zM791 360q0 -80 -28.5 -148t-79 -118t-118.5 -78t-146 -28t-146 28
t-118.5 78t-79 118t-28.5 148t28.5 148t79 118t118.5 78t146 28t146 -28t118.5 -78t79 -118t28.5 -148z" />
    <glyph glyph-name="ordfeminine" unicode="&#xaa;" horiz-adv-x="328" 
d="M173 704q49 0 78 -24t29 -83v-145q0 -36 2 -50.5t4 -21.5h-50q-2 5 -4 12.5t-3 22.5q-20 -20 -46 -31.5t-55 -11.5q-40 0 -68 24.5t-28 73.5q0 51 35.5 78t108.5 27q11 0 23.5 -1t28.5 -3v23q0 36 -16.5 51t-48.5 15q-28 0 -54 -9.5t-50 -23.5l-13 43q24 14 56.5 24
t70.5 10zM142 414q26 0 47.5 11.5t38.5 27.5v81q-14 2 -24.5 3t-21.5 1q-54 0 -76 -16.5t-22 -48.5q0 -30 16 -44.5t42 -14.5z" />
    <glyph glyph-name="guillemotleft" unicode="&#xab;" horiz-adv-x="487" 
d="M48 255l138 231h66l-133 -231l133 -231h-66zM219 255l138 231h66l-133 -231l133 -231h-66z" />
    <glyph glyph-name="logicalnot" unicode="&#xac;" horiz-adv-x="572" 
d="M470 66v226h-428v59h488v-285h-60z" />
    <glyph glyph-name="uni00AD" unicode="&#xad;" horiz-adv-x="406" 
d="M66 341h274v-59h-274v59z" />
    <glyph glyph-name="registered" unicode="&#xae;" horiz-adv-x="838" 
d="M791 360q0 -80 -28.5 -148t-79 -118t-118.5 -78t-146 -28t-146 28t-118.5 78t-79 118t-28.5 148t28.5 148t79 118t118.5 78t146 28t146 -28t118.5 -78t79 -118t28.5 -148zM92 360q0 -70 25.5 -130t69.5 -103.5t103.5 -68.5t128.5 -25t128.5 25t103.5 68.5t69.5 103.5
t25.5 130t-25.5 130t-69.5 103.5t-103.5 68.5t-128.5 25t-128.5 -25t-103.5 -68.5t-69.5 -103.5t-25.5 -130zM419 329h-73v-154h-57v366h138q63 0 98 -26.5t35 -79.5q0 -42 -21.5 -66.5t-61.5 -34.5l98 -159h-62zM422 374q81 0 81 58q0 59 -81 59h-76v-117h76z" />
    <glyph glyph-name="macron" unicode="&#xaf;" horiz-adv-x="500" 
d="M110 642h280v-57h-280v57z" />
    <glyph glyph-name="degree" unicode="&#xb0;" horiz-adv-x="415" 
d="M109 586q0 -43 28.5 -71.5t70.5 -28.5t70.5 28.5t28.5 71.5t-28.5 71.5t-70.5 28.5t-70.5 -28.5t-28.5 -71.5zM357 586q0 -31 -11.5 -58t-31.5 -46.5t-47 -30.5t-59 -11t-59 11t-47 30.5t-31.5 46.5t-11.5 58t11.5 58t31.5 46.5t47 30.5t59 11t59 -11t47 -30.5
t31.5 -46.5t11.5 -58z" />
    <glyph glyph-name="plusminus" unicode="&#xb1;" horiz-adv-x="572" 
d="M256 103v175h-214v57h214v175h60v-175h214v-57h-214v-175h-60zM42 49h488v-56h-488v56z" />
    <glyph glyph-name="twosuperior" unicode="&#xb2;" horiz-adv-x="357" 
d="M253 705q0 35 -20 58t-60 23q-37 0 -65 -19t-54 -49l-18 45q26 32 61 51.5t81 19.5q60 0 94 -34t34 -92q0 -29 -10 -57.5t-32.5 -61.5t-59.5 -72t-92 -89h207v-48h-283v42q59 53 100.5 94t67.5 74.5t37.5 61t11.5 53.5z" />
    <glyph glyph-name="threesuperior" unicode="&#xb3;" horiz-adv-x="347" 
d="M168 834q56 0 93 -29t37 -83q0 -42 -24 -69.5t-66 -41.5q53 -12 77 -42t24 -72q0 -30 -11.5 -53.5t-32.5 -39.5t-50 -24t-63 -8q-39 0 -72.5 9t-57.5 23l16 48q24 -14 52 -23.5t63 -9.5q47 0 75 20t28 60q0 43 -33 63t-92 20q-11 0 -20.5 -0.5t-21.5 -1.5v47
q72 0 114.5 22.5t42.5 67.5q0 33 -23.5 51t-61.5 18q-29 0 -54 -10t-53 -30l-15 45q29 20 60.5 31.5t68.5 11.5z" />
    <glyph glyph-name="acute" unicode="&#xb4;" horiz-adv-x="500" 
d="M191 574l96 146h84l-124 -146h-56z" />
    <glyph glyph-name="mu" unicode="&#xb5;" horiz-adv-x="572" 
d="M80 -210v720h69v-368q0 -53 24.5 -73.5t64.5 -20.5q53 0 99.5 26.5t85.5 63.5v372h69v-510h-69v79q-17 -18 -39.5 -34t-48.5 -29t-54 -20.5t-57 -7.5q-25 0 -46.5 5.5t-37.5 15.5q5 -65 6.5 -116t1.5 -103h-68z" />
    <glyph glyph-name="paragraph" unicode="&#xb6;" horiz-adv-x="511" 
d="M422 680v-554q0 -56 -12.5 -93.5t-37.5 -62t-62.5 -39.5t-87.5 -26l-17 57q37 7 66 18t48.5 29t29.5 46.5t10 72.5v552h63zM280 277q-115 0 -177 55t-62 146t62 146.5t177 55.5v-403z" />
    <glyph glyph-name="periodcentered" unicode="&#xb7;" horiz-adv-x="279" 
d="M190 257q0 -21 -13.5 -35.5t-36.5 -14.5t-36.5 14.5t-13.5 35.5t13.5 35.5t36.5 14.5t36.5 -14.5t13.5 -35.5z" />
    <glyph glyph-name="cedilla" unicode="&#xb8;" horiz-adv-x="500" 
d="M349 -99q0 -42 -30.5 -63.5t-80.5 -21.5q-32 0 -52.5 7.5t-35.5 15.5l12 45q16 -8 34 -15t41 -7q53 0 53 40q0 21 -17.5 37.5t-55.5 25.5l13 37q52 -7 85.5 -32t33.5 -69z" />
    <glyph glyph-name="onesuperior" unicode="&#xb9;" horiz-adv-x="231" 
d="M20 773l101 53h43v-446h-53v386l-72 -38z" />
    <glyph glyph-name="ordmasculine" unicode="&#xba;" horiz-adv-x="352" 
d="M320 539q0 -43 -12 -74.5t-32 -52t-46 -30.5t-55 -10t-55 10t-45.5 30.5t-31 51.5t-11.5 73q0 43 12 74.5t32 52t46 30.5t55 10t55 -10t45.5 -30.5t31 -51.5t11.5 -73zM268 538q0 33 -7.5 56t-20 38t-29 22t-35.5 7q-38 0 -65 -28.5t-27 -94.5t27 -94.5t65 -28.5
q19 0 35.5 7t29 22t20 38t7.5 56z" />
    <glyph glyph-name="guillemotright" unicode="&#xbb;" horiz-adv-x="487" 
d="M129 24h-66l133 231l-133 231h66l138 -231zM300 24h-66l133 231l-133 231h66l138 -231z" />
    <glyph glyph-name="onequarter" unicode="&#xbc;" horiz-adv-x="716" 
d="M368 139l203 307h64v-306h68v-47h-68v-93h-52v93h-215v46zM583 140v243l-161 -243h161zM537 720h58l-450 -720h-58zM20 667l101 53h43v-446h-53v386l-72 -38z" />
    <glyph glyph-name="onehalf" unicode="&#xbd;" horiz-adv-x="755" 
d="M524 720h58l-450 -720h-58zM20 667l101 53h43v-446h-53v386l-72 -38zM653 325q0 35 -20 58t-60 23q-37 0 -65 -19t-54 -49l-18 45q26 32 61 51.5t81 19.5q60 0 94 -34t34 -92q0 -29 -10 -57.5t-32.5 -61.5t-59.5 -72t-92 -89h207v-48h-283v42q59 53 100.5 94t67.5 74.5
t37.5 61t11.5 53.5z" />
    <glyph glyph-name="threequarters" unicode="&#xbe;" horiz-adv-x="788" 
d="M440 139l203 307h64v-306h68v-47h-68v-93h-52v93h-215v46zM655 140v243l-161 -243h161zM627 720h58l-450 -720h-58zM168 728q56 0 93 -29t37 -83q0 -42 -24 -69.5t-66 -41.5q53 -12 77 -42t24 -72q0 -30 -11.5 -53.5t-32.5 -39.5t-50 -24t-63 -8q-39 0 -72.5 9t-57.5 23
l16 48q24 -14 52 -23.5t63 -9.5q47 0 75 20t28 60q0 43 -33 63t-92 20q-11 0 -20.5 -0.5t-21.5 -1.5v47q72 0 114.5 22.5t42.5 67.5q0 33 -23.5 51t-61.5 18q-29 0 -54 -10t-53 -30l-15 45q29 20 60.5 31.5t68.5 11.5z" />
    <glyph glyph-name="questiondown" unicode="&#xbf;" horiz-adv-x="423" 
d="M240 475q0 20 13 33.5t34 13.5t34 -13.5t13 -33.5t-13 -33.5t-34 -13.5t-34 13.5t-13 33.5zM126 -42q0 -31 12.5 -53.5t33.5 -37.5t49.5 -22t61.5 -7q19 0 44 3t54 11v-59q-57 -15 -110 -15q-45 0 -84 11t-68 33t-45.5 54.5t-16.5 76.5q0 43 15.5 74.5t38 56.5t49.5 46.5
t49.5 44t38 48.5t15.5 61q0 8 -1 13t-3 16h58q6 -29 6 -50q0 -36 -14.5 -62.5t-36.5 -49t-47.5 -42.5t-47.5 -41.5t-36.5 -48t-14.5 -61.5z" />
    <glyph glyph-name="Agrave" unicode="&#xc0;" horiz-adv-x="673" 
d="M637 0h-75l-72 206h-309l-72 -206h-73l261 720h83zM203 267h266l-132 379zM339 783l-125 125h85l96 -125h-56z" />
    <glyph glyph-name="Aacute" unicode="&#xc1;" horiz-adv-x="673" 
d="M637 0h-75l-72 206h-309l-72 -206h-73l261 720h83zM203 267h266l-132 379zM277 783l96 125h85l-125 -125h-56z" />
    <glyph glyph-name="Acircumflex" unicode="&#xc2;" horiz-adv-x="673" 
d="M637 0h-75l-72 206h-309l-72 -206h-73l261 720h83zM203 267h266l-132 379zM186 783l122 125h56l122 -125h-56l-94 68l-94 -68h-56z" />
    <glyph glyph-name="Atilde" unicode="&#xc3;" horiz-adv-x="673" 
d="M637 0h-75l-72 206h-309l-72 -206h-73l261 720h83zM203 267h266l-132 379zM188 783q0 30 6.5 49.5t17.5 31.5t24.5 17t28.5 5q21 0 40.5 -8.5t37 -18l33 -18t30.5 -8.5q14 0 23 10t9 37h46q0 -30 -6.5 -49.5t-17.5 -31.5t-24.5 -17t-28.5 -5q-21 0 -40.5 8.5t-37 18
l-33 18t-30.5 8.5q-14 0 -23 -10t-9 -37h-46z" />
    <glyph glyph-name="Adieresis" unicode="&#xc4;" horiz-adv-x="673" 
d="M637 0h-75l-72 206h-309l-72 -206h-73l261 720h83zM203 267h266l-132 379zM200 825q0 18 12 30.5t31 12.5t31 -12.5t12 -30.5t-12 -30.5t-31 -12.5t-31 12.5t-12 30.5zM386 825q0 18 12 30.5t31 12.5t31 -12.5t12 -30.5t-12 -30.5t-31 -12.5t-31 12.5t-12 30.5z" />
    <glyph glyph-name="Aring" unicode="&#xc5;" horiz-adv-x="673" 
d="M426 756q0 -45 -35 -69l246 -687h-75l-72 206h-309l-72 -206h-73l249 687q-35 24 -35 69q0 36 25 61t63 25t63 -25t25 -61zM203 267h266l-132 379zM289 756q0 -20 13.5 -33.5t35.5 -13.5t35.5 13.5t13.5 33.5t-13.5 33.5t-35.5 13.5t-35.5 -13.5t-13.5 -33.5z" />
    <glyph glyph-name="AE" unicode="&#xc6;" horiz-adv-x="933" 
d="M432 720h447v-65h-337v-249h294v-63h-294v-279h339v-64h-410v206h-252l-114 -206h-78zM471 267v393l-218 -393h218z" />
    <glyph glyph-name="Ccedilla" unicode="&#xc7;" horiz-adv-x="607" 
d="M436 -99q0 -42 -30.5 -63.5t-80.5 -21.5q-32 0 -52.5 7.5t-35.5 15.5l12 45q16 -8 34 -15t41 -7q53 0 53 40q0 21 -17.5 37.5t-55.5 25.5l9 26q-56 7 -102.5 33t-80.5 72t-52.5 110.5t-18.5 147.5q0 92 23 162.5t64 118.5t97.5 72.5t123.5 24.5q57 0 103.5 -17t84.5 -46
l-23 -67q-38 29 -78 47.5t-92 18.5q-51 0 -93.5 -19t-73.5 -58t-48 -97t-17 -136t17 -135.5t48 -95.5t73 -57t93 -19t91.5 17.5t81.5 49.5l24 -61q-37 -29 -84 -47.5t-104 -20.5q30 -13 48 -34.5t18 -53.5z" />
    <glyph glyph-name="Egrave" unicode="&#xc8;" horiz-adv-x="588" 
d="M96 720h438v-65h-367v-249h323v-63h-323v-279h369v-64h-440v720zM318 783l-125 125h85l96 -125h-56z" />
    <glyph glyph-name="Eacute" unicode="&#xc9;" horiz-adv-x="588" 
d="M96 720h438v-65h-367v-249h323v-63h-323v-279h369v-64h-440v720zM256 783l96 125h85l-125 -125h-56z" />
    <glyph glyph-name="Ecircumflex" unicode="&#xca;" horiz-adv-x="588" 
d="M96 720h438v-65h-367v-249h323v-63h-323v-279h369v-64h-440v720zM165 783l122 125h56l122 -125h-56l-94 68l-94 -68h-56z" />
    <glyph glyph-name="Edieresis" unicode="&#xcb;" horiz-adv-x="588" 
d="M96 720h438v-65h-367v-249h323v-63h-323v-279h369v-64h-440v720zM179 825q0 18 12 30.5t31 12.5t31 -12.5t12 -30.5t-12 -30.5t-31 -12.5t-31 12.5t-12 30.5zM365 825q0 18 12 30.5t31 12.5t31 -12.5t12 -30.5t-12 -30.5t-31 -12.5t-31 12.5t-12 30.5z" />
    <glyph glyph-name="Igrave" unicode="&#xcc;" horiz-adv-x="281" 
d="M105 720h71v-720h-71v720zM145 783l-125 125h85l96 -125h-56z" />
    <glyph glyph-name="Iacute" unicode="&#xcd;" horiz-adv-x="281" 
d="M105 720h71v-720h-71v720zM83 783l96 125h85l-125 -125h-56z" />
    <glyph glyph-name="Icircumflex" unicode="&#xce;" horiz-adv-x="281" 
d="M105 720h71v-720h-71v720zM-8 783l122 125h56l122 -125h-56l-94 68l-94 -68h-56z" />
    <glyph glyph-name="Idieresis" unicode="&#xcf;" horiz-adv-x="281" 
d="M105 720h71v-720h-71v720zM6 825q0 18 12 30.5t31 12.5t31 -12.5t12 -30.5t-12 -30.5t-31 -12.5t-31 12.5t-12 30.5zM192 825q0 18 12 30.5t31 12.5t31 -12.5t12 -30.5t-12 -30.5t-31 -12.5t-31 12.5t-12 30.5z" />
    <glyph glyph-name="Eth" unicode="&#xd0;" horiz-adv-x="695" 
d="M12 405h83v315h220q71 0 130 -23t101 -68t65.5 -112.5t23.5 -156.5t-23.5 -156.5t-66 -112.5t-101.5 -68t-129 -23h-220v348h-83v57zM315 64q55 0 101 18t79 54.5t51 92t18 130.5t-18 130.5t-51 92.5t-79 55t-101 18h-149v-250h197v-57h-197v-284h149z" />
    <glyph glyph-name="Ntilde" unicode="&#xd1;" horiz-adv-x="709" 
d="M96 720h81l369 -579v579h67v-720h-59l-391 612v-612h-67v720zM206 783q0 30 6.5 49.5t17.5 31.5t24.5 17t28.5 5q21 0 40.5 -8.5t37 -18l33 -18t30.5 -8.5q14 0 23 10t9 37h46q0 -30 -6.5 -49.5t-17.5 -31.5t-24.5 -17t-28.5 -5q-21 0 -40.5 8.5t-37 18l-33 18t-30.5 8.5
q-14 0 -23 -10t-9 -37h-46z" />
    <glyph glyph-name="Ograve" unicode="&#xd2;" horiz-adv-x="716" 
d="M657 362q0 -91 -22.5 -161t-63 -117t-95.5 -71.5t-120 -24.5q-64 0 -118.5 23.5t-94 70t-62 116t-22.5 160.5q0 92 23 162t63 117t95 71t120 24q64 0 118.5 -24t94 -70.5t62 -116t22.5 -159.5zM586 360q0 78 -16.5 136t-46.5 96t-72 57t-93 19t-93 -19t-72 -57t-46.5 -96
t-16.5 -136t16.5 -136t46.5 -96t72 -57t93 -19t93 19t72 57t46.5 96t16.5 136zM360 783l-125 125h85l96 -125h-56z" />
    <glyph glyph-name="Oacute" unicode="&#xd3;" horiz-adv-x="716" 
d="M657 362q0 -91 -22.5 -161t-63 -117t-95.5 -71.5t-120 -24.5q-64 0 -118.5 23.5t-94 70t-62 116t-22.5 160.5q0 92 23 162t63 117t95 71t120 24q64 0 118.5 -24t94 -70.5t62 -116t22.5 -159.5zM586 360q0 78 -16.5 136t-46.5 96t-72 57t-93 19t-93 -19t-72 -57t-46.5 -96
t-16.5 -136t16.5 -136t46.5 -96t72 -57t93 -19t93 19t72 57t46.5 96t16.5 136zM298 783l96 125h85l-125 -125h-56z" />
    <glyph glyph-name="Ocircumflex" unicode="&#xd4;" horiz-adv-x="716" 
d="M657 362q0 -91 -22.5 -161t-63 -117t-95.5 -71.5t-120 -24.5q-64 0 -118.5 23.5t-94 70t-62 116t-22.5 160.5q0 92 23 162t63 117t95 71t120 24q64 0 118.5 -24t94 -70.5t62 -116t22.5 -159.5zM586 360q0 78 -16.5 136t-46.5 96t-72 57t-93 19t-93 -19t-72 -57t-46.5 -96
t-16.5 -136t16.5 -136t46.5 -96t72 -57t93 -19t93 19t72 57t46.5 96t16.5 136zM207 783l122 125h56l122 -125h-56l-94 68l-94 -68h-56z" />
    <glyph glyph-name="Otilde" unicode="&#xd5;" horiz-adv-x="716" 
d="M657 362q0 -91 -22.5 -161t-63 -117t-95.5 -71.5t-120 -24.5q-64 0 -118.5 23.5t-94 70t-62 116t-22.5 160.5q0 92 23 162t63 117t95 71t120 24q64 0 118.5 -24t94 -70.5t62 -116t22.5 -159.5zM586 360q0 78 -16.5 136t-46.5 96t-72 57t-93 19t-93 -19t-72 -57t-46.5 -96
t-16.5 -136t16.5 -136t46.5 -96t72 -57t93 -19t93 19t72 57t46.5 96t16.5 136zM209 783q0 30 6.5 49.5t17.5 31.5t24.5 17t28.5 5q21 0 40.5 -8.5t37 -18l33 -18t30.5 -8.5q14 0 23 10t9 37h46q0 -30 -6.5 -49.5t-17.5 -31.5t-24.5 -17t-28.5 -5q-21 0 -40.5 8.5t-37 18
l-33 18t-30.5 8.5q-14 0 -23 -10t-9 -37h-46z" />
    <glyph glyph-name="Odieresis" unicode="&#xd6;" horiz-adv-x="716" 
d="M657 362q0 -91 -22.5 -161t-63 -117t-95.5 -71.5t-120 -24.5q-64 0 -118.5 23.5t-94 70t-62 116t-22.5 160.5q0 92 23 162t63 117t95 71t120 24q64 0 118.5 -24t94 -70.5t62 -116t22.5 -159.5zM586 360q0 78 -16.5 136t-46.5 96t-72 57t-93 19t-93 -19t-72 -57t-46.5 -96
t-16.5 -136t16.5 -136t46.5 -96t72 -57t93 -19t93 19t72 57t46.5 96t16.5 136zM221 825q0 18 12 30.5t31 12.5t31 -12.5t12 -30.5t-12 -30.5t-31 -12.5t-31 12.5t-12 30.5zM407 825q0 18 12 30.5t31 12.5t31 -12.5t12 -30.5t-12 -30.5t-31 -12.5t-31 12.5t-12 30.5z" />
    <glyph glyph-name="multiply" unicode="&#xd7;" horiz-adv-x="572" 
d="M114 467l171 -172l171 172l40 -42l-170 -171l170 -170l-40 -42l-171 171l-171 -171l-40 42l170 170l-170 171z" />
    <glyph glyph-name="Oslash" unicode="&#xd8;" horiz-adv-x="716" 
d="M128 359q0 -119 38 -192l356 429q-30 37 -72 55.5t-93 18.5t-93 -19t-72.5 -57.5t-47 -97t-16.5 -137.5zM588 361q0 119 -38 192l-356 -429q30 -37 72 -55.5t93 -18.5t93 19t72.5 57.5t47 97t16.5 137.5zM657 362q0 -91 -22.5 -161t-63 -117t-95.5 -71.5t-120 -24.5
q-61 0 -113 21.5t-91 63.5l-71 -85l-37 32l77 93q-29 45 -45.5 106t-16.5 139q0 92 23 162t63 117t95 71t120 24q61 0 113 -21.5t91 -63.5l71 85l37 -32l-77 -93q29 -45 45.5 -106.5t16.5 -138.5z" />
    <glyph glyph-name="Ugrave" unicode="&#xd9;" horiz-adv-x="687" 
d="M88 720h72v-465q0 -106 43 -154.5t141 -48.5t141 48.5t43 154.5v465h70v-465q0 -138 -62 -202.5t-193 -64.5t-193 64t-62 200v468zM346 783l-125 125h85l96 -125h-56z" />
    <glyph glyph-name="Uacute" unicode="&#xda;" horiz-adv-x="687" 
d="M88 720h72v-465q0 -106 43 -154.5t141 -48.5t141 48.5t43 154.5v465h70v-465q0 -138 -62 -202.5t-193 -64.5t-193 64t-62 200v468zM284 783l96 125h85l-125 -125h-56z" />
    <glyph glyph-name="Ucircumflex" unicode="&#xdb;" horiz-adv-x="687" 
d="M88 720h72v-465q0 -106 43 -154.5t141 -48.5t141 48.5t43 154.5v465h70v-465q0 -138 -62 -202.5t-193 -64.5t-193 64t-62 200v468zM193 783l122 125h56l122 -125h-56l-94 68l-94 -68h-56z" />
    <glyph glyph-name="Udieresis" unicode="&#xdc;" horiz-adv-x="687" 
d="M88 720h72v-465q0 -106 43 -154.5t141 -48.5t141 48.5t43 154.5v465h70v-465q0 -138 -62 -202.5t-193 -64.5t-193 64t-62 200v468zM207 825q0 18 12 30.5t31 12.5t31 -12.5t12 -30.5t-12 -30.5t-31 -12.5t-31 12.5t-12 30.5zM393 825q0 18 12 30.5t31 12.5t31 -12.5
t12 -30.5t-12 -30.5t-31 -12.5t-31 12.5t-12 30.5z" />
    <glyph glyph-name="Yacute" unicode="&#xdd;" horiz-adv-x="603" 
d="M266 309l-240 411h79l197 -341l198 341h77l-240 -411v-309h-71v309zM242 783l96 125h85l-125 -125h-56z" />
    <glyph glyph-name="Thorn" unicode="&#xde;" horiz-adv-x="616" 
d="M96 720h71v-100h172q112 0 174.5 -51.5t62.5 -154.5q0 -104 -64 -155.5t-179 -51.5h-166v-207h-71v720zM167 271h166q87 0 129.5 34t42.5 108t-42.5 108t-129.5 34h-166v-284z" />
    <glyph glyph-name="germandbls" unicode="&#xdf;" horiz-adv-x="586" 
d="M255 421q33 0 61.5 7t49.5 22t33 40t12 61q0 64 -35.5 93.5t-88.5 29.5q-29 0 -54 -8.5t-43.5 -27.5t-29.5 -48t-11 -69v-521h-69v521q0 54 16 93.5t44 66t66 39t81 12.5q40 0 75.5 -11t61 -33t40.5 -55.5t15 -77.5q0 -60 -28.5 -98.5t-85.5 -61.5q83 -23 127.5 -75.5
t44.5 -137.5q0 -94 -53.5 -144t-140.5 -50q-32 0 -60 6t-49 14l15 57q20 -8 43 -13.5t48 -5.5q58 0 93 33.5t35 103.5q0 90 -58.5 134.5t-154.5 44.5v59z" />
    <glyph glyph-name="agrave" unicode="&#xe0;" horiz-adv-x="521" 
d="M270 463q-47 0 -88.5 -15.5t-82.5 -39.5l-20 56q40 24 91 41t110 17q78 0 122 -38t44 -130v-238q0 -57 3 -81.5t7 -34.5h-65q-5 8 -7.5 22.5t-4.5 43.5q-35 -36 -79 -57t-95 -21q-68 0 -111.5 39t-43.5 116q0 81 57 125t182 44q16 0 37 -1t52 -6v43q0 63 -27 89t-81 26z
M378 253q-30 5 -49.5 6.5t-40.5 1.5q-93 0 -131.5 -28.5t-38.5 -84.5q0 -52 27.5 -77t72.5 -25q48 0 88 23t72 55v129zM271 574l-124 146h84l96 -146h-56z" />
    <glyph glyph-name="aacute" unicode="&#xe1;" horiz-adv-x="521" 
d="M270 463q-47 0 -88.5 -15.5t-82.5 -39.5l-20 56q40 24 91 41t110 17q78 0 122 -38t44 -130v-238q0 -57 3 -81.5t7 -34.5h-65q-5 8 -7.5 22.5t-4.5 43.5q-35 -36 -79 -57t-95 -21q-68 0 -111.5 39t-43.5 116q0 81 57 125t182 44q16 0 37 -1t52 -6v43q0 63 -27 89t-81 26z
M378 253q-30 5 -49.5 6.5t-40.5 1.5q-93 0 -131.5 -28.5t-38.5 -84.5q0 -52 27.5 -77t72.5 -25q48 0 88 23t72 55v129zM209 574l96 146h84l-124 -146h-56z" />
    <glyph glyph-name="acircumflex" unicode="&#xe2;" horiz-adv-x="521" 
d="M270 463q-47 0 -88.5 -15.5t-82.5 -39.5l-20 56q40 24 91 41t110 17q78 0 122 -38t44 -130v-238q0 -57 3 -81.5t7 -34.5h-65q-5 8 -7.5 22.5t-4.5 43.5q-35 -36 -79 -57t-95 -21q-68 0 -111.5 39t-43.5 116q0 81 57 125t182 44q16 0 37 -1t52 -6v43q0 63 -27 89t-81 26z
M378 253q-30 5 -49.5 6.5t-40.5 1.5q-93 0 -131.5 -28.5t-38.5 -84.5q0 -52 27.5 -77t72.5 -25q48 0 88 23t72 55v129zM118 574l122 146h56l122 -146h-56l-94 89l-94 -89h-56z" />
    <glyph glyph-name="atilde" unicode="&#xe3;" horiz-adv-x="521" 
d="M270 463q-47 0 -88.5 -15.5t-82.5 -39.5l-20 56q40 24 91 41t110 17q78 0 122 -38t44 -130v-238q0 -57 3 -81.5t7 -34.5h-65q-5 8 -7.5 22.5t-4.5 43.5q-35 -36 -79 -57t-95 -21q-68 0 -111.5 39t-43.5 116q0 81 57 125t182 44q16 0 37 -1t52 -6v43q0 63 -27 89t-81 26z
M378 253q-30 5 -49.5 6.5t-40.5 1.5q-93 0 -131.5 -28.5t-38.5 -84.5q0 -52 27.5 -77t72.5 -25q48 0 88 23t72 55v129zM120 580q0 30 6.5 50t17.5 32t24.5 17.5t28.5 5.5q21 0 40.5 -9t36.5 -19.5t33 -19t30 -8.5t23.5 11t9.5 39h46q0 -30 -6.5 -50t-17.5 -32t-24.5 -17.5
t-28.5 -5.5q-21 0 -40.5 8.5t-36.5 19l-33 19.5t-30 9t-23.5 -11t-9.5 -39h-46z" />
    <glyph glyph-name="adieresis" unicode="&#xe4;" horiz-adv-x="521" 
d="M270 463q-47 0 -88.5 -15.5t-82.5 -39.5l-20 56q40 24 91 41t110 17q78 0 122 -38t44 -130v-238q0 -57 3 -81.5t7 -34.5h-65q-5 8 -7.5 22.5t-4.5 43.5q-35 -36 -79 -57t-95 -21q-68 0 -111.5 39t-43.5 116q0 81 57 125t182 44q16 0 37 -1t52 -6v43q0 63 -27 89t-81 26z
M378 253q-30 5 -49.5 6.5t-40.5 1.5q-93 0 -131.5 -28.5t-38.5 -84.5q0 -52 27.5 -77t72.5 -25q48 0 88 23t72 55v129zM132 622q0 18 12 30.5t31 12.5t31 -12.5t12 -30.5t-12 -30.5t-31 -12.5t-31 12.5t-12 30.5zM318 622q0 18 12 30.5t31 12.5t31 -12.5t12 -30.5t-12 -30.5
t-31 -12.5t-31 12.5t-12 30.5z" />
    <glyph glyph-name="aring" unicode="&#xe5;" horiz-adv-x="521" 
d="M270 463q-47 0 -88.5 -15.5t-82.5 -39.5l-20 56q40 24 91 41t110 17q78 0 122 -38t44 -130v-238q0 -57 3 -81.5t7 -34.5h-65q-5 8 -7.5 22.5t-4.5 43.5q-35 -36 -79 -57t-95 -21q-68 0 -111.5 39t-43.5 116q0 81 57 125t182 44q16 0 37 -1t52 -6v43q0 63 -27 89t-81 26z
M378 253q-30 5 -49.5 6.5t-40.5 1.5q-93 0 -131.5 -28.5t-38.5 -84.5q0 -52 27.5 -77t72.5 -25q48 0 88 23t72 55v129zM220 655q0 -20 13 -33.5t35 -13.5t35 13.5t13 33.5t-13 33.5t-35 13.5t-35 -13.5t-13 -33.5zM355 655q0 -36 -24.5 -61t-62.5 -25t-62.5 25t-24.5 61
t24.5 61t62.5 25t62.5 -25t24.5 -61z" />
    <glyph glyph-name="ae" unicode="&#xe6;" horiz-adv-x="862" 
d="M445 241q1 -51 14 -88t35 -61t52.5 -35.5t67.5 -11.5q42 0 80 13.5t79 38.5l20 -55q-41 -26 -90 -40t-98 -14q-65 0 -115 26t-79 77q-38 -42 -90.5 -72.5t-114.5 -30.5q-33 0 -61.5 10t-49.5 29.5t-33 48.5t-12 67q0 80 57.5 124.5t181.5 44.5q16 0 37 -1t52 -6v43
q0 63 -27 89t-81 26q-47 0 -88.5 -15.5t-82.5 -39.5l-20 56q40 24 91 41t110 17q57 0 95.5 -19t56.5 -64q65 83 174 83q91 0 146 -61.5t55 -181.5v-20q0 -7 -1 -18h-361zM218 46q50 0 93 26.5t79 64.5q-15 48 -15 111v6q-28 4 -48 5.5t-41 1.5q-92 0 -130 -28.5t-38 -83.5
q0 -52 27.5 -77.5t72.5 -25.5zM603 466q-66 0 -108 -44.5t-50 -127.5h295q0 46 -10.5 78.5t-28.5 53.5t-43 30.5t-55 9.5z" />
    <glyph glyph-name="ccedilla" unicode="&#xe7;" horiz-adv-x="468" 
d="M365 -99q0 -42 -30.5 -63.5t-80.5 -21.5q-32 0 -52.5 7.5t-35.5 15.5l12 45q16 -8 34 -15t41 -7q53 0 53 40q0 21 -17.5 37.5t-55.5 25.5l8 25q-42 5 -77.5 23t-60.5 50.5t-39 78.5t-14 107q0 68 17.5 119t48.5 85.5t73.5 51.5t92.5 17q45 0 79 -12.5t63 -33.5l-20 -61
q-29 22 -57.5 35t-65.5 13q-35 0 -64.5 -12.5t-51.5 -38.5t-34 -65t-12 -92q0 -105 46 -157t118 -52q38 0 68 13t55 34l20 -56q-26 -22 -59.5 -33.5t-68.5 -14.5q30 -12 48.5 -34t18.5 -54z" />
    <glyph glyph-name="egrave" unicode="&#xe8;" horiz-adv-x="537" 
d="M120 241q1 -51 14 -88t35 -61t52.5 -35.5t67.5 -11.5q42 0 80 13.5t79 38.5l20 -55q-41 -26 -90 -40t-98 -14q-51 0 -93.5 16.5t-73 49.5t-47 81.5t-16.5 112.5q0 66 17.5 117t48.5 86t73.5 53t91.5 18q91 0 146 -61.5t55 -181.5v-20q0 -7 -1 -18h-361zM278 466
q-66 0 -108 -44.5t-50 -127.5h295q0 46 -10.5 78.5t-28.5 53.5t-43 30.5t-55 9.5zM277 574l-124 146h84l96 -146h-56z" />
    <glyph glyph-name="eacute" unicode="&#xe9;" horiz-adv-x="537" 
d="M120 241q1 -51 14 -88t35 -61t52.5 -35.5t67.5 -11.5q42 0 80 13.5t79 38.5l20 -55q-41 -26 -90 -40t-98 -14q-51 0 -93.5 16.5t-73 49.5t-47 81.5t-16.5 112.5q0 66 17.5 117t48.5 86t73.5 53t91.5 18q91 0 146 -61.5t55 -181.5v-20q0 -7 -1 -18h-361zM278 466
q-66 0 -108 -44.5t-50 -127.5h295q0 46 -10.5 78.5t-28.5 53.5t-43 30.5t-55 9.5zM213 574l96 146h84l-124 -146h-56z" />
    <glyph glyph-name="ecircumflex" unicode="&#xea;" horiz-adv-x="537" 
d="M120 241q1 -51 14 -88t35 -61t52.5 -35.5t67.5 -11.5q42 0 80 13.5t79 38.5l20 -55q-41 -26 -90 -40t-98 -14q-51 0 -93.5 16.5t-73 49.5t-47 81.5t-16.5 112.5q0 66 17.5 117t48.5 86t73.5 53t91.5 18q91 0 146 -61.5t55 -181.5v-20q0 -7 -1 -18h-361zM278 466
q-66 0 -108 -44.5t-50 -127.5h295q0 46 -10.5 78.5t-28.5 53.5t-43 30.5t-55 9.5zM123 574l122 146h56l122 -146h-56l-94 89l-94 -89h-56z" />
    <glyph glyph-name="edieresis" unicode="&#xeb;" horiz-adv-x="537" 
d="M120 241q1 -51 14 -88t35 -61t52.5 -35.5t67.5 -11.5q42 0 80 13.5t79 38.5l20 -55q-41 -26 -90 -40t-98 -14q-51 0 -93.5 16.5t-73 49.5t-47 81.5t-16.5 112.5q0 66 17.5 117t48.5 86t73.5 53t91.5 18q91 0 146 -61.5t55 -181.5v-20q0 -7 -1 -18h-361zM278 466
q-66 0 -108 -44.5t-50 -127.5h295q0 46 -10.5 78.5t-28.5 53.5t-43 30.5t-55 9.5zM137 622q0 18 12 30.5t31 12.5t31 -12.5t12 -30.5t-12 -30.5t-31 -12.5t-31 12.5t-12 30.5zM323 622q0 18 12 30.5t31 12.5t31 -12.5t12 -30.5t-12 -30.5t-31 -12.5t-31 12.5t-12 30.5z" />
    <glyph glyph-name="igrave" unicode="&#xec;" horiz-adv-x="241" 
d="M125 574l-124 146h84l96 -146h-56zM86 510h69v-510h-69v510z" />
    <glyph glyph-name="iacute" unicode="&#xed;" horiz-adv-x="241" 
d="M63 574l96 146h84l-124 -146h-56zM86 510h69v-510h-69v510z" />
    <glyph glyph-name="icircumflex" unicode="&#xee;" horiz-adv-x="241" 
d="M86 510h69v-510h-69v510zM-28 574l122 146h56l122 -146h-56l-94 89l-94 -89h-56z" />
    <glyph glyph-name="idieresis" unicode="&#xef;" horiz-adv-x="241" 
d="M-14 622q0 18 12 30.5t31 12.5t31 -12.5t12 -30.5t-12 -30.5t-31 -12.5t-31 12.5t-12 30.5zM172 622q0 18 12 30.5t31 12.5t31 -12.5t12 -30.5t-12 -30.5t-31 -12.5t-31 12.5t-12 30.5zM86 510h69v-510h-69v510z" />
    <glyph glyph-name="eth" unicode="&#xf0;" horiz-adv-x="554" 
d="M230 583l71 39q-17 19 -35 35l-35 31l41 44q21 -17 42.5 -36.5t41.5 -42.5l89 50l24 -43l-81 -45q25 -31 46 -70.5t36.5 -85t24.5 -95t9 -99.5q0 -63 -14.5 -114.5t-43.5 -87.5t-71.5 -55.5t-97.5 -19.5q-48 0 -89.5 15t-72 46t-48 78t-17.5 111t17.5 111.5t47.5 79
t69.5 46.5t82.5 15q45 0 82.5 -16t66.5 -50q-16 49 -37 88.5t-46 71.5l-80 -44zM277 46q33 0 62 11t50 34t33.5 60t12.5 88t-12.5 87.5t-33.5 60t-50 34.5t-62 11t-62 -11t-50 -34.5t-33.5 -60t-12.5 -87.5t12.5 -88t33.5 -60t50 -34t62 -11z" />
    <glyph glyph-name="ntilde" unicode="&#xf1;" horiz-adv-x="567" 
d="M137 580q0 30 6.5 50t17.5 32t24.5 17.5t28.5 5.5q21 0 40.5 -9t36.5 -19.5t33 -19t30 -8.5t23.5 11t9.5 39h46q0 -30 -6.5 -50t-17.5 -32t-24.5 -17.5t-28.5 -5.5q-21 0 -40.5 8.5t-36.5 19l-33 19.5t-30 9t-23.5 -11t-9.5 -39h-46zM80 510h69v-79q37 37 89 64t115 27
q28 0 53.5 -7.5t44.5 -24t30 -43.5t11 -67v-380h-69v366q0 53 -24.5 73.5t-64.5 20.5q-53 0 -99.5 -26.5t-85.5 -63.5v-370h-69v510z" />
    <glyph glyph-name="ograve" unicode="&#xf2;" horiz-adv-x="554" 
d="M119 255q0 -56 12.5 -95.5t33.5 -64.5t50 -37t62 -12t62 12t50 37t33.5 64.5t12.5 95.5q0 55 -12.5 95t-33.5 65t-50 37t-62 12t-62 -12t-50 -37t-33.5 -65t-12.5 -95zM504 257q0 -69 -18 -119.5t-49.5 -83.5t-73 -49.5t-88.5 -16.5q-46 0 -87 15.5t-71.5 48t-48.5 82.5
t-18 119t18.5 120t49.5 84t72.5 49t88.5 16q46 0 87 -16t71.5 -48.5t48.5 -82.5t18 -118zM279 574l-124 146h84l96 -146h-56z" />
    <glyph glyph-name="oacute" unicode="&#xf3;" horiz-adv-x="554" 
d="M119 255q0 -56 12.5 -95.5t33.5 -64.5t50 -37t62 -12t62 12t50 37t33.5 64.5t12.5 95.5q0 55 -12.5 95t-33.5 65t-50 37t-62 12t-62 -12t-50 -37t-33.5 -65t-12.5 -95zM504 257q0 -69 -18 -119.5t-49.5 -83.5t-73 -49.5t-88.5 -16.5q-46 0 -87 15.5t-71.5 48t-48.5 82.5
t-18 119t18.5 120t49.5 84t72.5 49t88.5 16q46 0 87 -16t71.5 -48.5t48.5 -82.5t18 -118zM217 574l96 146h84l-124 -146h-56z" />
    <glyph glyph-name="ocircumflex" unicode="&#xf4;" horiz-adv-x="554" 
d="M119 255q0 -56 12.5 -95.5t33.5 -64.5t50 -37t62 -12t62 12t50 37t33.5 64.5t12.5 95.5q0 55 -12.5 95t-33.5 65t-50 37t-62 12t-62 -12t-50 -37t-33.5 -65t-12.5 -95zM504 257q0 -69 -18 -119.5t-49.5 -83.5t-73 -49.5t-88.5 -16.5q-46 0 -87 15.5t-71.5 48t-48.5 82.5
t-18 119t18.5 120t49.5 84t72.5 49t88.5 16q46 0 87 -16t71.5 -48.5t48.5 -82.5t18 -118zM126 574l122 146h56l122 -146h-56l-94 89l-94 -89h-56z" />
    <glyph glyph-name="otilde" unicode="&#xf5;" horiz-adv-x="554" 
d="M119 255q0 -56 12.5 -95.5t33.5 -64.5t50 -37t62 -12t62 12t50 37t33.5 64.5t12.5 95.5q0 55 -12.5 95t-33.5 65t-50 37t-62 12t-62 -12t-50 -37t-33.5 -65t-12.5 -95zM504 257q0 -69 -18 -119.5t-49.5 -83.5t-73 -49.5t-88.5 -16.5q-46 0 -87 15.5t-71.5 48t-48.5 82.5
t-18 119t18.5 120t49.5 84t72.5 49t88.5 16q46 0 87 -16t71.5 -48.5t48.5 -82.5t18 -118zM128 580q0 30 6.5 50t17.5 32t24.5 17.5t28.5 5.5q21 0 40.5 -9t36.5 -19.5t33 -19t30 -8.5t23.5 11t9.5 39h46q0 -30 -6.5 -50t-17.5 -32t-24.5 -17.5t-28.5 -5.5q-21 0 -40.5 8.5
t-36.5 19l-33 19.5t-30 9t-23.5 -11t-9.5 -39h-46z" />
    <glyph glyph-name="odieresis" unicode="&#xf6;" horiz-adv-x="554" 
d="M119 255q0 -56 12.5 -95.5t33.5 -64.5t50 -37t62 -12t62 12t50 37t33.5 64.5t12.5 95.5q0 55 -12.5 95t-33.5 65t-50 37t-62 12t-62 -12t-50 -37t-33.5 -65t-12.5 -95zM504 257q0 -69 -18 -119.5t-49.5 -83.5t-73 -49.5t-88.5 -16.5q-46 0 -87 15.5t-71.5 48t-48.5 82.5
t-18 119t18.5 120t49.5 84t72.5 49t88.5 16q46 0 87 -16t71.5 -48.5t48.5 -82.5t18 -118zM140 622q0 18 12 30.5t31 12.5t31 -12.5t12 -30.5t-12 -30.5t-31 -12.5t-31 12.5t-12 30.5zM326 622q0 18 12 30.5t31 12.5t31 -12.5t12 -30.5t-12 -30.5t-31 -12.5t-31 12.5
t-12 30.5z" />
    <glyph glyph-name="divide" unicode="&#xf7;" horiz-adv-x="572" 
d="M331 456q0 -20 -12.5 -32.5t-33.5 -12.5q-20 0 -32.5 12.5t-12.5 32.5t12.5 32t32.5 12q21 0 33.5 -12t12.5 -32zM530 225h-488v60h488v-60zM331 54q0 -20 -12.5 -32t-33.5 -12q-20 0 -32.5 12t-12.5 32t12.5 32.5t32.5 12.5q21 0 33.5 -12.5t12.5 -32.5z" />
    <glyph glyph-name="oslash" unicode="&#xf8;" horiz-adv-x="554" 
d="M117 254q0 -75 23 -124l249 287q-22 26 -50.5 37.5t-61.5 11.5t-62.5 -12t-51 -37.5t-34 -66t-12.5 -96.5zM437 256q0 75 -23 124l-249 -287q22 -26 50.5 -37.5t61.5 -11.5t62.5 12t51 37.5t34 66t12.5 96.5zM504 255q0 -68 -18 -118t-49.5 -83t-73 -49.5t-88.5 -16.5
q-44 0 -83 14t-69 43l-60 -69l-32 28l64 74q-21 32 -33 75t-12 100q0 69 18.5 120t49.5 84t72.5 49t88.5 16q44 0 82.5 -14.5t68.5 -43.5l61 70l32 -28l-65 -75q21 -32 33.5 -75.5t12.5 -100.5z" />
    <glyph glyph-name="ugrave" unicode="&#xf9;" horiz-adv-x="567" 
d="M283 574l-124 146h84l96 -146h-56zM486 0h-69v79q-37 -37 -89 -64t-115 -27q-29 0 -54 7.5t-44 24t-30 43.5t-11 67v380h69v-368q0 -53 24.5 -73.5t64.5 -20.5q53 0 99.5 26.5t85.5 63.5v372h69v-510z" />
    <glyph glyph-name="uacute" unicode="&#xfa;" horiz-adv-x="567" 
d="M221 574l96 146h84l-124 -146h-56zM486 0h-69v79q-37 -37 -89 -64t-115 -27q-29 0 -54 7.5t-44 24t-30 43.5t-11 67v380h69v-368q0 -53 24.5 -73.5t64.5 -20.5q53 0 99.5 26.5t85.5 63.5v372h69v-510z" />
    <glyph glyph-name="ucircumflex" unicode="&#xfb;" horiz-adv-x="567" 
d="M130 574l122 146h56l122 -146h-56l-94 89l-94 -89h-56zM486 0h-69v79q-37 -37 -89 -64t-115 -27q-29 0 -54 7.5t-44 24t-30 43.5t-11 67v380h69v-368q0 -53 24.5 -73.5t64.5 -20.5q53 0 99.5 26.5t85.5 63.5v372h69v-510z" />
    <glyph glyph-name="udieresis" unicode="&#xfc;" horiz-adv-x="567" 
d="M144 622q0 18 12 30.5t31 12.5t31 -12.5t12 -30.5t-12 -30.5t-31 -12.5t-31 12.5t-12 30.5zM330 622q0 18 12 30.5t31 12.5t31 -12.5t12 -30.5t-12 -30.5t-31 -12.5t-31 12.5t-12 30.5zM486 0h-69v79q-37 -37 -89 -64t-115 -27q-29 0 -54 7.5t-44 24t-30 43.5t-11 67v380
h69v-368q0 -53 24.5 -73.5t64.5 -20.5q53 0 99.5 26.5t85.5 63.5v372h69v-510z" />
    <glyph glyph-name="yacute" unicode="&#xfd;" horiz-adv-x="505" 
d="M38 -150l21.5 -4t24.5 -2q22 0 40 7t35 25.5t33.5 51t35.5 84.5h-24l-178 498h73l153 -441l156 441h71l-183 -498q-26 -71 -48.5 -115t-46.5 -69.5t-52 -34.5t-64 -9q-11 0 -24 1t-23 3v62zM193 574l96 146h84l-124 -146h-56z" />
    <glyph glyph-name="thorn" unicode="&#xfe;" horiz-adv-x="570" 
d="M149 720v-284q35 40 78 63t94 23q43 0 79.5 -17t63 -50t41.5 -82t15 -114q0 -67 -16 -117.5t-44 -84.5t-66 -51.5t-82 -17.5q-48 0 -88 20t-75 59v-277h-69v930h69zM307 461q-45 0 -84 -23t-74 -63v-248q33 -38 71 -59t82 -21q67 0 108 50.5t41 156.5q0 105 -40 156
t-104 51z" />
    <glyph glyph-name="ydieresis" unicode="&#xff;" horiz-adv-x="505" 
d="M38 -150l21.5 -4t24.5 -2q22 0 40 7t35 25.5t33.5 51t35.5 84.5h-24l-178 498h73l153 -441l156 441h71l-183 -498q-26 -71 -48.5 -115t-46.5 -69.5t-52 -34.5t-64 -9q-11 0 -24 1t-23 3v62zM116 622q0 18 12 30.5t31 12.5t31 -12.5t12 -30.5t-12 -30.5t-31 -12.5
t-31 12.5t-12 30.5zM302 622q0 18 12 30.5t31 12.5t31 -12.5t12 -30.5t-12 -30.5t-31 -12.5t-31 12.5t-12 30.5z" />
    <glyph glyph-name="Amacron" unicode="&#x100;" horiz-adv-x="673" 
d="M637 0h-75l-72 206h-309l-72 -206h-73l261 720h83zM203 267h266l-132 379zM193 845h280v-56h-280v56z" />
    <glyph glyph-name="amacron" unicode="&#x101;" horiz-adv-x="521" 
d="M270 463q-47 0 -88.5 -15.5t-82.5 -39.5l-20 56q40 24 91 41t110 17q78 0 122 -38t44 -130v-238q0 -57 3 -81.5t7 -34.5h-65q-5 8 -7.5 22.5t-4.5 43.5q-35 -36 -79 -57t-95 -21q-68 0 -111.5 39t-43.5 116q0 81 57 125t182 44q16 0 37 -1t52 -6v43q0 63 -27 89t-81 26z
M378 253q-30 5 -49.5 6.5t-40.5 1.5q-93 0 -131.5 -28.5t-38.5 -84.5q0 -52 27.5 -77t72.5 -25q48 0 88 23t72 55v129zM128 642h280v-57h-280v57z" />
    <glyph glyph-name="Abreve" unicode="&#x102;" horiz-adv-x="673" 
d="M637 0h-75l-72 206h-309l-72 -206h-73l261 720h83zM203 267h266l-132 379zM336 783q-75 0 -109 33t-34 92h46q6 -35 25.5 -52t71.5 -17t71.5 17t25.5 52h46q0 -59 -34 -92t-109 -33z" />
    <glyph glyph-name="abreve" unicode="&#x103;" horiz-adv-x="521" 
d="M270 463q-47 0 -88.5 -15.5t-82.5 -39.5l-20 56q40 24 91 41t110 17q78 0 122 -38t44 -130v-238q0 -57 3 -81.5t7 -34.5h-65q-5 8 -7.5 22.5t-4.5 43.5q-35 -36 -79 -57t-95 -21q-68 0 -111.5 39t-43.5 116q0 81 57 125t182 44q16 0 37 -1t52 -6v43q0 63 -27 89t-81 26z
M378 253q-30 5 -49.5 6.5t-40.5 1.5q-93 0 -131.5 -28.5t-38.5 -84.5q0 -52 27.5 -77t72.5 -25q48 0 88 23t72 55v129zM268 580q-75 0 -109 37.5t-34 102.5h46q6 -42 25.5 -62.5t71.5 -20.5t71.5 20.5t25.5 62.5h46q0 -65 -34 -102.5t-109 -37.5z" />
    <glyph glyph-name="Aogonek" unicode="&#x104;" horiz-adv-x="673" 
d="M490 206h-309l-72 -206h-73l261 720h83l257 -720h-15q-48 -26 -68.5 -50t-20.5 -50q0 -21 12 -29.5t32 -8.5q6 0 14.5 1t18.5 4l12 -45q-11 -3 -25.5 -4.5t-26.5 -1.5q-45 0 -70.5 19.5t-25.5 55.5q0 29 20 58.5t68 50.5zM203 267h266l-132 379z" />
    <glyph glyph-name="aogonek" unicode="&#x105;" horiz-adv-x="521" 
d="M379 66q-35 -36 -79 -57t-95 -21q-68 0 -111.5 39t-43.5 116q0 81 57 125t182 44q16 0 37 -1t52 -6v43q0 63 -27 89t-81 26q-47 0 -88.5 -15.5t-82.5 -39.5l-20 56q40 24 91 41t110 17q78 0 122 -38t44 -130v-238q0 -57 3 -81.5t7 -34.5h-5q-48 -26 -68.5 -50t-20.5 -50
q0 -21 12 -29.5t32 -8.5q6 0 14.5 1t18.5 4l12 -45q-11 -3 -25.5 -4.5t-26.5 -1.5q-45 0 -70.5 19.5t-25.5 55.5q0 29 20 58.5t68 50.5q-5 8 -7.5 22.5t-4.5 43.5zM378 253q-30 5 -49.5 6.5t-40.5 1.5q-93 0 -131.5 -28.5t-38.5 -84.5q0 -52 27.5 -77t72.5 -25q48 0 88 23
t72 55v129z" />
    <glyph glyph-name="Cacute" unicode="&#x106;" horiz-adv-x="607" 
d="M558 57q-39 -30 -90 -49.5t-113 -19.5q-64 0 -118.5 23t-94 69t-61.5 114.5t-22 159.5q0 92 23 162.5t64 118.5t97.5 72.5t123.5 24.5q57 0 103.5 -17t84.5 -46l-23 -67q-38 29 -78 47.5t-92 18.5q-51 0 -93.5 -19t-73.5 -58t-48 -97t-17 -136t17 -135.5t48 -95.5t73 -57
t93 -19t91.5 17.5t81.5 49.5zM289 783l96 125h85l-125 -125h-56z" />
    <glyph glyph-name="cacute" unicode="&#x107;" horiz-adv-x="468" 
d="M404 415q-29 22 -57.5 35t-65.5 13q-35 0 -64.5 -12.5t-51.5 -38.5t-34 -65t-12 -92q0 -105 46 -157t118 -52q38 0 68 13t55 34l20 -56q-31 -25 -70.5 -37t-81.5 -12q-49 0 -90 16t-71 48t-46.5 81.5t-16.5 115.5q0 68 17.5 119t48.5 85.5t73.5 51.5t92.5 17
q45 0 79 -12.5t63 -33.5zM209 574l96 146h84l-124 -146h-56z" />
    <glyph glyph-name="Ccircumflex" unicode="&#x108;" horiz-adv-x="607" 
d="M558 57q-39 -30 -90 -49.5t-113 -19.5q-64 0 -118.5 23t-94 69t-61.5 114.5t-22 159.5q0 92 23 162.5t64 118.5t97.5 72.5t123.5 24.5q57 0 103.5 -17t84.5 -46l-23 -67q-38 29 -78 47.5t-92 18.5q-51 0 -93.5 -19t-73.5 -58t-48 -97t-17 -136t17 -135.5t48 -95.5t73 -57
t93 -19t91.5 17.5t81.5 49.5zM198 783l122 125h56l122 -125h-56l-94 68l-94 -68h-56z" />
    <glyph glyph-name="ccircumflex" unicode="&#x109;" horiz-adv-x="468" 
d="M404 415q-29 22 -57.5 35t-65.5 13q-35 0 -64.5 -12.5t-51.5 -38.5t-34 -65t-12 -92q0 -105 46 -157t118 -52q38 0 68 13t55 34l20 -56q-31 -25 -70.5 -37t-81.5 -12q-49 0 -90 16t-71 48t-46.5 81.5t-16.5 115.5q0 68 17.5 119t48.5 85.5t73.5 51.5t92.5 17
q45 0 79 -12.5t63 -33.5zM118 574l122 146h56l122 -146h-56l-94 89l-94 -89h-56z" />
    <glyph glyph-name="Cdotaccent" unicode="&#x10a;" horiz-adv-x="607" 
d="M558 57q-39 -30 -90 -49.5t-113 -19.5q-64 0 -118.5 23t-94 69t-61.5 114.5t-22 159.5q0 92 23 162.5t64 118.5t97.5 72.5t123.5 24.5q57 0 103.5 -17t84.5 -46l-23 -67q-38 29 -78 47.5t-92 18.5q-51 0 -93.5 -19t-73.5 -58t-48 -97t-17 -136t17 -135.5t48 -95.5t73 -57
t93 -19t91.5 17.5t81.5 49.5zM394 827q0 -20 -13 -33t-33 -13t-33 13t-13 33t13 33t33 13t33 -13t13 -33z" />
    <glyph glyph-name="cdotaccent" unicode="&#x10b;" horiz-adv-x="468" 
d="M404 415q-29 22 -57.5 35t-65.5 13q-35 0 -64.5 -12.5t-51.5 -38.5t-34 -65t-12 -92q0 -105 46 -157t118 -52q38 0 68 13t55 34l20 -56q-31 -25 -70.5 -37t-81.5 -12q-49 0 -90 16t-71 48t-46.5 81.5t-16.5 115.5q0 68 17.5 119t48.5 85.5t73.5 51.5t92.5 17
q45 0 79 -12.5t63 -33.5zM314 619q0 -20 -13 -33t-33 -13t-33 13t-13 33t13 33t33 13t33 -13t13 -33z" />
    <glyph glyph-name="Ccaron" unicode="&#x10c;" horiz-adv-x="607" 
d="M558 57q-39 -30 -90 -49.5t-113 -19.5q-64 0 -118.5 23t-94 69t-61.5 114.5t-22 159.5q0 92 23 162.5t64 118.5t97.5 72.5t123.5 24.5q57 0 103.5 -17t84.5 -46l-23 -67q-38 29 -78 47.5t-92 18.5q-51 0 -93.5 -19t-73.5 -58t-48 -97t-17 -136t17 -135.5t48 -95.5t73 -57
t93 -19t91.5 17.5t81.5 49.5zM498 908l-122 -125h-56l-122 125h56l94 -68l94 68h56z" />
    <glyph glyph-name="ccaron" unicode="&#x10d;" horiz-adv-x="468" 
d="M404 415q-29 22 -57.5 35t-65.5 13q-35 0 -64.5 -12.5t-51.5 -38.5t-34 -65t-12 -92q0 -105 46 -157t118 -52q38 0 68 13t55 34l20 -56q-31 -25 -70.5 -37t-81.5 -12q-49 0 -90 16t-71 48t-46.5 81.5t-16.5 115.5q0 68 17.5 119t48.5 85.5t73.5 51.5t92.5 17
q45 0 79 -12.5t63 -33.5zM418 720l-122 -146h-56l-122 146h56l94 -89l94 89h56z" />
    <glyph glyph-name="Dcaron" unicode="&#x10e;" horiz-adv-x="695" 
d="M315 720q71 0 130 -23t101 -68t65.5 -112.5t23.5 -156.5t-23.5 -156.5t-66 -112.5t-101.5 -68t-129 -23h-220v720h220zM315 64q55 0 101 18t79 54.5t51 92t18 130.5t-18 130.5t-51 92.5t-79 55t-101 18h-149v-591h149zM485 908l-122 -125h-56l-122 125h56l94 -68l94 68
h56z" />
    <glyph glyph-name="dcaron" unicode="&#x10f;" horiz-adv-x="576" 
d="M527 571l29 149h67l-51 -149h-45zM434 0q-5 8 -8 24t-5 50q-34 -40 -77.5 -63t-95.5 -23q-42 0 -78.5 16.5t-63 49t-41.5 81t-15 113.5q0 67 16 118.5t44.5 86t67 52t82.5 17.5q92 0 161 -79v277h69v-604q0 -57 3 -81.5t7 -34.5h-66zM263 47q45 0 84 23t74 63v248
q-33 38 -71 59t-82 21q-67 0 -108 -50.5t-41 -156.5q0 -105 40 -156t104 -51z" />
    <glyph glyph-name="Dcroat" unicode="&#x110;" horiz-adv-x="695" 
d="M12 405h83v315h220q71 0 130 -23t101 -68t65.5 -112.5t23.5 -156.5t-23.5 -156.5t-66 -112.5t-101.5 -68t-129 -23h-220v348h-83v57zM315 64q55 0 101 18t79 54.5t51 92t18 130.5t-18 130.5t-51 92.5t-79 55t-101 18h-149v-250h197v-57h-197v-284h149z" />
    <glyph glyph-name="dcroat" unicode="&#x111;" horiz-adv-x="570" 
d="M270 642h151v78h69v-78h80v-57h-80v-469q0 -57 3 -81.5t7 -34.5h-66q-5 8 -8 24t-5 50q-34 -40 -77.5 -63t-95.5 -23q-42 0 -78.5 16.5t-63 49t-41.5 81.5t-15 114q0 67 16 118t44.5 85.5t66.5 52t83 17.5q92 0 161 -79v142h-151v57zM263 47q45 0 84 23t74 63v248
q-33 38 -71 59t-82 21q-67 0 -108 -50.5t-41 -156.5q0 -105 40 -156t104 -51z" />
    <glyph glyph-name="Emacron" unicode="&#x112;" horiz-adv-x="588" 
d="M96 720h438v-65h-367v-249h323v-63h-323v-279h369v-64h-440v720zM175 845h280v-56h-280v56z" />
    <glyph glyph-name="emacron" unicode="&#x113;" horiz-adv-x="537" 
d="M120 241q1 -51 14 -88t35 -61t52.5 -35.5t67.5 -11.5q42 0 80 13.5t79 38.5l20 -55q-41 -26 -90 -40t-98 -14q-51 0 -93.5 16.5t-73 49.5t-47 81.5t-16.5 112.5q0 66 17.5 117t48.5 86t73.5 53t91.5 18q91 0 146 -61.5t55 -181.5v-20q0 -7 -1 -18h-361zM278 466
q-66 0 -108 -44.5t-50 -127.5h295q0 46 -10.5 78.5t-28.5 53.5t-43 30.5t-55 9.5zM133 642h280v-57h-280v57z" />
    <glyph glyph-name="Ebreve" unicode="&#x114;" horiz-adv-x="588" 
d="M96 720h438v-65h-367v-249h323v-63h-323v-279h369v-64h-440v720zM315 783q-75 0 -109 33t-34 92h46q6 -35 25.5 -52t71.5 -17t71.5 17t25.5 52h46q0 -59 -34 -92t-109 -33z" />
    <glyph glyph-name="ebreve" unicode="&#x115;" horiz-adv-x="537" 
d="M120 241q1 -51 14 -88t35 -61t52.5 -35.5t67.5 -11.5q42 0 80 13.5t79 38.5l20 -55q-41 -26 -90 -40t-98 -14q-51 0 -93.5 16.5t-73 49.5t-47 81.5t-16.5 112.5q0 66 17.5 117t48.5 86t73.5 53t91.5 18q91 0 146 -61.5t55 -181.5v-20q0 -7 -1 -18h-361zM278 466
q-66 0 -108 -44.5t-50 -127.5h295q0 46 -10.5 78.5t-28.5 53.5t-43 30.5t-55 9.5zM273 580q-75 0 -109 37.5t-34 102.5h46q6 -42 25.5 -62.5t71.5 -20.5t71.5 20.5t25.5 62.5h46q0 -65 -34 -102.5t-109 -37.5z" />
    <glyph glyph-name="Edotaccent" unicode="&#x116;" horiz-adv-x="588" 
d="M96 720h438v-65h-367v-249h323v-63h-323v-279h369v-64h-440v720zM361 827q0 -20 -13 -33t-33 -13t-33 13t-13 33t13 33t33 13t33 -13t13 -33z" />
    <glyph glyph-name="edotaccent" unicode="&#x117;" horiz-adv-x="537" 
d="M120 241q1 -51 14 -88t35 -61t52.5 -35.5t67.5 -11.5q42 0 80 13.5t79 38.5l20 -55q-41 -26 -90 -40t-98 -14q-51 0 -93.5 16.5t-73 49.5t-47 81.5t-16.5 112.5q0 66 17.5 117t48.5 86t73.5 53t91.5 18q91 0 146 -61.5t55 -181.5v-20q0 -7 -1 -18h-361zM278 466
q-66 0 -108 -44.5t-50 -127.5h295q0 46 -10.5 78.5t-28.5 53.5t-43 30.5t-55 9.5zM319 619q0 -20 -13 -33t-33 -13t-33 13t-13 33t13 33t33 13t33 -13t13 -33z" />
    <glyph glyph-name="Eogonek" unicode="&#x118;" horiz-adv-x="588" 
d="M96 720h438v-65h-367v-249h323v-63h-323v-279h369v-63q-49 -26 -70 -50.5t-21 -50.5q0 -21 12 -29.5t32 -8.5q7 0 15 1t18 4l12 -45q-11 -3 -25.5 -4.5t-27.5 -1.5q-45 0 -70 19t-25 55q0 30 20 59.5t70 50.5h-380v720z" />
    <glyph glyph-name="eogonek" unicode="&#x119;" horiz-adv-x="537" 
d="M120 241q1 -51 14 -88t35 -61t52.5 -35.5t67.5 -11.5q42 0 80 13.5t79 38.5l20 -55q-37 -24 -62.5 -42.5t-41 -35t-22.5 -32t-7 -31.5q0 -23 12 -31t32 -8q13 0 27.5 3t31.5 11l12 -45q-17 -8 -37.5 -11.5t-40.5 -3.5q-46 0 -71 19.5t-25 57.5q0 33 17 55t44 47
q-14 -3 -28.5 -5t-32.5 -2q-50 0 -91.5 16.5t-71.5 49.5t-46.5 81.5t-16.5 112.5q0 66 17.5 117t48.5 86t73.5 53t91.5 18q91 0 146 -61.5t55 -181.5v-20q0 -7 -1 -18h-361zM278 466q-66 0 -108 -44.5t-50 -127.5h295q0 46 -10.5 78.5t-28.5 53.5t-43 30.5t-55 9.5z" />
    <glyph glyph-name="Ecaron" unicode="&#x11a;" horiz-adv-x="588" 
d="M96 720h438v-65h-367v-249h323v-63h-323v-279h369v-64h-440v720zM465 908l-122 -125h-56l-122 125h56l94 -68l94 68h56z" />
    <glyph glyph-name="ecaron" unicode="&#x11b;" horiz-adv-x="537" 
d="M120 241q1 -51 14 -88t35 -61t52.5 -35.5t67.5 -11.5q42 0 80 13.5t79 38.5l20 -55q-41 -26 -90 -40t-98 -14q-51 0 -93.5 16.5t-73 49.5t-47 81.5t-16.5 112.5q0 66 17.5 117t48.5 86t73.5 53t91.5 18q91 0 146 -61.5t55 -181.5v-20q0 -7 -1 -18h-361zM278 466
q-66 0 -108 -44.5t-50 -127.5h295q0 46 -10.5 78.5t-28.5 53.5t-43 30.5t-55 9.5zM423 720l-122 -146h-56l-122 146h56l94 -89l94 89h56z" />
    <glyph glyph-name="Gcircumflex" unicode="&#x11c;" horiz-adv-x="675" 
d="M379 49q42 0 78.5 9.5t71.5 27.5v227h-164v61h232v-319q-48 -31 -104 -49t-122 -18q-71 0 -128.5 22.5t-98 68t-63 114t-22.5 159.5q0 94 23.5 165t65.5 119t101 72t130 24q68 0 121 -20t97 -55l-24 -66q-46 37 -93 57t-105 20q-54 0 -99.5 -19t-77.5 -57.5t-50 -97
t-18 -138.5q0 -79 18 -137t50.5 -95.5t78.5 -56t102 -18.5zM218 783l122 125h56l122 -125h-56l-94 68l-94 -68h-56z" />
    <glyph glyph-name="gcircumflex" unicode="&#x11d;" horiz-adv-x="577" 
d="M489 344q0 -44 -17 -78.5t-47 -58t-70 -36t-86 -12.5q-25 0 -49 4t-46 12q-14 -11 -23 -24.5t-9 -30.5q0 -16 8 -25t21 -13t30 -5t34 -1h118q81 0 128 -31.5t47 -93.5q0 -42 -22 -74.5t-60.5 -54t-90 -33t-110.5 -11.5q-50 0 -90.5 8t-69.5 24t-45 40t-16 56q0 41 27 72
t82 51q-26 11 -41 29.5t-15 45.5q0 30 17 52t40 39q-34 22 -54.5 57t-20.5 85q0 44 17 78.5t47 58t69.5 36t84.5 12.5q46 0 87 -13t70 -39q16 16 40.5 28.5t56.5 12.5h12q5 0 12 -1v-66q-5 1 -10.5 1.5t-13.5 0.5q-19 0 -35 -4t-29 -11q22 -38 22 -87zM128 338
q0 -33 11.5 -57t31 -39.5t46.5 -22.5t57 -7q64 0 105.5 31.5t41.5 96.5q0 33 -11.5 57t-31 39.5t-46.5 23t-57 7.5q-63 0 -105 -31.5t-42 -97.5zM205 15q-54 -16 -83 -40.5t-29 -59.5q0 -44 42.5 -63.5t117.5 -19.5q46 0 83.5 7t64.5 21t41.5 34.5t14.5 47.5q0 73 -118 73
h-134zM124 574l122 146h56l122 -146h-56l-94 89l-94 -89h-56z" />
    <glyph glyph-name="Gbreve" unicode="&#x11e;" horiz-adv-x="675" 
d="M379 49q42 0 78.5 9.5t71.5 27.5v227h-164v61h232v-319q-48 -31 -104 -49t-122 -18q-71 0 -128.5 22.5t-98 68t-63 114t-22.5 159.5q0 94 23.5 165t65.5 119t101 72t130 24q68 0 121 -20t97 -55l-24 -66q-46 37 -93 57t-105 20q-54 0 -99.5 -19t-77.5 -57.5t-50 -97
t-18 -138.5q0 -79 18 -137t50.5 -95.5t78.5 -56t102 -18.5zM368 783q-75 0 -109 33t-34 92h46q6 -35 25.5 -52t71.5 -17t71.5 17t25.5 52h46q0 -59 -34 -92t-109 -33z" />
    <glyph glyph-name="gbreve" unicode="&#x11f;" horiz-adv-x="577" 
d="M489 344q0 -44 -17 -78.5t-47 -58t-70 -36t-86 -12.5q-25 0 -49 4t-46 12q-14 -11 -23 -24.5t-9 -30.5q0 -16 8 -25t21 -13t30 -5t34 -1h118q81 0 128 -31.5t47 -93.5q0 -42 -22 -74.5t-60.5 -54t-90 -33t-110.5 -11.5q-50 0 -90.5 8t-69.5 24t-45 40t-16 56q0 41 27 72
t82 51q-26 11 -41 29.5t-15 45.5q0 30 17 52t40 39q-34 22 -54.5 57t-20.5 85q0 44 17 78.5t47 58t69.5 36t84.5 12.5q46 0 87 -13t70 -39q16 16 40.5 28.5t56.5 12.5h12q5 0 12 -1v-66q-5 1 -10.5 1.5t-13.5 0.5q-19 0 -35 -4t-29 -11q22 -38 22 -87zM128 338
q0 -33 11.5 -57t31 -39.5t46.5 -22.5t57 -7q64 0 105.5 31.5t41.5 96.5q0 33 -11.5 57t-31 39.5t-46.5 23t-57 7.5q-63 0 -105 -31.5t-42 -97.5zM205 15q-54 -16 -83 -40.5t-29 -59.5q0 -44 42.5 -63.5t117.5 -19.5q46 0 83.5 7t64.5 21t41.5 34.5t14.5 47.5q0 73 -118 73
h-134zM274 580q-75 0 -109 37.5t-34 102.5h46q6 -42 25.5 -62.5t71.5 -20.5t71.5 20.5t25.5 62.5h46q0 -65 -34 -102.5t-109 -37.5z" />
    <glyph glyph-name="Gdotaccent" unicode="&#x120;" horiz-adv-x="675" 
d="M379 49q42 0 78.5 9.5t71.5 27.5v227h-164v61h232v-319q-48 -31 -104 -49t-122 -18q-71 0 -128.5 22.5t-98 68t-63 114t-22.5 159.5q0 94 23.5 165t65.5 119t101 72t130 24q68 0 121 -20t97 -55l-24 -66q-46 37 -93 57t-105 20q-54 0 -99.5 -19t-77.5 -57.5t-50 -97
t-18 -138.5q0 -79 18 -137t50.5 -95.5t78.5 -56t102 -18.5zM414 827q0 -20 -13 -33t-33 -13t-33 13t-13 33t13 33t33 13t33 -13t13 -33z" />
    <glyph glyph-name="gdotaccent" unicode="&#x121;" horiz-adv-x="577" 
d="M489 344q0 -44 -17 -78.5t-47 -58t-70 -36t-86 -12.5q-25 0 -49 4t-46 12q-14 -11 -23 -24.5t-9 -30.5q0 -16 8 -25t21 -13t30 -5t34 -1h118q81 0 128 -31.5t47 -93.5q0 -42 -22 -74.5t-60.5 -54t-90 -33t-110.5 -11.5q-50 0 -90.5 8t-69.5 24t-45 40t-16 56q0 41 27 72
t82 51q-26 11 -41 29.5t-15 45.5q0 30 17 52t40 39q-34 22 -54.5 57t-20.5 85q0 44 17 78.5t47 58t69.5 36t84.5 12.5q46 0 87 -13t70 -39q16 16 40.5 28.5t56.5 12.5h12q5 0 12 -1v-66q-5 1 -10.5 1.5t-13.5 0.5q-19 0 -35 -4t-29 -11q22 -38 22 -87zM128 338
q0 -33 11.5 -57t31 -39.5t46.5 -22.5t57 -7q64 0 105.5 31.5t41.5 96.5q0 33 -11.5 57t-31 39.5t-46.5 23t-57 7.5q-63 0 -105 -31.5t-42 -97.5zM205 15q-54 -16 -83 -40.5t-29 -59.5q0 -44 42.5 -63.5t117.5 -19.5q46 0 83.5 7t64.5 21t41.5 34.5t14.5 47.5q0 73 -118 73
h-134zM320 619q0 -20 -13 -33t-33 -13t-33 13t-13 33t13 33t33 13t33 -13t13 -33z" />
    <glyph glyph-name="Gcommaaccent" unicode="&#x122;" horiz-adv-x="675" 
d="M379 49q42 0 78.5 9.5t71.5 27.5v227h-164v61h232v-319q-48 -31 -104 -49t-122 -18q-71 0 -128.5 22.5t-98 68t-63 114t-22.5 159.5q0 94 23.5 165t65.5 119t101 72t130 24q68 0 121 -20t97 -55l-24 -66q-46 37 -93 57t-105 20q-54 0 -99.5 -19t-77.5 -57.5t-50 -97
t-18 -138.5q0 -79 18 -137t50.5 -95.5t78.5 -56t102 -18.5zM311 -171q24 14 37 28.5t18 28.5q-19 0 -30.5 11.5t-11.5 29.5t11.5 29.5t31.5 11.5q22 0 37 -15t15 -44q0 -12 -3.5 -26.5t-12.5 -29.5t-25 -30t-40 -28z" />
    <glyph glyph-name="gcommaaccent" unicode="&#x123;" horiz-adv-x="577" 
d="M489 344q0 -44 -17 -78.5t-47 -58t-70 -36t-86 -12.5q-25 0 -49 4t-46 12q-14 -11 -23 -24.5t-9 -30.5q0 -16 8 -25t21 -13t30 -5t34 -1h118q81 0 128 -31.5t47 -93.5q0 -42 -22 -74.5t-60.5 -54t-90 -33t-110.5 -11.5q-50 0 -90.5 8t-69.5 24t-45 40t-16 56q0 41 27 72
t82 51q-26 11 -41 29.5t-15 45.5q0 30 17 52t40 39q-34 22 -54.5 57t-20.5 85q0 44 17 78.5t47 58t69.5 36t84.5 12.5q46 0 87 -13t70 -39q16 16 40.5 28.5t56.5 12.5h12q5 0 12 -1v-66q-5 1 -10.5 1.5t-13.5 0.5q-19 0 -35 -4t-29 -11q22 -38 22 -87zM128 338
q0 -33 11.5 -57t31 -39.5t46.5 -22.5t57 -7q64 0 105.5 31.5t41.5 96.5q0 33 -11.5 57t-31 39.5t-46.5 23t-57 7.5q-63 0 -105 -31.5t-42 -97.5zM205 15q-54 -16 -83 -40.5t-29 -59.5q0 -44 42.5 -63.5t117.5 -19.5q46 0 83.5 7t64.5 21t41.5 34.5t14.5 47.5q0 73 -118 73
h-134zM332 712q-24 -14 -37 -28.5t-18 -28.5q19 0 30.5 -11.5t11.5 -29.5t-11.5 -29.5t-31.5 -11.5q-22 0 -37 15t-15 44q0 12 3.5 26.5t12.5 29.5t25 30t40 28z" />
    <glyph glyph-name="Hcircumflex" unicode="&#x124;" horiz-adv-x="703" 
d="M96 720h71v-312h369v312h71v-720h-71v343h-369v-343h-71v720zM202 783l122 125h56l122 -125h-56l-94 68l-94 -68h-56z" />
    <glyph glyph-name="hcircumflex" unicode="&#x125;" horiz-adv-x="567" 
d="M80 720h69v-289q16 16 37.5 32.5t47.5 29.5t55.5 21t62.5 8q29 0 54.5 -7.5t44.5 -24t30 -43.5t11 -67v-380h-69v366q0 53 -24.5 73.5t-64.5 20.5q-52 0 -99.5 -26t-85.5 -64v-370h-69v720zM135 774l122 146h56l122 -146h-56l-94 89l-94 -89h-56z" />
    <glyph glyph-name="Hbar" unicode="&#x126;" horiz-adv-x="703" 
d="M13 582h83v138h71v-138h369v138h71v-138h83v-57h-83v-525h-71v343h-369v-343h-71v525h-83v57zM536 408v117h-369v-117h369z" />
    <glyph glyph-name="hbar" unicode="&#x127;" horiz-adv-x="567" 
d="M0 642h80v78h69v-78h151v-57h-151v-154q16 16 37.5 32.5t47.5 29.5t55.5 21t62.5 8q29 0 54.5 -7.5t44.5 -24t30 -43.5t11 -67v-380h-69v366q0 53 -24.5 73.5t-64.5 20.5q-52 0 -99.5 -26t-85.5 -64v-370h-69v585h-80v57z" />
    <glyph glyph-name="Itilde" unicode="&#x128;" horiz-adv-x="281" 
d="M105 720h71v-720h-71v720zM-6 783q0 30 6.5 49.5t17.5 31.5t24.5 17t28.5 5q21 0 40.5 -8.5t37 -18l33 -18t30.5 -8.5q14 0 23 10t9 37h46q0 -30 -6.5 -49.5t-17.5 -31.5t-24.5 -17t-28.5 -5q-21 0 -40.5 8.5t-37 18l-33 18t-30.5 8.5q-14 0 -23 -10t-9 -37h-46z" />
    <glyph glyph-name="itilde" unicode="&#x129;" horiz-adv-x="241" 
d="M-26 580q0 30 6.5 50t17.5 32t24.5 17.5t28.5 5.5q21 0 40.5 -9t36.5 -19.5t33 -19t30 -8.5t23.5 11t9.5 39h46q0 -30 -6.5 -50t-17.5 -32t-24.5 -17.5t-28.5 -5.5q-21 0 -40.5 8.5t-36.5 19l-33 19.5t-30 9t-23.5 -11t-9.5 -39h-46zM86 510h69v-510h-69v510z" />
    <glyph glyph-name="Imacron" unicode="&#x12a;" horiz-adv-x="281" 
d="M105 720h71v-720h-71v720zM1.39648 845h281.008v-56h-281.008v56z" />
    <glyph glyph-name="imacron" unicode="&#x12b;" horiz-adv-x="241" 
d="M-18 642h280v-57h-280v57zM86 510h69v-510h-69v510z" />
    <glyph glyph-name="Ibreve" unicode="&#x12c;" horiz-adv-x="281" 
d="M105 720h71v-720h-71v720zM142 783q-75 0 -109 33t-34 92h46q6 -35 25.5 -52t71.5 -17t71.5 17t25.5 52h46q0 -59 -34 -92t-109 -33z" />
    <glyph glyph-name="ibreve" unicode="&#x12d;" horiz-adv-x="241" 
d="M122 580q-75 0 -109 37.5t-34 102.5h46q6 -42 25.5 -62.5t71.5 -20.5t71.5 20.5t25.5 62.5h46q0 -65 -34 -102.5t-109 -37.5zM86 510h69v-510h-69v510z" />
    <glyph glyph-name="Iogonek" unicode="&#x12e;" horiz-adv-x="281" 
d="M165 0q-42 -26 -59.5 -50t-17.5 -49q0 -23 12 -31t32 -8q7 0 15 1t18 4l12 -45q-11 -3 -25.5 -4.5t-26.5 -1.5q-46 0 -71 19.5t-25 56.5q0 26 16 55.5t60 52.5v720h71v-720h-11z" />
    <glyph glyph-name="iogonek" unicode="&#x12f;" horiz-adv-x="241" 
d="M146 0q-42 -26 -59.5 -50t-17.5 -49q0 -23 12 -31t32 -8q7 0 15 1t18 4l12 -45q-11 -3 -25.5 -4.5t-26.5 -1.5q-46 0 -71 19.5t-25 56.5q0 26 16 55.5t60 52.5v510h69v-510h-9zM167 652q0 -20 -12.5 -33t-33.5 -13t-33.5 13t-12.5 33t12.5 33t33.5 13t33.5 -13t12.5 -33z
" />
    <glyph glyph-name="Idotaccent" unicode="&#x130;" horiz-adv-x="281" 
d="M105 720h71v-720h-71v720zM188 827q0 -20 -13 -33t-33 -13t-33 13t-13 33t13 33t33 13t33 -13t13 -33z" />
    <glyph glyph-name="dotlessi" unicode="&#x131;" horiz-adv-x="241" 
d="M86 510h69v-510h-69v510z" />
    <glyph glyph-name="IJ" unicode="&#x132;" horiz-adv-x="686" 
d="M105 720h71v-720h-71v720zM311 69q20 -5 43.5 -8t44.5 -3q37 0 62 9.5t39 28.5t20 46t6 62v516h71v-516q0 -51 -10 -90t-33 -66t-60 -40.5t-90 -13.5q-22 0 -47.5 2t-45.5 7v66z" />
    <glyph glyph-name="ij" unicode="&#x133;" horiz-adv-x="481" 
d="M86 510h69v-510h-69v510zM167 652q0 -20 -13 -33t-33 -13t-33 13t-13 33t13 33t33 13t33 -13t13 -33zM395 -72q0 -70 -30 -107t-103 -37q-28 0 -59 6v59q27 -6 49 -6q44 0 59 22t15 63v582h69v-582zM407 652q0 -20 -13 -33t-33 -13t-33 13t-13 33t13 33t33 13t33 -13
t13 -33z" />
    <glyph glyph-name="Jcircumflex" unicode="&#x134;" horiz-adv-x="405" 
d="M31 69q20 -5 43.5 -8t44.5 -3q37 0 62 9.5t39 28.5t20 46t6 62v516h71v-516q0 -51 -10 -90t-33 -66t-60 -40.5t-90 -13.5q-22 0 -47.5 2t-45.5 7v66zM138 783l122 125h56l122 -125h-56l-94 68l-94 -68h-56z" />
    <glyph glyph-name="jcircumflex" unicode="&#x135;" horiz-adv-x="241" 
d="M155 -72q0 -70 -30 -107t-103 -37q-28 0 -59 6v59q27 -6 49 -6q44 0 59 22t15 63v582h69v-582zM-28 574l122 146h56l122 -146h-56l-94 89l-94 -89h-56z" />
    <glyph glyph-name="Kcommaaccent" unicode="&#x136;" horiz-adv-x="643" 
d="M96 720h71v-355l339 355h90l-257 -263l282 -457h-81l-249 408l-124 -127v-281h-71v720zM280 -171q24 14 37 28.5t18 28.5q-19 0 -30.5 11.5t-11.5 29.5t11.5 29.5t31.5 11.5q22 0 37 -15t15 -44q0 -12 -3.5 -26.5t-12.5 -29.5t-25 -30t-40 -28z" />
    <glyph glyph-name="kcommaaccent" unicode="&#x137;" horiz-adv-x="524" 
d="M80 720h69v-432l235 222h88l-197 -180l220 -330h-76l-190 288l-80 -73v-215h-69v720zM209 -171q24 14 37 28.5t18 28.5q-19 0 -30.5 11.5t-11.5 29.5t11.5 29.5t31.5 11.5q22 0 37 -15t15 -44q0 -12 -3.5 -26.5t-12.5 -29.5t-25 -30t-40 -28z" />
    <glyph glyph-name="kgreenlandic" unicode="&#x138;" horiz-adv-x="524" 
d="M80 510h69v-222l235 222h88l-197 -180l220 -330h-76l-190 288l-80 -73v-215h-69v510z" />
    <glyph glyph-name="Lacute" unicode="&#x139;" horiz-adv-x="530" 
d="M96 720h71v-655h332v-65h-403v720zM70 783l96 125h85l-125 -125h-56z" />
    <glyph glyph-name="lacute" unicode="&#x13a;" horiz-adv-x="241" 
d="M86 720h69v-720h-69v720zM63 774l96 146h84l-124 -146h-56z" />
    <glyph glyph-name="Lcommaaccent" unicode="&#x13b;" horiz-adv-x="530" 
d="M96 720h71v-655h332v-65h-403v720zM248 -171q24 14 37 28.5t18 28.5q-19 0 -30.5 11.5t-11.5 29.5t11.5 29.5t31.5 11.5q22 0 37 -15t15 -44q0 -12 -3.5 -26.5t-12.5 -29.5t-25 -30t-40 -28z" />
    <glyph glyph-name="lcommaaccent" unicode="&#x13c;" horiz-adv-x="241" 
d="M86 720h69v-720h-69v720zM56 -171q24 14 37 28.5t18 28.5q-19 0 -30.5 11.5t-11.5 29.5t11.5 29.5t31.5 11.5q22 0 37 -15t15 -44q0 -12 -3.5 -26.5t-12.5 -29.5t-25 -30t-40 -28z" />
    <glyph glyph-name="Lcaron" unicode="&#x13d;" horiz-adv-x="530" 
d="M223 571l29 149h67l-51 -149h-45zM96 720h71v-655h332v-65h-403v720z" />
    <glyph glyph-name="lcaron" unicode="&#x13e;" horiz-adv-x="246" 
d="M194 571l29 149h67l-51 -149h-45zM86 720h69v-720h-69v720z" />
    <glyph glyph-name="Ldot" unicode="&#x13f;" horiz-adv-x="530" 
d="M96 720h71v-655h332v-65h-403v720zM438 361q0 -20 -13 -33t-33 -13t-33 13t-13 33t13 33t33 13t33 -13t13 -33z" />
    <glyph glyph-name="ldot" unicode="&#x140;" horiz-adv-x="269" 
d="M86 720h69v-720h-69v720zM306 361q0 -20 -13 -33t-33 -13t-33 13t-13 33t13 33t33 13t33 -13t13 -33z" />
    <glyph glyph-name="Lslash" unicode="&#x141;" horiz-adv-x="530" 
d="M12 363l84 21v336h71v-318l206 51v-59l-206 -51v-278h332v-65h-403v325l-84 -21v59z" />
    <glyph glyph-name="lslash" unicode="&#x142;" horiz-adv-x="298" 
d="M12 382l102 26v312h69v-294l103 26v-56l-103 -26v-370h-69v352l-102 -26v56z" />
    <glyph glyph-name="Nacute" unicode="&#x143;" horiz-adv-x="709" 
d="M96 720h81l369 -579v579h67v-720h-59l-391 612v-612h-67v720zM295 783l96 125h85l-125 -125h-56z" />
    <glyph glyph-name="nacute" unicode="&#x144;" horiz-adv-x="567" 
d="M226 574l96 146h84l-124 -146h-56zM80 510h69v-79q37 37 89 64t115 27q28 0 53.5 -7.5t44.5 -24t30 -43.5t11 -67v-380h-69v366q0 53 -24.5 73.5t-64.5 20.5q-53 0 -99.5 -26.5t-85.5 -63.5v-370h-69v510z" />
    <glyph glyph-name="Ncommaaccent" unicode="&#x145;" horiz-adv-x="709" 
d="M96 720h81l369 -579v579h67v-720h-59l-391 612v-612h-67v720zM297 -171q24 14 37 28.5t18 28.5q-19 0 -30.5 11.5t-11.5 29.5t11.5 29.5t31.5 11.5q22 0 37 -15t15 -44q0 -12 -3.5 -26.5t-12.5 -29.5t-25 -30t-40 -28z" />
    <glyph glyph-name="ncommaaccent" unicode="&#x146;" horiz-adv-x="567" 
d="M216 -171q24 14 37 28.5t18 28.5q-19 0 -30.5 11.5t-11.5 29.5t11.5 29.5t31.5 11.5q22 0 37 -15t15 -44q0 -12 -3.5 -26.5t-12.5 -29.5t-25 -30t-40 -28zM80 510h69v-79q37 37 89 64t115 27q28 0 53.5 -7.5t44.5 -24t30 -43.5t11 -67v-380h-69v366q0 53 -24.5 73.5
t-64.5 20.5q-53 0 -99.5 -26.5t-85.5 -63.5v-370h-69v510z" />
    <glyph glyph-name="Ncaron" unicode="&#x147;" horiz-adv-x="709" 
d="M96 720h81l369 -579v579h67v-720h-59l-391 612v-612h-67v720zM504 908l-122 -125h-56l-122 125h56l94 -68l94 68h56z" />
    <glyph glyph-name="ncaron" unicode="&#x148;" horiz-adv-x="567" 
d="M435 720l-122 -146h-56l-122 146h56l94 -89l94 89h56zM80 510h69v-79q37 37 89 64t115 27q28 0 53.5 -7.5t44.5 -24t30 -43.5t11 -67v-380h-69v366q0 53 -24.5 73.5t-64.5 20.5q-53 0 -99.5 -26.5t-85.5 -63.5v-370h-69v510z" />
    <glyph glyph-name="napostrophe" unicode="&#x149;" horiz-adv-x="567" 
d="M-22 593q24 14 37 28.5t18 28.5q-19 0 -30.5 11.5t-11.5 29.5t11.5 29.5t31.5 11.5q22 0 37 -15t15 -44q0 -12 -3.5 -26.5t-12.5 -29.5t-25 -30t-40 -28zM80 510h69v-79q37 37 89 64t115 27q28 0 53.5 -7.5t44.5 -24t30 -43.5t11 -67v-380h-69v366q0 53 -24.5 73.5
t-64.5 20.5q-53 0 -99.5 -26.5t-85.5 -63.5v-370h-69v510z" />
    <glyph glyph-name="Eng" unicode="&#x14a;" horiz-adv-x="709" 
d="M96 720h81l369 -579v579h67v-754q0 -70 -30 -107t-103 -37q-28 0 -59 6v59q27 -6 49 -6q44 0 59 22t15 63v49l-381 597v-612h-67v720z" />
    <glyph glyph-name="eng" unicode="&#x14b;" horiz-adv-x="567" 
d="M80 510h69v-79q37 37 89 64t115 27q28 0 53.5 -7.5t44.5 -24t30 -43.5t11 -67v-414q0 -70 -30 -107t-103 -37q-28 0 -59 6v59q27 -6 49 -6q44 0 59 22t15 63v400q0 53 -24.5 73.5t-64.5 20.5q-53 0 -99.5 -26.5t-85.5 -63.5v-370h-69v510z" />
    <glyph glyph-name="Omacron" unicode="&#x14c;" horiz-adv-x="716" 
d="M657 362q0 -91 -22.5 -161t-63 -117t-95.5 -71.5t-120 -24.5q-64 0 -118.5 23.5t-94 70t-62 116t-22.5 160.5q0 92 23 162t63 117t95 71t120 24q64 0 118.5 -24t94 -70.5t62 -116t22.5 -159.5zM586 360q0 78 -16.5 136t-46.5 96t-72 57t-93 19t-93 -19t-72 -57t-46.5 -96
t-16.5 -136t16.5 -136t46.5 -96t72 -57t93 -19t93 19t72 57t46.5 96t16.5 136zM217 845h280v-56h-280v56z" />
    <glyph glyph-name="omacron" unicode="&#x14d;" horiz-adv-x="554" 
d="M119 255q0 -56 12.5 -95.5t33.5 -64.5t50 -37t62 -12t62 12t50 37t33.5 64.5t12.5 95.5q0 55 -12.5 95t-33.5 65t-50 37t-62 12t-62 -12t-50 -37t-33.5 -65t-12.5 -95zM504 257q0 -69 -18 -119.5t-49.5 -83.5t-73 -49.5t-88.5 -16.5q-46 0 -87 15.5t-71.5 48t-48.5 82.5
t-18 119t18.5 120t49.5 84t72.5 49t88.5 16q46 0 87 -16t71.5 -48.5t48.5 -82.5t18 -118zM136 642h280v-57h-280v57z" />
    <glyph glyph-name="Obreve" unicode="&#x14e;" horiz-adv-x="716" 
d="M657 362q0 -91 -22.5 -161t-63 -117t-95.5 -71.5t-120 -24.5q-64 0 -118.5 23.5t-94 70t-62 116t-22.5 160.5q0 92 23 162t63 117t95 71t120 24q64 0 118.5 -24t94 -70.5t62 -116t22.5 -159.5zM586 360q0 78 -16.5 136t-46.5 96t-72 57t-93 19t-93 -19t-72 -57t-46.5 -96
t-16.5 -136t16.5 -136t46.5 -96t72 -57t93 -19t93 19t72 57t46.5 96t16.5 136zM357 783q-75 0 -109 33t-34 92h46q6 -35 25.5 -52t71.5 -17t71.5 17t25.5 52h46q0 -59 -34 -92t-109 -33z" />
    <glyph glyph-name="obreve" unicode="&#x14f;" horiz-adv-x="554" 
d="M119 255q0 -56 12.5 -95.5t33.5 -64.5t50 -37t62 -12t62 12t50 37t33.5 64.5t12.5 95.5q0 55 -12.5 95t-33.5 65t-50 37t-62 12t-62 -12t-50 -37t-33.5 -65t-12.5 -95zM504 257q0 -69 -18 -119.5t-49.5 -83.5t-73 -49.5t-88.5 -16.5q-46 0 -87 15.5t-71.5 48t-48.5 82.5
t-18 119t18.5 120t49.5 84t72.5 49t88.5 16q46 0 87 -16t71.5 -48.5t48.5 -82.5t18 -118zM276 580q-75 0 -109 37.5t-34 102.5h46q6 -42 25.5 -62.5t71.5 -20.5t71.5 20.5t25.5 62.5h46q0 -65 -34 -102.5t-109 -37.5z" />
    <glyph glyph-name="Ohungarumlaut" unicode="&#x150;" horiz-adv-x="716" 
d="M657 362q0 -91 -22.5 -161t-63 -117t-95.5 -71.5t-120 -24.5q-64 0 -118.5 23.5t-94 70t-62 116t-22.5 160.5q0 92 23 162t63 117t95 71t120 24q64 0 118.5 -24t94 -70.5t62 -116t22.5 -159.5zM586 360q0 78 -16.5 136t-46.5 96t-72 57t-93 19t-93 -19t-72 -57t-46.5 -96
t-16.5 -136t16.5 -136t46.5 -96t72 -57t93 -19t93 19t72 57t46.5 96t16.5 136zM220 783l96 125h85l-125 -125h-56zM365 783l107 125h85l-136 -125h-56z" />
    <glyph glyph-name="ohungarumlaut" unicode="&#x151;" horiz-adv-x="554" 
d="M119 255q0 -56 12.5 -95.5t33.5 -64.5t50 -37t62 -12t62 12t50 37t33.5 64.5t12.5 95.5q0 55 -12.5 95t-33.5 65t-50 37t-62 12t-62 -12t-50 -37t-33.5 -65t-12.5 -95zM504 257q0 -69 -18 -119.5t-49.5 -83.5t-73 -49.5t-88.5 -16.5q-46 0 -87 15.5t-71.5 48t-48.5 82.5
t-18 119t18.5 120t49.5 84t72.5 49t88.5 16q46 0 87 -16t71.5 -48.5t48.5 -82.5t18 -118zM140 574l95 146h85l-125 -146h-55zM284 574l107 146h84l-136 -146h-55z" />
    <glyph glyph-name="OE" unicode="&#x152;" horiz-adv-x="941" 
d="M378 732q28 0 54.5 -3.5t50.5 -8.5h403v-65h-337v-249h294v-63h-294v-279h340v-64h-409q-26 -5 -54.5 -8.5t-55.5 -3.5q-69 0 -126 23t-98 69t-64 114.5t-23 159.5q0 93 23.5 163.5t66 118t101 72t128.5 24.5zM376 51q51 0 102 14v586q-49 17 -102 17q-56 0 -101 -19
t-77.5 -57.5t-50 -96.5t-17.5 -136t17.5 -135.5t50 -96t77.5 -57.5t101 -19z" />
    <glyph glyph-name="oe" unicode="&#x153;" horiz-adv-x="921" 
d="M504 241q1 -51 14 -88t35 -61t52.5 -35.5t67.5 -11.5q42 0 80 13.5t79 38.5l20 -55q-41 -26 -90 -40t-98 -14q-66 0 -117 27t-80 81q-31 -55 -81.5 -81.5t-110.5 -26.5q-46 0 -87 15.5t-71.5 48t-48.5 82.5t-18 119t18.5 120t49.5 84t72.5 49t88.5 16q61 0 111.5 -28
t80.5 -85q30 56 80.5 84.5t113.5 28.5q91 0 146 -61.5t55 -181.5v-20q0 -7 -1 -18h-361zM119 255q0 -56 12.5 -95.5t33.5 -64.5t50 -37t62 -12t62 12t50 37t33.5 64.5t12.5 95.5q0 55 -12.5 95t-33.5 65t-50 37t-62 12t-62 -12t-50 -37t-33.5 -65t-12.5 -95zM662 466
q-66 0 -108 -44.5t-50 -127.5h295q0 46 -10.5 78.5t-28.5 53.5t-43 30.5t-55 9.5z" />
    <glyph glyph-name="Racute" unicode="&#x154;" horiz-adv-x="670" 
d="M328 329h-161v-329h-71v720h250q110 0 171.5 -48.5t61.5 -146.5q0 -81 -43.5 -129.5t-130.5 -62.5l205 -333h-80zM340 388q85 0 126.5 31.5t41.5 102.5q0 70 -41.5 101.5t-126.5 31.5h-173v-267h173zM263 783l96 125h85l-125 -125h-56z" />
    <glyph glyph-name="racute" unicode="&#x155;" horiz-adv-x="367" 
d="M345 455q-8 1 -17 1.5t-17 0.5q-30 0 -55.5 -10.5t-46.5 -25t-36 -30.5t-24 -27v-364h-69v510h69v-82q11 16 27 32.5t36 30t45 22.5t55 9q18 0 33 -3v-64zM154 574l96 146h84l-124 -146h-56z" />
    <glyph glyph-name="Rcommaaccent" unicode="&#x156;" horiz-adv-x="670" 
d="M328 329h-161v-329h-71v720h250q110 0 171.5 -48.5t61.5 -146.5q0 -81 -43.5 -129.5t-130.5 -62.5l205 -333h-80zM340 388q85 0 126.5 31.5t41.5 102.5q0 70 -41.5 101.5t-126.5 31.5h-173v-267h173zM266 -171q24 14 37 28.5t18 28.5q-19 0 -30.5 11.5t-11.5 29.5
t11.5 29.5t31.5 11.5q22 0 37 -15t15 -44q0 -12 -3.5 -26.5t-12.5 -29.5t-25 -30t-40 -28z" />
    <glyph glyph-name="rcommaaccent" unicode="&#x157;" horiz-adv-x="367" 
d="M345 455q-8 1 -17 1.5t-17 0.5q-30 0 -55.5 -10.5t-46.5 -25t-36 -30.5t-24 -27v-364h-69v510h69v-82q11 16 27 32.5t36 30t45 22.5t55 9q18 0 33 -3v-64zM51 -171q24 14 37 28.5t18 28.5q-19 0 -30.5 11.5t-11.5 29.5t11.5 29.5t31.5 11.5q22 0 37 -15t15 -44
q0 -12 -3.5 -26.5t-12.5 -29.5t-25 -30t-40 -28z" />
    <glyph glyph-name="Rcaron" unicode="&#x158;" horiz-adv-x="670" 
d="M328 329h-161v-329h-71v720h250q110 0 171.5 -48.5t61.5 -146.5q0 -81 -43.5 -129.5t-130.5 -62.5l205 -333h-80zM340 388q85 0 126.5 31.5t41.5 102.5q0 70 -41.5 101.5t-126.5 31.5h-173v-267h173zM472 908l-122 -125h-56l-122 125h56l94 -68l94 68h56z" />
    <glyph glyph-name="rcaron" unicode="&#x159;" horiz-adv-x="367" 
d="M345 455q-8 1 -17 1.5t-17 0.5q-30 0 -55.5 -10.5t-46.5 -25t-36 -30.5t-24 -27v-364h-69v510h69v-82q11 16 27 32.5t36 30t45 22.5t55 9q18 0 33 -3v-64zM363 720l-122 -146h-56l-122 146h56l94 -89l94 89h56z" />
    <glyph glyph-name="Sacute" unicode="&#x15a;" horiz-adv-x="579" 
d="M83 121q45 -31 95 -50.5t106 -19.5q76 0 120.5 37.5t44.5 102.5q0 38 -16 63.5t-41.5 42.5t-59 28.5l-68 23t-67.5 25t-58.5 34t-41.5 51t-16 76.5q0 45 16.5 81.5t45.5 62t70 39.5t90 14q57 0 106.5 -17.5t91.5 -48.5l-23 -67q-41 31 -84.5 50t-94.5 19
q-69 0 -108 -33.5t-39 -90.5q0 -48 27.5 -74.5t68 -43t88.5 -29.5t88.5 -35t68 -59.5t27.5 -101.5q0 -50 -17 -89t-48.5 -67t-75.5 -42.5t-98 -14.5q-61 0 -117.5 18t-104.5 50zM231 783l96 125h85l-125 -125h-56z" />
    <glyph glyph-name="sacute" unicode="&#x15b;" horiz-adv-x="454" 
d="M368 413q-30 21 -63.5 36t-70.5 15q-45 0 -70.5 -23t-25.5 -58q0 -32 19.5 -48.5t49.5 -27.5t64 -20t64 -25t49.5 -43t19.5 -73q0 -74 -50.5 -116t-134.5 -42q-47 0 -90 13.5t-79 36.5l20 60q35 -23 73.5 -38t80.5 -15q54 0 83 25t29 67q0 35 -19.5 54t-49.5 31t-64 21
t-64 24t-49.5 40t-19.5 69q0 66 45.5 106t121.5 40q43 0 81 -13t70 -36zM170 574l96 146h84l-124 -146h-56z" />
    <glyph glyph-name="Scircumflex" unicode="&#x15c;" horiz-adv-x="579" 
d="M83 121q45 -31 95 -50.5t106 -19.5q76 0 120.5 37.5t44.5 102.5q0 38 -16 63.5t-41.5 42.5t-59 28.5l-68 23t-67.5 25t-58.5 34t-41.5 51t-16 76.5q0 45 16.5 81.5t45.5 62t70 39.5t90 14q57 0 106.5 -17.5t91.5 -48.5l-23 -67q-41 31 -84.5 50t-94.5 19
q-69 0 -108 -33.5t-39 -90.5q0 -48 27.5 -74.5t68 -43t88.5 -29.5t88.5 -35t68 -59.5t27.5 -101.5q0 -50 -17 -89t-48.5 -67t-75.5 -42.5t-98 -14.5q-61 0 -117.5 18t-104.5 50zM140 783l122 125h56l122 -125h-56l-94 68l-94 -68h-56z" />
    <glyph glyph-name="scircumflex" unicode="&#x15d;" horiz-adv-x="454" 
d="M368 413q-30 21 -63.5 36t-70.5 15q-45 0 -70.5 -23t-25.5 -58q0 -32 19.5 -48.5t49.5 -27.5t64 -20t64 -25t49.5 -43t19.5 -73q0 -74 -50.5 -116t-134.5 -42q-47 0 -90 13.5t-79 36.5l20 60q35 -23 73.5 -38t80.5 -15q54 0 83 25t29 67q0 35 -19.5 54t-49.5 31t-64 21
t-64 24t-49.5 40t-19.5 69q0 66 45.5 106t121.5 40q43 0 81 -13t70 -36zM79 574l122 146h56l122 -146h-56l-94 89l-94 -89h-56z" />
    <glyph glyph-name="Scedilla" unicode="&#x15e;" horiz-adv-x="579" 
d="M389 -99q0 -42 -30.5 -63.5t-80.5 -21.5q-32 0 -52.5 7.5t-35.5 15.5l12 45q16 -8 34 -15t41 -7q53 0 53 40q0 21 -17.5 37.5t-55.5 25.5l8 23q-57 2 -109 20.5t-97 47.5l24 65q45 -31 95 -50.5t106 -19.5q76 0 120.5 37.5t44.5 102.5q0 38 -16 63.5t-41.5 42.5t-59 28.5
l-68 23t-67.5 25t-58.5 34t-41.5 51t-16 76.5q0 45 16.5 81.5t45.5 62t70 39.5t90 14q57 0 106.5 -17.5t91.5 -48.5l-23 -67q-41 31 -84.5 50t-94.5 19q-69 0 -108 -33.5t-39 -90.5q0 -48 27.5 -74.5t68 -43t88.5 -29.5t88.5 -35t68 -59.5t27.5 -101.5q0 -91 -54.5 -146
t-146.5 -65q32 -12 51 -34.5t19 -54.5z" />
    <glyph glyph-name="scedilla" unicode="&#x15f;" horiz-adv-x="454" 
d="M326 -99q0 -42 -30.5 -63.5t-80.5 -21.5q-32 0 -52.5 7.5t-35.5 15.5l12 45q16 -8 34 -15t41 -7q53 0 53 40q0 21 -17.5 37.5t-55.5 25.5l8 24q-42 2 -81 15t-71 34l20 60q35 -23 73.5 -38t80.5 -15q54 0 83 25t29 67q0 35 -19.5 54t-49.5 31t-64 21t-64 24t-49.5 40
t-19.5 69q0 66 45.5 106t121.5 40q43 0 81 -13t70 -36l-20 -60q-30 21 -63.5 36t-70.5 15q-45 0 -70.5 -23t-25.5 -58q0 -32 19.5 -48.5t49.5 -27.5t64 -20t64 -25t49.5 -43t19.5 -73q0 -66 -40 -106.5t-109 -48.5q32 -12 51.5 -34.5t19.5 -55.5z" />
    <glyph glyph-name="Scaron" unicode="&#x160;" horiz-adv-x="579" 
d="M83 121q45 -31 95 -50.5t106 -19.5q76 0 120.5 37.5t44.5 102.5q0 38 -16 63.5t-41.5 42.5t-59 28.5l-68 23t-67.5 25t-58.5 34t-41.5 51t-16 76.5q0 45 16.5 81.5t45.5 62t70 39.5t90 14q57 0 106.5 -17.5t91.5 -48.5l-23 -67q-41 31 -84.5 50t-94.5 19
q-69 0 -108 -33.5t-39 -90.5q0 -48 27.5 -74.5t68 -43t88.5 -29.5t88.5 -35t68 -59.5t27.5 -101.5q0 -50 -17 -89t-48.5 -67t-75.5 -42.5t-98 -14.5q-61 0 -117.5 18t-104.5 50zM440 908l-122 -125h-56l-122 125h56l94 -68l94 68h56z" />
    <glyph glyph-name="scaron" unicode="&#x161;" horiz-adv-x="454" 
d="M368 413q-30 21 -63.5 36t-70.5 15q-45 0 -70.5 -23t-25.5 -58q0 -32 19.5 -48.5t49.5 -27.5t64 -20t64 -25t49.5 -43t19.5 -73q0 -74 -50.5 -116t-134.5 -42q-47 0 -90 13.5t-79 36.5l20 60q35 -23 73.5 -38t80.5 -15q54 0 83 25t29 67q0 35 -19.5 54t-49.5 31t-64 21
t-64 24t-49.5 40t-19.5 69q0 66 45.5 106t121.5 40q43 0 81 -13t70 -36zM379 720l-122 -146h-56l-122 146h56l94 -89l94 89h56z" />
    <glyph glyph-name="Tcommaaccent" unicode="&#x162;" horiz-adv-x="561" 
d="M245 655h-214v65h499v-65h-214v-655h-28q42 -11 67 -36t25 -63q0 -42 -30.5 -63.5t-80.5 -21.5q-32 0 -52.5 7.5t-35.5 15.5l12 45q16 -8 34 -15t41 -7q53 0 53 40q0 21 -17.5 37.5t-55.5 25.5l11 35h-14v655z" />
    <glyph glyph-name="tcommaaccent" unicode="&#x163;" horiz-adv-x="375" 
d="M303 -99q0 -42 -30.5 -63.5t-80.5 -21.5q-32 0 -52.5 7.5t-35.5 15.5l12 45q16 -8 34 -15t41 -7q53 0 53 40q0 21 -17.5 37.5t-55.5 25.5l12 39q-29 13 -41 42.5t-12 83.5v321h-105v59h105v170h69v-170h135v-59h-135v-313q0 -50 12.5 -67.5t49.5 -17.5q21 0 38.5 4
t34.5 9v-61q-18 -4 -38.5 -7.5t-41.5 -3.5q-9 0 -14.5 0.5t-11.5 0.5q35 -14 55 -37.5t20 -56.5z" />
    <glyph glyph-name="Tcaron" unicode="&#x164;" horiz-adv-x="561" 
d="M245 655h-214v65h499v-65h-214v-655h-71v655zM430 908l-122 -125h-56l-122 125h56l94 -68l94 68h56z" />
    <glyph glyph-name="tcaron" unicode="&#x165;" horiz-adv-x="375" 
d="M248 571l29 149h67l-51 -149h-45zM25 510h105v170h69v-170h135v-59h-135v-313q0 -50 12.5 -67.5t49.5 -17.5q21 0 38.5 4t34.5 9v-61q-18 -4 -38.5 -7.5t-47.5 -3.5q-32 0 -54.5 7t-36.5 22.5t-20.5 41.5t-6.5 65v321h-105v59z" />
    <glyph glyph-name="Tbar" unicode="&#x166;" horiz-adv-x="561" 
d="M98 405h147v250h-214v65h499v-65h-214v-250h147v-57h-147v-348h-71v348h-147v57z" />
    <glyph glyph-name="tbar" unicode="&#x167;" horiz-adv-x="375" 
d="M25 510h105v170h69v-170h135v-59h-135v-152h111v-56h-111v-105q0 -50 12.5 -67.5t49.5 -17.5q21 0 38.5 4t34.5 9v-61q-18 -4 -38.5 -7.5t-47.5 -3.5q-32 0 -54.5 7t-36.5 22.5t-20.5 41.5t-6.5 65v113h-80v56h80v152h-105v59z" />
    <glyph glyph-name="Utilde" unicode="&#x168;" horiz-adv-x="687" 
d="M88 720h72v-465q0 -106 43 -154.5t141 -48.5t141 48.5t43 154.5v465h70v-465q0 -138 -62 -202.5t-193 -64.5t-193 64t-62 200v468zM195 783q0 30 6.5 49.5t17.5 31.5t24.5 17t28.5 5q21 0 40.5 -8.5t37 -18l33 -18t30.5 -8.5q14 0 23 10t9 37h46q0 -30 -6.5 -49.5
t-17.5 -31.5t-24.5 -17t-28.5 -5q-21 0 -40.5 8.5t-37 18l-33 18t-30.5 8.5q-14 0 -23 -10t-9 -37h-46z" />
    <glyph glyph-name="utilde" unicode="&#x169;" horiz-adv-x="567" 
d="M132 580q0 30 6.5 50t17.5 32t24.5 17.5t28.5 5.5q21 0 40.5 -9t36.5 -19.5t33 -19t30 -8.5t23.5 11t9.5 39h46q0 -30 -6.5 -50t-17.5 -32t-24.5 -17.5t-28.5 -5.5q-21 0 -40.5 8.5t-36.5 19l-33 19.5t-30 9t-23.5 -11t-9.5 -39h-46zM486 0h-69v79q-37 -37 -89 -64
t-115 -27q-29 0 -54 7.5t-44 24t-30 43.5t-11 67v380h69v-368q0 -53 24.5 -73.5t64.5 -20.5q53 0 99.5 26.5t85.5 63.5v372h69v-510z" />
    <glyph glyph-name="Umacron" unicode="&#x16a;" horiz-adv-x="687" 
d="M88 720h72v-465q0 -106 43 -154.5t141 -48.5t141 48.5t43 154.5v465h70v-465q0 -138 -62 -202.5t-193 -64.5t-193 64t-62 200v468zM203 845h280v-56h-280v56z" />
    <glyph glyph-name="umacron" unicode="&#x16b;" horiz-adv-x="567" 
d="M140 642h280v-57h-280v57zM486 0h-69v79q-37 -37 -89 -64t-115 -27q-29 0 -54 7.5t-44 24t-30 43.5t-11 67v380h69v-368q0 -53 24.5 -73.5t64.5 -20.5q53 0 99.5 26.5t85.5 63.5v372h69v-510z" />
    <glyph glyph-name="Ubreve" unicode="&#x16c;" horiz-adv-x="687" 
d="M88 720h72v-465q0 -106 43 -154.5t141 -48.5t141 48.5t43 154.5v465h70v-465q0 -138 -62 -202.5t-193 -64.5t-193 64t-62 200v468zM343 783q-75 0 -109 33t-34 92h46q6 -35 25.5 -52t71.5 -17t71.5 17t25.5 52h46q0 -59 -34 -92t-109 -33z" />
    <glyph glyph-name="ubreve" unicode="&#x16d;" horiz-adv-x="567" 
d="M280 580q-75 0 -109 37.5t-34 102.5h46q6 -42 25.5 -62.5t71.5 -20.5t71.5 20.5t25.5 62.5h46q0 -65 -34 -102.5t-109 -37.5zM486 0h-69v79q-37 -37 -89 -64t-115 -27q-29 0 -54 7.5t-44 24t-30 43.5t-11 67v380h69v-368q0 -53 24.5 -73.5t64.5 -20.5q53 0 99.5 26.5
t85.5 63.5v372h69v-510z" />
    <glyph glyph-name="Uring" unicode="&#x16e;" horiz-adv-x="687" 
d="M88 720h72v-465q0 -106 43 -154.5t141 -48.5t141 48.5t43 154.5v465h70v-465q0 -138 -62 -202.5t-193 -64.5t-193 64t-62 200v468zM295 862q0 -20 13 -33.5t35 -13.5t35 13.5t13 33.5t-13 33.5t-35 13.5t-35 -13.5t-13 -33.5zM430 862q0 -36 -24.5 -61t-62.5 -25
t-62.5 25t-24.5 61t24.5 61t62.5 25t62.5 -25t24.5 -61z" />
    <glyph glyph-name="uring" unicode="&#x16f;" horiz-adv-x="567" 
d="M232 655q0 -20 13 -33.5t35 -13.5t35 13.5t13 33.5t-13 33.5t-35 13.5t-35 -13.5t-13 -33.5zM367 655q0 -36 -24.5 -61t-62.5 -25t-62.5 25t-24.5 61t24.5 61t62.5 25t62.5 -25t24.5 -61zM486 0h-69v79q-37 -37 -89 -64t-115 -27q-29 0 -54 7.5t-44 24t-30 43.5t-11 67
v380h69v-368q0 -53 24.5 -73.5t64.5 -20.5q53 0 99.5 26.5t85.5 63.5v372h69v-510z" />
    <glyph glyph-name="Uhungarumlaut" unicode="&#x170;" horiz-adv-x="687" 
d="M88 720h72v-465q0 -106 43 -154.5t141 -48.5t141 48.5t43 154.5v465h70v-465q0 -138 -62 -202.5t-193 -64.5t-193 64t-62 200v468zM206 783l96 125h85l-125 -125h-56zM351 783l107 125h85l-136 -125h-56z" />
    <glyph glyph-name="uhungarumlaut" unicode="&#x171;" horiz-adv-x="567" 
d="M145 574l95 146h85l-125 -146h-55zM289 574l107 146h84l-136 -146h-55zM486 0h-69v79q-37 -37 -89 -64t-115 -27q-29 0 -54 7.5t-44 24t-30 43.5t-11 67v380h69v-368q0 -53 24.5 -73.5t64.5 -20.5q53 0 99.5 26.5t85.5 63.5v372h69v-510z" />
    <glyph glyph-name="Uogonek" unicode="&#x172;" horiz-adv-x="687" 
d="M88 720h72v-465q0 -106 43 -154.5t141 -48.5t141 48.5t43 154.5v465h70v-465q0 -118 -44.5 -181.5t-138.5 -79.5q-42 -24 -59.5 -47t-17.5 -47q0 -22 12 -30t32 -8q7 0 15 1t18 4l12 -45q-11 -3 -25.5 -4.5t-27.5 -1.5q-45 0 -70 19t-25 56q0 26 14.5 51.5t49.5 45.5
q-131 0 -193 64t-62 200v468z" />
    <glyph glyph-name="uogonek" unicode="&#x173;" horiz-adv-x="567" 
d="M486 0h-9q-48 -26 -68.5 -50t-20.5 -50q0 -21 12 -29.5t32 -8.5q6 0 14.5 1t18.5 4l12 -45q-11 -3 -25.5 -4.5t-26.5 -1.5q-45 0 -70.5 19.5t-25.5 55.5q0 29 20 58.5t68 50.5v79q-37 -37 -89 -64t-115 -27q-29 0 -54 7.5t-44 24t-30 43.5t-11 67v380h69v-368
q0 -53 24.5 -73.5t64.5 -20.5q53 0 99.5 26.5t85.5 63.5v372h69v-510z" />
    <glyph glyph-name="Wcircumflex" unicode="&#x174;" horiz-adv-x="953" 
d="M533 415l-22 76.5l-13.5 49t-9.5 38.5l-10 45h-2q-11 -53 -25.5 -102.5l-29.5 -102.5l-124 -419h-69l-188 720h74l106 -415q0 -2 6 -25l14 -54.5l16 -65.5t12 -59h2q6 28 12 52l12 48q6 24 13 49l16 56l121 414h68l119 -413l16 -57l13 -48l12 -47l13 -54h2
q7 39 19.5 92.5t27.5 111.5l108 415h72l-193 -720h-68zM326 783l122 125h56l122 -125h-56l-94 68l-94 -68h-56z" />
    <glyph glyph-name="wcircumflex" unicode="&#x175;" horiz-adv-x="751" 
d="M180 0l-154 510h70l87 -292q13 -43 21 -76t13 -65h2q4 24 13 60.5t22 78.5l91 294h65l87 -293l11 -37l9.5 -31.5t8 -32t7.5 -39.5h2q5 32 13 65.5t21 76.5l88 291h68l-158 -510h-67l-85 284q-13 43 -21.5 75.5t-16.5 69.5h-2q-8 -37 -18 -71.5l-21 -71.5l-88 -286h-68z
M225 574l122 146h56l122 -146h-56l-94 89l-94 -89h-56z" />
    <glyph glyph-name="Ycircumflex" unicode="&#x176;" horiz-adv-x="603" 
d="M266 309l-240 411h79l197 -341l198 341h77l-240 -411v-309h-71v309zM151 783l122 125h56l122 -125h-56l-94 68l-94 -68h-56z" />
    <glyph glyph-name="ycircumflex" unicode="&#x177;" horiz-adv-x="505" 
d="M38 -150l21.5 -4t24.5 -2q22 0 40 7t35 25.5t33.5 51t35.5 84.5h-24l-178 498h73l153 -441l156 441h71l-183 -498q-26 -71 -48.5 -115t-46.5 -69.5t-52 -34.5t-64 -9q-11 0 -24 1t-23 3v62zM102 574l122 146h56l122 -146h-56l-94 89l-94 -89h-56z" />
    <glyph glyph-name="Ydieresis" unicode="&#x178;" horiz-adv-x="603" 
d="M266 309l-240 411h79l197 -341l198 341h77l-240 -411v-309h-71v309zM165 825q0 18 12 30.5t31 12.5t31 -12.5t12 -30.5t-12 -30.5t-31 -12.5t-31 12.5t-12 30.5zM351 825q0 18 12 30.5t31 12.5t31 -12.5t12 -30.5t-12 -30.5t-31 -12.5t-31 12.5t-12 30.5z" />
    <glyph glyph-name="Zacute" unicode="&#x179;" horiz-adv-x="598" 
d="M41 54l409 601h-387v65h479v-55l-409 -601h414v-64h-506v54zM238 783l96 125h85l-125 -125h-56z" />
    <glyph glyph-name="zacute" unicode="&#x17a;" horiz-adv-x="482" 
d="M32 50l314 401h-295v59h384v-50l-314 -401h319v-59h-408v50zM182 574l96 146h84l-124 -146h-56z" />
    <glyph glyph-name="Zdotaccent" unicode="&#x17b;" horiz-adv-x="598" 
d="M41 54l409 601h-387v65h479v-55l-409 -601h414v-64h-506v54zM343 827q0 -20 -13 -33t-33 -13t-33 13t-13 33t13 33t33 13t33 -13t13 -33z" />
    <glyph glyph-name="zdotaccent" unicode="&#x17c;" horiz-adv-x="482" 
d="M32 50l314 401h-295v59h384v-50l-314 -401h319v-59h-408v50zM287 619q0 -20 -13 -33t-33 -13t-33 13t-13 33t13 33t33 13t33 -13t13 -33z" />
    <glyph glyph-name="Zcaron" unicode="&#x17d;" horiz-adv-x="598" 
d="M41 54l409 601h-387v65h479v-55l-409 -601h414v-64h-506v54zM447 908l-122 -125h-56l-122 125h56l94 -68l94 68h56z" />
    <glyph glyph-name="zcaron" unicode="&#x17e;" horiz-adv-x="482" 
d="M32 50l314 401h-295v59h384v-50l-314 -401h319v-59h-408v50zM391 720l-122 -146h-56l-122 146h56l94 -89l94 89h56z" />
    <glyph glyph-name="longs" unicode="&#x17f;" horiz-adv-x="336" 
d="M25 510h105v72q0 70 30 107t103 37q27 0 59 -6v-59q-27 6 -50 6q-43 0 -58 -22.5t-15 -62.5v-582h-69v451h-105v59z" />
    <glyph glyph-name="uni018F" unicode="&#x18f;" horiz-adv-x="697" 
d="M343 51q47 0 86.5 17t68.5 52t46.5 88.5t20.5 126.5h-435q5 -145 61.5 -214.5t151.5 -69.5zM329 667q-59 0 -111 -20.5t-100 -53.5l-24 63q49 35 112 55.5t129 20.5q67 0 123 -23.5t95.5 -70t61.5 -116t22 -160.5q0 -92 -22 -162t-61.5 -117t-94 -71t-118.5 -24
q-63 0 -115 23.5t-89 70t-57.5 116t-20.5 162.5v36h506q-8 131 -69 201t-167 70z" />
    <glyph glyph-name="florin" unicode="&#x192;" horiz-adv-x="572" 
d="M79 377h159l16 152q8 80 44 121.5t122 41.5q17 0 32.5 -1.5t30.5 -3.5v-59q-15 2 -30 3.5t-28 1.5q-54 0 -75.5 -27.5t-26.5 -76.5l-16 -152h176v-55h-182l-33 -322h-69l33 322h-153v55z" />
    <glyph glyph-name="uni01B5" unicode="&#x1b5;" horiz-adv-x="598" 
d="M116 405h164l170 250h-387v65h479v-55l-177 -260h119v-57h-158l-193 -284h414v-64h-506v54l200 294h-125v57z" />
    <glyph glyph-name="uni01B6" unicode="&#x1b6;" horiz-adv-x="482" 
d="M89 299h138l119 152h-295v59h384v-50l-126 -161h84v-57h-129l-143 -183h319v-59h-408v50l150 192h-93v57z" />
    <glyph glyph-name="Aringacute" unicode="&#x1fa;" horiz-adv-x="673" 
d="M277 857.918l96 87.4717h85l-125 -87.4717h-56zM426 756q0 -45 -35 -69l246 -687h-75l-72 206h-309l-72 -206h-73l249 687q-35 24 -35 69q0 36 25 61t63 25t63 -25t25 -61zM203 267h266l-132 379zM289 756q0 -20 13.5 -33.5t35.5 -13.5t35.5 13.5t13.5 33.5t-13.5 33.5
t-35.5 13.5t-35.5 -13.5t-13.5 -33.5z" />
    <glyph glyph-name="aringacute" unicode="&#x1fb;" horiz-adv-x="521" 
d="M270 463q-47 0 -88.5 -15.5t-82.5 -39.5l-20 56q40 24 91 41t110 17q78 0 122 -38t44 -130v-238q0 -57 3 -81.5t7 -34.5h-65q-5 8 -7.5 22.5t-4.5 43.5q-35 -36 -79 -57t-95 -21q-68 0 -111.5 39t-43.5 116q0 81 57 125t182 44q16 0 37 -1t52 -6v43q0 63 -27 89t-81 26z
M378 253q-30 5 -49.5 6.5t-40.5 1.5q-93 0 -131.5 -28.5t-38.5 -84.5q0 -52 27.5 -77t72.5 -25q48 0 88 23t72 55v129zM223 626q0 -20 13 -33.5t35 -13.5t35 13.5t13 33.5t-13 33.5t-35 13.5t-35 -13.5t-13 -33.5zM358 626q0 -36 -24.5 -61t-62.5 -25t-62.5 25t-24.5 61
t24.5 61t62.5 25t62.5 -25t24.5 -61zM212 727.807l96 102.202h84l-124 -102.202h-56z" />
    <glyph glyph-name="AEacute" unicode="&#x1fc;" horiz-adv-x="933" 
d="M432 720h447v-65h-337v-249h294v-63h-294v-279h339v-64h-410v206h-252l-114 -206h-78zM471 267v393l-218 -393h218zM591 783l96 125h85l-125 -125h-56z" />
    <glyph glyph-name="aeacute" unicode="&#x1fd;" horiz-adv-x="862" 
d="M445 241q1 -51 14 -88t35 -61t52.5 -35.5t67.5 -11.5q42 0 80 13.5t79 38.5l20 -55q-41 -26 -90 -40t-98 -14q-65 0 -115 26t-79 77q-38 -42 -90.5 -72.5t-114.5 -30.5q-33 0 -61.5 10t-49.5 29.5t-33 48.5t-12 67q0 80 57.5 124.5t181.5 44.5q16 0 37 -1t52 -6v43
q0 63 -27 89t-81 26q-47 0 -88.5 -15.5t-82.5 -39.5l-20 56q40 24 91 41t110 17q57 0 95.5 -19t56.5 -64q65 83 174 83q91 0 146 -61.5t55 -181.5v-20q0 -7 -1 -18h-361zM218 46q50 0 93 26.5t79 64.5q-15 48 -15 111v6q-28 4 -48 5.5t-41 1.5q-92 0 -130 -28.5t-38 -83.5
q0 -52 27.5 -77.5t72.5 -25.5zM603 466q-66 0 -108 -44.5t-50 -127.5h295q0 46 -10.5 78.5t-28.5 53.5t-43 30.5t-55 9.5zM398 574l96 146h84l-124 -146h-56z" />
    <glyph glyph-name="Oslashacute" unicode="&#x1fe;" horiz-adv-x="716" 
d="M128 359q0 -119 38 -192l356 429q-30 37 -72 55.5t-93 18.5t-93 -19t-72.5 -57.5t-47 -97t-16.5 -137.5zM588 361q0 119 -38 192l-356 -429q30 -37 72 -55.5t93 -18.5t93 19t72.5 57.5t47 97t16.5 137.5zM657 362q0 -91 -22.5 -161t-63 -117t-95.5 -71.5t-120 -24.5
q-61 0 -113 21.5t-91 63.5l-71 -85l-37 32l77 93q-29 45 -45.5 106t-16.5 139q0 92 23 162t63 117t95 71t120 24q61 0 113 -21.5t91 -63.5l71 85l37 -32l-77 -93q29 -45 45.5 -106.5t16.5 -138.5zM298 783l96 125h85l-125 -125h-56z" />
    <glyph glyph-name="oslashacute" unicode="&#x1ff;" horiz-adv-x="554" 
d="M117 254q0 -75 23 -124l249 287q-22 26 -50.5 37.5t-61.5 11.5t-62.5 -12t-51 -37.5t-34 -66t-12.5 -96.5zM437 256q0 75 -23 124l-249 -287q22 -26 50.5 -37.5t61.5 -11.5t62.5 12t51 37.5t34 66t12.5 96.5zM504 255q0 -68 -18 -118t-49.5 -83t-73 -49.5t-88.5 -16.5
q-44 0 -83 14t-69 43l-60 -69l-32 28l64 74q-21 32 -33 75t-12 100q0 69 18.5 120t49.5 84t72.5 49t88.5 16q44 0 82.5 -14.5t68.5 -43.5l61 70l32 -28l-65 -75q21 -32 33.5 -75.5t12.5 -100.5zM217 574l96 146h84l-124 -146h-56z" />
    <glyph glyph-name="Scommaaccent" unicode="&#x218;" horiz-adv-x="579" 
d="M83 121q45 -31 95 -50.5t106 -19.5q76 0 120.5 37.5t44.5 102.5q0 38 -16 63.5t-41.5 42.5t-59 28.5l-68 23t-67.5 25t-58.5 34t-41.5 51t-16 76.5q0 45 16.5 81.5t45.5 62t70 39.5t90 14q57 0 106.5 -17.5t91.5 -48.5l-23 -67q-41 31 -84.5 50t-94.5 19
q-69 0 -108 -33.5t-39 -90.5q0 -48 27.5 -74.5t68 -43t88.5 -29.5t88.5 -35t68 -59.5t27.5 -101.5q0 -50 -17 -89t-48.5 -67t-75.5 -42.5t-98 -14.5q-61 0 -117.5 18t-104.5 50zM225 -171q24 14 37 28.5t18 28.5q-19 0 -30.5 11.5t-11.5 29.5t11.5 29.5t31.5 11.5
q22 0 37 -15t15 -44q0 -12 -3.5 -26.5t-12.5 -29.5t-25 -30t-40 -28z" />
    <glyph glyph-name="scommaaccent" unicode="&#x219;" horiz-adv-x="454" 
d="M368 413q-30 21 -63.5 36t-70.5 15q-45 0 -70.5 -23t-25.5 -58q0 -32 19.5 -48.5t49.5 -27.5t64 -20t64 -25t49.5 -43t19.5 -73q0 -74 -50.5 -116t-134.5 -42q-47 0 -90 13.5t-79 36.5l20 60q35 -23 73.5 -38t80.5 -15q54 0 83 25t29 67q0 35 -19.5 54t-49.5 31t-64 21
t-64 24t-49.5 40t-19.5 69q0 66 45.5 106t121.5 40q43 0 81 -13t70 -36zM165 -171q24 14 37 28.5t18 28.5q-19 0 -30.5 11.5t-11.5 29.5t11.5 29.5t31.5 11.5q22 0 37 -15t15 -44q0 -12 -3.5 -26.5t-12.5 -29.5t-25 -30t-40 -28z" />
    <glyph glyph-name="uni021A" unicode="&#x21a;" horiz-adv-x="561" 
d="M245 655h-214v65h499v-65h-214v-655h-71v655zM216 -171q24 14 37 28.5t18 28.5q-19 0 -30.5 11.5t-11.5 29.5t11.5 29.5t31.5 11.5q22 0 37 -15t15 -44q0 -12 -3.5 -26.5t-12.5 -29.5t-25 -30t-40 -28z" />
    <glyph glyph-name="uni021B" unicode="&#x21b;" horiz-adv-x="375" 
d="M25 510h105v170h69v-170h135v-59h-135v-313q0 -50 12.5 -67.5t49.5 -17.5q21 0 38.5 4t34.5 9v-61q-18 -4 -38.5 -7.5t-47.5 -3.5q-32 0 -54.5 7t-36.5 22.5t-20.5 41.5t-6.5 65v321h-105v59zM145 -171q24 14 37 28.5t18 28.5q-19 0 -30.5 11.5t-11.5 29.5t11.5 29.5
t31.5 11.5q22 0 37 -15t15 -44q0 -12 -3.5 -26.5t-12.5 -29.5t-25 -30t-40 -28z" />
    <glyph glyph-name="uni0237" unicode="&#x237;" horiz-adv-x="241" 
d="M155 -72q0 -70 -30 -107t-103 -37q-28 0 -59 6v59q27 -6 49 -6q44 0 59 22t15 63v582h69v-582z" />
    <glyph glyph-name="uni0259" unicode="&#x259;" horiz-adv-x="537" 
d="M416 287q-8 90 -51.5 133t-112.5 43q-40 0 -77 -13.5t-75 -38.5l-20 57q38 25 84 39.5t95 14.5q51 0 93 -17t72 -50t46 -82.5t16 -115.5q0 -69 -17.5 -119.5t-47.5 -83.5t-71 -49.5t-87 -16.5q-44 0 -82.5 15t-67 46.5t-44.5 81t-16 118.5v16q0 9 1 22h362zM264 43
q66 0 108 46.5t45 145.5h-296q1 -55 12.5 -91.5t31 -59t45 -32t54.5 -9.5z" />
    <glyph glyph-name="uni02BB" unicode="&#x2bb;" horiz-adv-x="262" 
d="M216 699q-49 -30 -71 -61.5t-27 -60.5h5q24 0 37.5 -14t13.5 -34q0 -21 -13 -35t-36 -14q-26 0 -43 20.5t-17 57.5q0 39 25 86t88 88z" />
    <glyph glyph-name="afii57929" unicode="&#x2bc;" horiz-adv-x="262" 
d="M45 513q49 30 71 61.5t27 60.5h-5q-24 0 -37.5 14t-13.5 34q0 21 13 35t36 14q26 0 43 -20.5t17 -57.5q0 -39 -25 -86t-88 -88z" />
    <glyph glyph-name="circumflex" unicode="&#x2c6;" horiz-adv-x="500" 
d="M100 574l122 146h56l122 -146h-56l-94 89l-94 -89h-56z" />
    <glyph glyph-name="caron" unicode="&#x2c7;" horiz-adv-x="500" 
d="M400 720l-122 -146h-56l-122 146h56l94 -89l94 89h56z" />
    <glyph glyph-name="breve" unicode="&#x2d8;" horiz-adv-x="500" 
d="M250 580q-75 0 -109 37.5t-34 102.5h46q6 -42 25.5 -62.5t71.5 -20.5t71.5 20.5t25.5 62.5h46q0 -65 -34 -102.5t-109 -37.5z" />
    <glyph glyph-name="dotaccent" unicode="&#x2d9;" horiz-adv-x="500" 
d="M296 619q0 -20 -13 -33t-33 -13t-33 13t-13 33t13 33t33 13t33 -13t13 -33z" />
    <glyph glyph-name="ring" unicode="&#x2da;" horiz-adv-x="500" 
d="M202 655q0 -20 13 -33.5t35 -13.5t35 13.5t13 33.5t-13 33.5t-35 13.5t-35 -13.5t-13 -33.5zM337 655q0 -36 -24.5 -61t-62.5 -25t-62.5 25t-24.5 61t24.5 61t62.5 25t62.5 -25t24.5 -61z" />
    <glyph glyph-name="ogonek" unicode="&#x2db;" horiz-adv-x="500" 
d="M324 0q-48 -26 -68.5 -50t-20.5 -50q0 -21 12 -29.5t32 -8.5q6 0 14.5 1t18.5 4l12 -45q-11 -3 -25.5 -4.5t-26.5 -1.5q-45 0 -70.5 19.5t-25.5 55.5q0 29 20 58.5t68 50.5h60z" />
    <glyph glyph-name="tilde" unicode="&#x2dc;" horiz-adv-x="500" 
d="M102 580q0 30 6.5 50t17.5 32t24.5 17.5t28.5 5.5q21 0 40.5 -9t36.5 -19.5t33 -19t30 -8.5t23.5 11t9.5 39h46q0 -30 -6.5 -50t-17.5 -32t-24.5 -17.5t-28.5 -5.5q-21 0 -40.5 8.5t-36.5 19l-33 19.5t-30 9t-23.5 -11t-9.5 -39h-46z" />
    <glyph glyph-name="hungarumlaut" unicode="&#x2dd;" horiz-adv-x="500" 
d="M114 574l95 146h85l-125 -146h-55zM258 574l107 146h84l-136 -146h-55z" />
    <glyph glyph-name="gravecomb" unicode="&#x300;" horiz-adv-x="1" 
d="M253 574l-124 146h84l96 -146h-56z" />
    <glyph glyph-name="acutecomb" unicode="&#x301;" horiz-adv-x="1" 
d="M191 574l96 146h84l-124 -146h-56z" />
    <glyph glyph-name="uni0302" unicode="&#x302;" horiz-adv-x="1" 
d="M100 574l122 146h56l122 -146h-56l-94 89l-94 -89h-56z" />
    <glyph glyph-name="tildecomb" unicode="&#x303;" horiz-adv-x="1" 
d="M102 580q0 30 6.5 50t17.5 32t24.5 17.5t28.5 5.5q21 0 40.5 -9t36.5 -19.5t33 -19t30 -8.5t23.5 11t9.5 39h46q0 -30 -6.5 -50t-17.5 -32t-24.5 -17.5t-28.5 -5.5q-21 0 -40.5 8.5t-36.5 19l-33 19.5t-30 9t-23.5 -11t-9.5 -39h-46z" />
    <glyph glyph-name="uni0304" unicode="&#x304;" horiz-adv-x="1" 
d="M110 642h280v-57h-280v57z" />
    <glyph glyph-name="uni0306" unicode="&#x306;" horiz-adv-x="1" 
d="M250 580q-75 0 -109 37.5t-34 102.5h46q6 -42 25.5 -62.5t71.5 -20.5t71.5 20.5t25.5 62.5h46q0 -65 -34 -102.5t-109 -37.5z" />
    <glyph glyph-name="uni0307" unicode="&#x307;" horiz-adv-x="1" 
d="M296 619q0 -20 -13 -33t-33 -13t-33 13t-13 33t13 33t33 13t33 -13t13 -33z" />
    <glyph glyph-name="uni0308" unicode="&#x308;" horiz-adv-x="1" 
d="M114 622q0 18 12 30.5t31 12.5t31 -12.5t12 -30.5t-12 -30.5t-31 -12.5t-31 12.5t-12 30.5zM300 622q0 18 12 30.5t31 12.5t31 -12.5t12 -30.5t-12 -30.5t-31 -12.5t-31 12.5t-12 30.5z" />
    <glyph glyph-name="uni030A" unicode="&#x30a;" horiz-adv-x="1" 
d="M202 655q0 -20 13 -33.5t35 -13.5t35 13.5t13 33.5t-13 33.5t-35 13.5t-35 -13.5t-13 -33.5zM337 655q0 -36 -24.5 -61t-62.5 -25t-62.5 25t-24.5 61t24.5 61t62.5 25t62.5 -25t24.5 -61z" />
    <glyph glyph-name="uni030B" unicode="&#x30b;" horiz-adv-x="1" 
d="M114 574l95 146h85l-125 -146h-55zM258 574l107 146h84l-136 -146h-55z" />
    <glyph glyph-name="uni030C" unicode="&#x30c;" horiz-adv-x="1" 
d="M400 720l-122 -146h-56l-122 146h56l94 -89l94 89h56z" />
    <glyph glyph-name="uni0312" unicode="&#x312;" horiz-adv-x="1" 
d="M307 712q-24 -14 -37 -28.5t-18 -28.5q19 0 30.5 -11.5t11.5 -29.5t-11.5 -29.5t-31.5 -11.5q-22 0 -37 15t-15 44q0 12 3.5 26.5t12.5 29.5t25 30t40 28z" />
    <glyph glyph-name="uni0313" unicode="&#x313;" horiz-adv-x="1" 
d="M193 608q24 14 37 28.5t18 28.5q-19 0 -30.5 11.5t-11.5 29.5t11.5 29.5t31.5 11.5q22 0 37 -15t15 -44q0 -12 -3.5 -26.5t-12.5 -29.5t-25 -30t-40 -28z" />
    <glyph glyph-name="uni0326" unicode="&#x326;" horiz-adv-x="1" 
d="M193 -171q24 14 37 28.5t18 28.5q-19 0 -30.5 11.5t-11.5 29.5t11.5 29.5t31.5 11.5q22 0 37 -15t15 -44q0 -12 -3.5 -26.5t-12.5 -29.5t-25 -30t-40 -28z" />
    <glyph glyph-name="uni0327" unicode="&#x327;" horiz-adv-x="1" 
d="M349 -99q0 -42 -30.5 -63.5t-80.5 -21.5q-32 0 -52.5 7.5t-35.5 15.5l12 45q16 -8 34 -15t41 -7q53 0 53 40q0 21 -17.5 37.5t-55.5 25.5l13 37q52 -7 85.5 -32t33.5 -69z" />
    <glyph glyph-name="uni0328" unicode="&#x328;" horiz-adv-x="1" 
d="M324 0q-48 -26 -68.5 -50t-20.5 -50q0 -21 12 -29.5t32 -8.5q6 0 14.5 1t18.5 4l12 -45q-11 -3 -25.5 -4.5t-26.5 -1.5q-45 0 -70.5 19.5t-25.5 55.5q0 29 20 58.5t68 50.5h60z" />
    <glyph glyph-name="uni0335" unicode="&#x335;" horiz-adv-x="1" 
d="M64 343h372v-63h-372v63z" />
    <glyph glyph-name="uni0336" unicode="&#x336;" horiz-adv-x="1" 
d="M64 343h872v-63h-872v63z" />
    <glyph glyph-name="uni037E" unicode="&#x37e;" horiz-adv-x="279" 
d="M45 -131q49 30 71 61.5t27 60.5h-5q-24 0 -37.5 14t-13.5 34q0 21 13 35t36 14q26 0 43 -20.5t17 -57.5q0 -39 -25 -86t-88 -88zM188 440q0 -21 -13.5 -35.5t-36.5 -14.5t-36.5 14.5t-13.5 35.5t13.5 35.5t36.5 14.5t36.5 -14.5t13.5 -35.5z" />
    <glyph glyph-name="tonos" unicode="&#x384;" horiz-adv-x="500" 
d="M208 574l56 146h80l-84 -146h-52z" />
    <glyph glyph-name="dieresistonos" unicode="&#x385;" horiz-adv-x="500" 
d="M224 670l37 105h76l-61 -105h-52zM114 615q0 18 12 30.5t31 12.5t31 -12.5t12 -30.5t-12 -30.5t-31 -12.5t-31 12.5t-12 30.5zM300 615q0 18 12 30.5t31 12.5t31 -12.5t12 -30.5t-12 -30.5t-31 -12.5t-31 12.5t-12 30.5z" />
    <glyph glyph-name="Alphatonos" unicode="&#x386;" horiz-adv-x="673" 
d="M45 574l56 146h80l-84 -146h-52zM637 0h-75l-72 206h-309l-72 -206h-73l261 720h83zM203 267h266l-132 379z" />
    <glyph glyph-name="anoteleia" unicode="&#x387;" horiz-adv-x="279" 
d="M190 257q0 -21 -13.5 -35.5t-36.5 -14.5t-36.5 14.5t-13.5 35.5t13.5 35.5t36.5 14.5t36.5 -14.5t13.5 -35.5z" />
    <glyph glyph-name="Epsilontonos" unicode="&#x388;" horiz-adv-x="678" 
d="M-6 574l56 146h80l-84 -146h-52zM185 720h438v-65h-367v-249h323v-63h-323v-279h369v-64h-440v720z" />
    <glyph glyph-name="Etatonos" unicode="&#x389;" horiz-adv-x="793" 
d="M-6 574l56 146h80l-84 -146h-52zM185 720h71v-312h369v312h71v-720h-71v343h-369v-343h-71v720z" />
    <glyph glyph-name="Iotatonos" unicode="&#x38a;" horiz-adv-x="370" 
d="M-6 574l56 146h80l-84 -146h-52zM194 720h71v-720h-71v720z" />
    <glyph glyph-name="Omicrontonos" unicode="&#x38c;" horiz-adv-x="805" 
d="M-6 574l56 146h80l-84 -146h-52zM746 362q0 -91 -22.5 -161t-63 -117t-95.5 -71.5t-120 -24.5q-64 0 -118.5 23.5t-94 70t-62 116t-22.5 160.5q0 92 23 162t63 117t95 71t120 24q64 0 118.5 -24t94 -70.5t62 -116t22.5 -159.5zM675 360q0 78 -16.5 136t-46.5 96t-72 57
t-93 19t-93 -19t-72 -57t-46.5 -96t-16.5 -136t16.5 -136t46.5 -96t72 -57t93 -19t93 19t72 57t46.5 96t16.5 136z" />
    <glyph glyph-name="Upsilontonos" unicode="&#x38e;" horiz-adv-x="717" 
d="M-6 574l56 146h80l-84 -146h-52zM380 309l-240 411h79l197 -341l198 341h77l-240 -411v-309h-71v309z" />
    <glyph glyph-name="Omegatonos" unicode="&#x38f;" horiz-adv-x="801" 
d="M-6 574l56 146h80l-84 -146h-52zM444 732q64 0 119 -23.5t94.5 -67t62 -106t22.5 -141.5q0 -106 -40 -187.5t-114 -142.5h184v-64h-267v55q84 69 125 148.5t41 184.5q0 67 -16.5 119t-46.5 88t-72 54.5t-93 18.5t-93 -18.5t-72 -54.5t-46.5 -88t-16.5 -119
q0 -105 41 -184.5t125 -148.5v-55h-267v64h183q-75 63 -114 142.5t-39 182.5q0 80 22.5 143.5t63 108t95 68t119.5 23.5z" />
    <glyph glyph-name="iotadieresistonos" unicode="&#x390;" horiz-adv-x="275" 
d="M80 510h69v-391q0 -41 13.5 -54t40.5 -13q13 0 26 2t24 5v-59q-12 -3 -28.5 -4.5t-31.5 -1.5q-57 0 -85 24.5t-28 87.5v404zM90 670l37 105h76l-61 -105h-52zM-20 615q0 18 12 30.5t31 12.5t31 -12.5t12 -30.5t-12 -30.5t-31 -12.5t-31 12.5t-12 30.5zM166 615
q0 18 12 30.5t31 12.5t31 -12.5t12 -30.5t-12 -30.5t-31 -12.5t-31 12.5t-12 30.5z" />
    <glyph glyph-name="Alpha" unicode="&#x391;" horiz-adv-x="673" 
d="M637 0h-75l-72 206h-309l-72 -206h-73l261 720h83zM203 267h266l-132 379z" />
    <glyph glyph-name="Beta" unicode="&#x392;" horiz-adv-x="643" 
d="M96 720h223q109 0 171 -46t62 -140q0 -60 -27 -101.5t-84 -61.5q73 -18 107 -65t34 -113q0 -91 -61 -142t-186 -51h-239v720zM335 61q88 0 132.5 33t44.5 105t-44.5 105t-132.5 33h-169v-276h169zM314 396q85 0 126.5 31.5t41.5 99.5q0 69 -41.5 100t-126.5 31h-148v-262
h148z" />
    <glyph glyph-name="Gamma" unicode="&#x393;" horiz-adv-x="530" 
d="M96 720h403v-65h-332v-655h-71v720z" />
    <glyph glyph-name="uni0394" unicode="&#x394;" horiz-adv-x="673" 
d="M617 55v-55h-561v55l241 665h83zM131 64h409l-203 582z" />
    <glyph glyph-name="Epsilon" unicode="&#x395;" horiz-adv-x="588" 
d="M96 720h438v-65h-367v-249h323v-63h-323v-279h369v-64h-440v720z" />
    <glyph glyph-name="Zeta" unicode="&#x396;" horiz-adv-x="598" 
d="M41 54l409 601h-387v65h479v-55l-409 -601h414v-64h-506v54z" />
    <glyph glyph-name="Eta" unicode="&#x397;" horiz-adv-x="703" 
d="M96 720h71v-312h369v312h71v-720h-71v343h-369v-343h-71v720z" />
    <glyph glyph-name="Theta" unicode="&#x398;" horiz-adv-x="716" 
d="M358 52q49 0 90.5 17.5t71.5 52.5t47.5 88t20.5 125h-460q3 -72 20.5 -125t47.5 -88t71 -52.5t91 -17.5zM358 668q-48 0 -88.5 -16.5t-70.5 -50t-48 -84.5t-22 -119h458q-4 68 -22 119t-48 84.5t-70.5 50t-88.5 16.5zM657 362q0 -91 -22.5 -161t-63 -117t-95.5 -71.5
t-120 -24.5q-64 0 -118.5 23.5t-94 70t-62 116t-22.5 160.5q0 92 23 162t63 117t95 71t120 24q64 0 118.5 -24t94 -70.5t62 -116t22.5 -159.5z" />
    <glyph glyph-name="Iota" unicode="&#x399;" horiz-adv-x="281" 
d="M105 720h71v-720h-71v720z" />
    <glyph glyph-name="Kappa" unicode="&#x39a;" horiz-adv-x="643" 
d="M96 720h71v-355l339 355h90l-257 -263l282 -457h-81l-249 408l-124 -127v-281h-71v720z" />
    <glyph glyph-name="Lambda" unicode="&#x39b;" horiz-adv-x="646" 
d="M611 0h-74l-214 626l-215 -626h-72l253 720h72z" />
    <glyph glyph-name="Mu" unicode="&#x39c;" horiz-adv-x="907" 
d="M774 720l55 -720h-73l-29 451q-2 23 -3 50t-2.5 53t-2.5 49.5t-1 38.5h-2q-3 -15 -9.5 -37.5t-15 -47.5l-18 -51.5l-17.5 -48.5l-171 -457h-66l-168 457l-19 52.5t-18 52l-14.5 45.5t-8.5 35h-2q0 -6 -1 -27t-2 -48.5t-3 -56.5t-3 -51l-32 -459h-70l59 720h94l161 -450
l33.5 -97t26.5 -85h2q14 45 29.5 89.5l31.5 88.5l166 454h93z" />
    <glyph glyph-name="Nu" unicode="&#x39d;" horiz-adv-x="709" 
d="M96 720h81l369 -579v579h67v-720h-59l-391 612v-612h-67v720z" />
    <glyph glyph-name="Xi" unicode="&#x39e;" horiz-adv-x="523" 
d="M38 720h446v-65h-446v65zM36 65h450v-65h-450v65zM81 409h360v-64h-360v64z" />
    <glyph glyph-name="Omicron" unicode="&#x39f;" horiz-adv-x="715" 
d="M657 362q0 -91 -22.5 -161t-63 -117t-95.5 -71.5t-120 -24.5q-64 0 -118.5 23.5t-94 70t-62 116t-22.5 160.5q0 92 23 162t63 117t95 71t120 24q64 0 118.5 -24t94 -70.5t62 -116t22.5 -159.5zM586 360q0 78 -16.5 136t-46.5 96t-72 57t-93 19t-93 -19t-72 -57t-46.5 -96
t-16.5 -136t16.5 -136t46.5 -96t72 -57t93 -19t93 19t72 57t46.5 96t16.5 136z" />
    <glyph glyph-name="Pi" unicode="&#x3a0;" horiz-adv-x="703" 
d="M96 720h511v-720h-71v655h-369v-655h-71v720z" />
    <glyph glyph-name="Rho" unicode="&#x3a1;" horiz-adv-x="617" 
d="M96 720h243q112 0 174.5 -51.5t62.5 -154.5q0 -104 -64 -155.5t-179 -51.5h-166v-307h-71v720zM167 371h166q87 0 129.5 34t42.5 108t-42.5 108t-129.5 34h-166v-284z" />
    <glyph glyph-name="Sigma" unicode="&#x3a3;" horiz-adv-x="560" 
d="M49 54l254 310l-232 301v55h454v-65h-362l224 -290l-246 -301h387v-64h-479v54z" />
    <glyph glyph-name="Tau" unicode="&#x3a4;" horiz-adv-x="561" 
d="M245 655h-214v65h499v-65h-214v-655h-71v655z" />
    <glyph glyph-name="Upsilon" unicode="&#x3a5;" horiz-adv-x="603" 
d="M266 309l-240 411h79l197 -341l198 341h77l-240 -411v-309h-71v309z" />
    <glyph glyph-name="Phi" unicode="&#x3a6;" horiz-adv-x="790" 
d="M360 71q-66 4 -121.5 24.5t-95.5 56.5t-62 87.5t-22 118.5t22 119t62 88.5t95.5 57.5t121.5 26v83h70v-83q66 -4 121.5 -24.5t95 -56.5t62 -87.5t22.5 -118.5t-22.5 -119t-62 -89t-95 -58t-121.5 -25v-83h-70v83zM661 359q0 55 -16.5 96t-47 69.5t-73 44.5t-94.5 20v-460
q52 4 94.5 19.5t73 44t47 70t16.5 96.5zM129 359q0 -55 16.5 -96.5t47 -70t73 -44t94.5 -19.5v460q-52 -4 -94.5 -20t-73 -44.5t-47 -69.5t-16.5 -96z" />
    <glyph glyph-name="Chi" unicode="&#x3a7;" horiz-adv-x="625" 
d="M267 371l-219 349h81l184 -297l183 297h80l-220 -349l234 -371h-81l-199 319l-197 -319h-80z" />
    <glyph glyph-name="Psi" unicode="&#x3a8;" horiz-adv-x="776" 
d="M353 250q-151 7 -222.5 74t-71.5 201v195h70v-192q0 -106 53 -158t171 -58v408h70v-408q120 6 173 58t53 158v192h68v-192q0 -136 -71.5 -203t-222.5 -75v-250h-70v250z" />
    <glyph glyph-name="uni03A9" unicode="&#x3a9;" horiz-adv-x="716" 
d="M359 732q64 0 119 -23.5t94.5 -67t62 -106t22.5 -141.5q0 -106 -40 -187.5t-114 -142.5h184v-64h-267v55q84 69 125 148.5t41 184.5q0 67 -16.5 119t-46.5 88t-72 54.5t-93 18.5t-93 -18.5t-72 -54.5t-46.5 -88t-16.5 -119q0 -105 41 -184.5t125 -148.5v-55h-267v64h183
q-75 63 -114 142.5t-39 182.5q0 80 22.5 143.5t63 108t95 68t119.5 23.5z" />
    <glyph glyph-name="Iotadieresis" unicode="&#x3aa;" horiz-adv-x="281" 
d="M105 720h71v-720h-71v720zM6 825q0 18 12 30.5t31 12.5t31 -12.5t12 -30.5t-12 -30.5t-31 -12.5t-31 12.5t-12 30.5zM192 825q0 18 12 30.5t31 12.5t31 -12.5t12 -30.5t-12 -30.5t-31 -12.5t-31 12.5t-12 30.5z" />
    <glyph glyph-name="Upsilondieresis" unicode="&#x3ab;" horiz-adv-x="603" 
d="M266 309l-240 411h79l197 -341l198 341h77l-240 -411v-309h-71v309zM165 825q0 18 12 30.5t31 12.5t31 -12.5t12 -30.5t-12 -30.5t-31 -12.5t-31 12.5t-12 30.5zM351 825q0 18 12 30.5t31 12.5t31 -12.5t12 -30.5t-12 -30.5t-31 -12.5t-31 12.5t-12 30.5z" />
    <glyph glyph-name="alphatonos" unicode="&#x3ac;" horiz-adv-x="661" 
d="M612 510l-61 -135.5l-53 -111.5l112 -263h-73l-78 190q-33 -60 -60.5 -99t-54 -62t-52.5 -32t-56 -9q-85 0 -135.5 63.5t-50.5 184.5q0 68 17 121.5t46 90t68 55.5t83 19q29 0 54 -9.5t49 -31.5t47.5 -59t49.5 -91l36 82l42 97h70zM242 47q21 0 41 9t42 32.5t48 64.5
t58 106q-27 60 -48 99.5t-40.5 62t-39 31.5t-41.5 9q-32 0 -58 -15t-45 -43.5t-29.5 -69t-10.5 -91.5q0 -95 34 -145t89 -50zM251 574l56 146h80l-84 -146h-52z" />
    <glyph glyph-name="epsilontonos" unicode="&#x3ad;" horiz-adv-x="463" 
d="M398 413q-32 21 -68 36t-79 15q-54 0 -85 -24.5t-31 -62.5t31 -62t85 -24h81v-57h-73q-29 0 -54.5 -5.5t-44.5 -17t-30 -29.5t-11 -43q0 -47 37.5 -70.5t93.5 -23.5q45 0 81.5 14t70.5 36l21 -55q-35 -22 -80.5 -37t-101.5 -15q-38 0 -73 8.5t-61 25.5t-41.5 44t-15.5 63
q0 50 28.5 83t79.5 48q-92 29 -92 115q0 32 13 59t37 46.5t58.5 30.5t78.5 11q51 0 92 -14t74 -34zM200 574l56 146h80l-84 -146h-52z" />
    <glyph glyph-name="etatonos" unicode="&#x3ae;" horiz-adv-x="567" 
d="M80 510h69v-79q37 37 89 64t115 27q28 0 53.5 -7.5t44.5 -24t30 -43.5t11 -67v-590h-69v576q0 53 -24.5 73.5t-64.5 20.5q-53 0 -99.5 -26.5t-85.5 -63.5v-370h-69v510zM243 574l56 146h80l-84 -146h-52z" />
    <glyph glyph-name="iotatonos" unicode="&#x3af;" horiz-adv-x="275" 
d="M80 510h69v-391q0 -41 13.5 -54t40.5 -13q13 0 26 2t24 5v-59q-12 -3 -28.5 -4.5t-31.5 -1.5q-57 0 -85 24.5t-28 87.5v404zM74 574l56 146h80l-84 -146h-52z" />
    <glyph glyph-name="upsilondieresistonos" unicode="&#x3b0;" horiz-adv-x="559" 
d="M447 510q29 -52 41 -114.5t12 -123.5q0 -77 -17.5 -131t-47.5 -88t-71 -49.5t-89 -15.5q-43 0 -79.5 12t-63 37.5t-41.5 65t-15 94.5v313h69v-313q0 -80 37 -115t93 -35q32 0 60.5 11.5t49.5 38t33.5 70t12.5 107.5q0 59 -12.5 121.5t-44.5 114.5h73zM246 670l37 105h76
l-61 -105h-52zM136 615q0 18 12 30.5t31 12.5t31 -12.5t12 -30.5t-12 -30.5t-31 -12.5t-31 12.5t-12 30.5zM322 615q0 18 12 30.5t31 12.5t31 -12.5t12 -30.5t-12 -30.5t-31 -12.5t-31 12.5t-12 30.5z" />
    <glyph glyph-name="alpha" unicode="&#x3b1;" horiz-adv-x="661" 
d="M612 510l-61 -135.5l-53 -111.5l112 -263h-73l-78 190q-33 -60 -60.5 -99t-54 -62t-52.5 -32t-56 -9q-85 0 -135.5 63.5t-50.5 184.5q0 68 17 121.5t46 90t68 55.5t83 19q29 0 54 -9.5t49 -31.5t47.5 -59t49.5 -91l36 82l42 97h70zM242 47q21 0 41 9t42 32.5t48 64.5
t58 106q-27 60 -48 99.5t-40.5 62t-39 31.5t-41.5 9q-32 0 -58 -15t-45 -43.5t-29.5 -69t-10.5 -91.5q0 -95 34 -145t89 -50z" />
    <glyph glyph-name="beta" unicode="&#x3b2;" horiz-adv-x="576" 
d="M149 -210h-69v724q0 56 16 97t44.5 68t66 40t81.5 13q40 0 75 -11t60.5 -33.5t40.5 -55.5t15 -76q0 -65 -32.5 -103t-89.5 -59q83 -23 126.5 -76t43.5 -133q0 -48 -16 -85t-44 -62t-66 -37.5t-83 -12.5q-96 0 -169 60v-258zM244 421q35 0 65.5 7t53 22.5t35.5 40.5t13 61
q0 31 -9.5 54t-26 38t-39.5 22.5t-49 7.5q-29 0 -54 -8.5t-43.5 -27.5t-29.5 -48t-11 -69v-409q36 -31 77.5 -48t88.5 -17q64 0 103.5 34t39.5 106q0 87 -58.5 131t-155.5 44v59z" />
    <glyph glyph-name="gamma" unicode="&#x3b3;" horiz-adv-x="498" 
d="M398 477q0 9 -0.5 16.5t-2.5 16.5h69q1 -10 1.5 -19t0.5 -20q0 -43 -10.5 -90.5t-27 -95t-36.5 -92t-40 -82.5t-37.5 -67t-27.5 -44v-211h-69v127q0 47 -9 101t-24.5 110t-35 111.5t-41 105.5t-43 93t-40.5 73h75q28 -44 53.5 -99.5t46.5 -113.5t36.5 -115t22.5 -104
l40 72t46 97t37.5 112t15.5 118z" />
    <glyph glyph-name="delta" unicode="&#x3b4;" horiz-adv-x="562" 
d="M450 613q-38 26 -78 43.5t-82 17.5t-65.5 -17t-23.5 -43q0 -27 23 -50t57.5 -47l75 -51.5t75 -63.5t57.5 -83t23 -110q0 -53 -17.5 -94.5t-48.5 -69.5t-73.5 -42.5t-92.5 -14.5q-49 0 -91 14.5t-73 42t-48.5 69t-17.5 95.5t17 94.5t45.5 70.5t65 50.5t74.5 34.5
q-24 16 -45.5 33t-38 36t-26 40t-9.5 45q0 27 12 49t33.5 37.5t50.5 24t64 8.5q49 0 94 -16.5t83 -42.5zM444 208q0 38 -11 68t-30 55t-45 47t-56 44q-27 -9 -59 -24t-59.5 -40t-46 -61t-18.5 -88q0 -41 12 -71.5t33.5 -50.5t51.5 -30.5t65 -10.5t65 10.5t51.5 30.5t34 50.5
t12.5 70.5z" />
    <glyph glyph-name="epsilon" unicode="&#x3b5;" horiz-adv-x="463" 
d="M398 413q-32 21 -68 36t-79 15q-54 0 -85 -24.5t-31 -62.5t31 -62t85 -24h81v-57h-73q-29 0 -54.5 -5.5t-44.5 -17t-30 -29.5t-11 -43q0 -47 37.5 -70.5t93.5 -23.5q45 0 81.5 14t70.5 36l21 -55q-35 -22 -80.5 -37t-101.5 -15q-38 0 -73 8.5t-61 25.5t-41.5 44t-15.5 63
q0 50 28.5 83t79.5 48q-92 29 -92 115q0 32 13 59t37 46.5t58.5 30.5t78.5 11q51 0 92 -14t74 -34z" />
    <glyph glyph-name="zeta" unicode="&#x3b6;" horiz-adv-x="459" 
d="M68 720h340v-49q-57 -57 -109.5 -117t-92.5 -120t-63.5 -119t-23.5 -113q0 -41 13 -66t34.5 -40.5t49 -23.5t56.5 -13.5l56.5 -11t49 -16t34.5 -29t13 -49.5q0 -36 -15 -64.5t-30 -50.5l-50 22q14 20 25 39t11 39q0 28 -23.5 40t-58.5 19.5t-76 15.5t-76 27t-58.5 54
t-23.5 98q0 60 23 120t61 119.5t87 117.5l102 115q-34 -2 -59 -2.5t-48 -0.5h-148v59z" />
    <glyph glyph-name="eta" unicode="&#x3b7;" horiz-adv-x="567" 
d="M80 510h69v-79q37 37 89 64t115 27q28 0 53.5 -7.5t44.5 -24t30 -43.5t11 -67v-590h-69v576q0 53 -24.5 73.5t-64.5 20.5q-53 0 -99.5 -26.5t-85.5 -63.5v-370h-69v510z" />
    <glyph glyph-name="theta" unicode="&#x3b8;" horiz-adv-x="546" 
d="M273 46q34 0 62.5 17t48.5 53t31.5 93t12.5 137h-310q1 -80 12.5 -137t31.5 -93t48 -53t63 -17zM273 674q-65 0 -106.5 -63.5t-47.5 -204.5h308q-6 141 -47.5 204.5t-106.5 63.5zM496 362q0 -96 -16.5 -166.5t-46.5 -116.5t-71.5 -68.5t-90.5 -22.5q-48 0 -89 22
t-70 67.5t-45.5 115.5t-16.5 165q0 96 16.5 166.5t46.5 116.5t71.5 68.5t90.5 22.5q48 0 89 -22t70 -67.5t45.5 -115.5t16.5 -165z" />
    <glyph glyph-name="iota" unicode="&#x3b9;" horiz-adv-x="275" 
d="M80 510h69v-391q0 -41 13.5 -54t40.5 -13q13 0 26 2t24 5v-59q-12 -3 -28.5 -4.5t-31.5 -1.5q-57 0 -85 24.5t-28 87.5v404z" />
    <glyph glyph-name="kappa" unicode="&#x3ba;" horiz-adv-x="524" 
d="M230 285l-81 -85v-200h-69v510h69v-233l107.5 120t76 73t64.5 36t73 10v-59q-24 0 -43.5 -5t-40.5 -19t-47.5 -38.5t-63.5 -63.5l220 -331h-76z" />
    <glyph glyph-name="lambda" unicode="&#x3bb;" horiz-adv-x="520" 
d="M87 720q8 3 22.5 5t31.5 2q47 0 73 -20.5t43 -71.5l183 -530q11 -30 21.5 -41t32.5 -11q6 0 13 1t13 3v-58q-13 -5 -41 -5q-41 0 -62.5 19.5t-39.5 70.5l-121 344l-174 -428h-70l203 486h22l-43 128q-11 32 -25.5 43t-39.5 11q-13 0 -23.5 -2t-18.5 -4v58z" />
    <glyph glyph-name="uni03BC" unicode="&#x3bc;" horiz-adv-x="572" 
d="M80 -210v720h69v-368q0 -53 24.5 -73.5t64.5 -20.5q53 0 99.5 26.5t85.5 63.5v372h69v-510h-69v79q-17 -18 -39.5 -34t-48.5 -29t-54 -20.5t-57 -7.5q-25 0 -46.5 5.5t-37.5 15.5q5 -65 6.5 -116t1.5 -103h-68z" />
    <glyph glyph-name="nu" unicode="&#x3bd;" horiz-adv-x="505" 
d="M25 510h73l160 -434l37.5 67t46.5 96.5t39.5 114t16.5 119.5q0 12 -0.5 20.5t-2.5 16.5h69q2 -8 2.5 -16.5t0.5 -19.5q0 -43 -10.5 -90.5t-27 -95t-36.5 -92.5t-40 -83.5t-37.5 -68t-28.5 -44.5h-71z" />
    <glyph glyph-name="xi" unicode="&#x3be;" horiz-adv-x="459" 
d="M340 348q-108 0 -164.5 -39t-56.5 -117q0 -51 22.5 -77t56.5 -38.5t74 -17.5t74 -14.5t56.5 -29.5t22.5 -62q0 -36 -15 -64.5t-30 -50.5l-50 22q14 20 25 39.5t11 39.5q0 28 -23.5 40.5t-58.5 19.5t-76 14t-76 24.5t-58.5 51.5t-23.5 95q0 72 37.5 119t112.5 72
q-61 18 -94.5 55t-33.5 94q0 47 23.5 83.5t65 61.5t98.5 38t123 13v-59q-54 0 -98 -8t-76 -25t-49.5 -43t-17.5 -61q0 -57 45 -87t128 -30h52v-59h-26z" />
    <glyph glyph-name="omicron" unicode="&#x3bf;" horiz-adv-x="554" 
d="M119 255q0 -56 12.5 -95.5t33.5 -64.5t50 -37t62 -12t62 12t50 37t33.5 64.5t12.5 95.5q0 55 -12.5 95t-33.5 65t-50 37t-62 12t-62 -12t-50 -37t-33.5 -65t-12.5 -95zM504 257q0 -69 -18 -119.5t-49.5 -83.5t-73 -49.5t-88.5 -16.5q-46 0 -87 15.5t-71.5 48t-48.5 82.5
t-18 119t18.5 120t49.5 84t72.5 49t88.5 16q46 0 87 -16t71.5 -48.5t48.5 -82.5t18 -118z" />
    <glyph glyph-name="pi" unicode="&#x3c0;" horiz-adv-x="636" 
d="M26 510h569v-59h-92v-335q0 -40 11 -52t35 -12q13 0 24.5 2t21.5 5v-59q-11 -3 -27 -4.5t-30 -1.5q-52 0 -78 24t-26 85v348h-247q0 -126 -4 -238.5t-12 -212.5h-71q10 100 14 212.5t4 238.5h-92v59z" />
    <glyph glyph-name="rho" unicode="&#x3c1;" horiz-adv-x="566" 
d="M296 -12q-84 0 -151 54v-252h-69v486q0 63 17 109t46 76.5t69 45.5t85 15q46 0 87 -16t71 -48t47.5 -82t17.5 -117q0 -66 -17 -116.5t-46.5 -85t-69.5 -52t-87 -17.5zM145 105q32 -28 68.5 -43t76.5 -15q71 0 114 51t43 156q0 54 -12 93.5t-33 64.5t-49.5 37t-61.5 12
q-30 0 -57 -10t-46.5 -31t-31 -54t-11.5 -79v-182z" />
    <glyph glyph-name="sigma1" unicode="&#x3c2;" horiz-adv-x="459" 
d="M330 -140q14 20 25 39.5t11 39.5q0 29 -23.5 41t-58.5 19l-76 15.5t-76 30t-58.5 63t-23.5 114.5q0 75 26.5 130.5t73 92t110.5 54t138 17.5v-59q-62 0 -113.5 -13.5t-88.5 -42t-57 -71.5t-20 -102q0 -64 22.5 -97.5t56.5 -49.5t74 -21.5t74 -14.5t56.5 -28.5t22.5 -62.5
q0 -36 -14 -64t-31 -52z" />
    <glyph glyph-name="sigma" unicode="&#x3c3;" horiz-adv-x="567" 
d="M534 451h-138q48 -38 78 -89.5t30 -130.5q0 -60 -18 -105t-48.5 -76t-72 -46.5t-87.5 -15.5q-48 0 -89.5 16.5t-72 49t-48.5 80t-18 110.5q0 69 21.5 119t59 82.5t89 48.5t111.5 16h203v-59zM435 232q0 80 -32.5 132t-84.5 87q-94 -5 -146.5 -53t-52.5 -152
q0 -51 12.5 -88.5t34 -62.5t50.5 -37.5t63 -12.5q31 0 59.5 11t50 34t34 58t12.5 84z" />
    <glyph glyph-name="tau" unicode="&#x3c4;" horiz-adv-x="450" 
d="M26 510h398v-59h-170v-332q0 -41 13.5 -54t40.5 -13q13 0 26 2t24 5v-59q-12 -3 -28.5 -4.5t-31.5 -1.5q-57 0 -85 24.5t-28 87.5v345h-159v59z" />
    <glyph glyph-name="upsilon" unicode="&#x3c5;" horiz-adv-x="559" 
d="M447 510q29 -52 41 -114.5t12 -123.5q0 -77 -17.5 -131t-47.5 -88t-71 -49.5t-89 -15.5q-43 0 -79.5 12t-63 37.5t-41.5 65t-15 94.5v313h69v-313q0 -80 37 -115t93 -35q32 0 60.5 11.5t49.5 38t33.5 70t12.5 107.5q0 59 -12.5 121.5t-44.5 114.5h73z" />
    <glyph glyph-name="phi" unicode="&#x3c6;" horiz-adv-x="688" 
d="M638 266q0 -73 -20 -123.5t-55.5 -83.5t-83.5 -49.5t-104 -21.5v-198h-67v199q-56 4 -103 22t-81.5 51t-54 81t-19.5 112q0 82 31 147.5t82 113.5l59 -24q-51 -48 -77.5 -106t-26.5 -129q0 -52 14.5 -90t40 -63.5t60 -39.5t75.5 -18v314q0 42 11.5 73t31 50.5t46 29
t55.5 9.5q42 0 76.5 -18t58.5 -51t37.5 -80.5t13.5 -106.5zM375 45q47 5 83.5 20t61 41t37.5 65.5t13 94.5q0 91 -32.5 143.5t-84.5 52.5q-32 0 -55 -23t-23 -77v-317z" />
    <glyph glyph-name="chi" unicode="&#x3c7;" horiz-adv-x="532" 
d="M87 -210h-72l209 381l-108 232q-15 32 -27.5 43t-33.5 11q-6 0 -13.5 -1t-13.5 -3v58q15 5 41 5q42 0 63.5 -19t42.5 -66l90 -204l1 1l150 282h72l-186 -339l127 -274q15 -32 29 -43t34 -11q6 0 13.5 1t14.5 3v-58q-17 -5 -43 -5q-20 0 -35 4.5t-27 14t-22.5 26
t-21.5 40.5l-111 245z" />
    <glyph glyph-name="psi" unicode="&#x3c8;" horiz-adv-x="703" 
d="M321 -11q-53 3 -98 18.5t-78 45.5t-51.5 74.5t-18.5 106.5v276h67v-276q0 -48 14 -82.5t38 -57t56.5 -34.5t70.5 -15v675h68v-674q42 5 76.5 18.5t58.5 40t37.5 68t13.5 102.5q0 57 -13 120t-42 115h71q15 -28 24.5 -59t15.5 -61.5t8.5 -60.5t2.5 -55q0 -74 -18 -125.5
t-51 -85t-80 -51t-104 -22.5v-200h-68v199z" />
    <glyph glyph-name="omega" unicode="&#x3c9;" horiz-adv-x="709" 
d="M567 510q44 -54 68 -125t24 -153q0 -63 -14 -109t-37.5 -76t-55.5 -44.5t-68 -14.5q-47 0 -78 24t-52 75q-19 -48 -50 -73.5t-80 -25.5q-35 0 -66.5 14.5t-55.5 44t-38 75.5t-14 109q0 83 24 154t68 125h73q-48 -54 -73 -125.5t-25 -153.5q0 -98 32.5 -141t78.5 -43
q41 0 66.5 33t25.5 108v134h69v-134q0 -75 25.5 -108t66.5 -33q46 0 78.5 43t32.5 141q0 82 -25 153.5t-73 125.5h73z" />
    <glyph glyph-name="iotadieresis" unicode="&#x3ca;" horiz-adv-x="275" 
d="M80 510h69v-391q0 -41 13.5 -54t40.5 -13q13 0 26 2t24 5v-59q-12 -3 -28.5 -4.5t-31.5 -1.5q-57 0 -85 24.5t-28 87.5v404zM-20 622q0 18 12 30.5t31 12.5t31 -12.5t12 -30.5t-12 -30.5t-31 -12.5t-31 12.5t-12 30.5zM166 622q0 18 12 30.5t31 12.5t31 -12.5t12 -30.5
t-12 -30.5t-31 -12.5t-31 12.5t-12 30.5z" />
    <glyph glyph-name="upsilondieresis" unicode="&#x3cb;" horiz-adv-x="559" 
d="M447 510q29 -52 41 -114.5t12 -123.5q0 -77 -17.5 -131t-47.5 -88t-71 -49.5t-89 -15.5q-43 0 -79.5 12t-63 37.5t-41.5 65t-15 94.5v313h69v-313q0 -80 37 -115t93 -35q32 0 60.5 11.5t49.5 38t33.5 70t12.5 107.5q0 59 -12.5 121.5t-44.5 114.5h73zM136 622
q0 18 12 30.5t31 12.5t31 -12.5t12 -30.5t-12 -30.5t-31 -12.5t-31 12.5t-12 30.5zM322 622q0 18 12 30.5t31 12.5t31 -12.5t12 -30.5t-12 -30.5t-31 -12.5t-31 12.5t-12 30.5z" />
    <glyph glyph-name="omicrontonos" unicode="&#x3cc;" horiz-adv-x="554" 
d="M119 255q0 -56 12.5 -95.5t33.5 -64.5t50 -37t62 -12t62 12t50 37t33.5 64.5t12.5 95.5q0 55 -12.5 95t-33.5 65t-50 37t-62 12t-62 -12t-50 -37t-33.5 -65t-12.5 -95zM504 257q0 -69 -18 -119.5t-49.5 -83.5t-73 -49.5t-88.5 -16.5q-46 0 -87 15.5t-71.5 48t-48.5 82.5
t-18 119t18.5 120t49.5 84t72.5 49t88.5 16q46 0 87 -16t71.5 -48.5t48.5 -82.5t18 -118zM234 574l56 146h80l-84 -146h-52z" />
    <glyph glyph-name="upsilontonos" unicode="&#x3cd;" horiz-adv-x="559" 
d="M447 510q29 -52 41 -114.5t12 -123.5q0 -77 -17.5 -131t-47.5 -88t-71 -49.5t-89 -15.5q-43 0 -79.5 12t-63 37.5t-41.5 65t-15 94.5v313h69v-313q0 -80 37 -115t93 -35q32 0 60.5 11.5t49.5 38t33.5 70t12.5 107.5q0 59 -12.5 121.5t-44.5 114.5h73zM230 574l56 146h80
l-84 -146h-52z" />
    <glyph glyph-name="omegatonos" unicode="&#x3ce;" horiz-adv-x="709" 
d="M567 510q44 -54 68 -125t24 -153q0 -63 -14 -109t-37.5 -76t-55.5 -44.5t-68 -14.5q-47 0 -78 24t-52 75q-19 -48 -50 -73.5t-80 -25.5q-35 0 -66.5 14.5t-55.5 44t-38 75.5t-14 109q0 83 24 154t68 125h73q-48 -54 -73 -125.5t-25 -153.5q0 -98 32.5 -141t78.5 -43
q41 0 66.5 33t25.5 108v134h69v-134q0 -75 25.5 -108t66.5 -33q46 0 78.5 43t32.5 141q0 82 -25 153.5t-73 125.5h73zM316 574l56 146h80l-84 -146h-52z" />
    <glyph glyph-name="uni0400" unicode="&#x400;" horiz-adv-x="588" 
d="M96 720h438v-65h-367v-249h323v-63h-323v-279h369v-64h-440v720zM318 783l-125 125h85l96 -125h-56z" />
    <glyph glyph-name="afii10023" unicode="&#x401;" horiz-adv-x="588" 
d="M96 720h438v-65h-367v-249h323v-63h-323v-279h369v-64h-440v720zM179 825q0 18 12 30.5t31 12.5t31 -12.5t12 -30.5t-12 -30.5t-31 -12.5t-31 12.5t-12 30.5zM365 825q0 18 12 30.5t31 12.5t31 -12.5t12 -30.5t-12 -30.5t-31 -12.5t-31 12.5t-12 30.5z" />
    <glyph glyph-name="afii10051" unicode="&#x402;" horiz-adv-x="777" 
d="M31 720h499v-65h-225v-236q60 20 108.5 26.5t81.5 6.5q108 0 165 -56.5t57 -171.5q0 -117 -58 -173.5t-164 -56.5q-12 0 -32 1t-38 4v65q17 -4 36.5 -5.5t33.5 -1.5q75 0 113 39.5t38 127.5q0 87 -39.5 125t-124.5 38q-35 0 -79 -7t-98 -24v-356h-71v655h-203v65z" />
    <glyph glyph-name="afii10052" unicode="&#x403;" horiz-adv-x="530" 
d="M96 720h403v-65h-332v-655h-71v720zM247 783l96 125h85l-125 -125h-56z" />
    <glyph glyph-name="afii10053" unicode="&#x404;" horiz-adv-x="607" 
d="M558 57q-39 -30 -90 -49.5t-113 -19.5q-64 0 -118.5 23t-94 69t-61.5 114.5t-22 159.5q0 92 23 162.5t64 118.5t97.5 72.5t123.5 24.5q57 0 103.5 -17t84.5 -46l-23 -67q-38 29 -78 47.5t-92 18.5q-48 0 -88.5 -16.5t-70.5 -50.5t-49 -84.5t-23 -118.5h332v-63h-333
q3 -72 21 -125.5t48.5 -88.5t71.5 -52.5t90 -17.5q51 0 91.5 17.5t81.5 49.5z" />
    <glyph glyph-name="afii10054" unicode="&#x405;" horiz-adv-x="579" 
d="M83 121q45 -31 95 -50.5t106 -19.5q76 0 120.5 37.5t44.5 102.5q0 38 -16 63.5t-41.5 42.5t-59 28.5l-68 23t-67.5 25t-58.5 34t-41.5 51t-16 76.5q0 45 16.5 81.5t45.5 62t70 39.5t90 14q57 0 106.5 -17.5t91.5 -48.5l-23 -67q-41 31 -84.5 50t-94.5 19
q-69 0 -108 -33.5t-39 -90.5q0 -48 27.5 -74.5t68 -43t88.5 -29.5t88.5 -35t68 -59.5t27.5 -101.5q0 -50 -17 -89t-48.5 -67t-75.5 -42.5t-98 -14.5q-61 0 -117.5 18t-104.5 50z" />
    <glyph glyph-name="afii10055" unicode="&#x406;" horiz-adv-x="281" 
d="M105 720h71v-720h-71v720z" />
    <glyph glyph-name="afii10056" unicode="&#x407;" horiz-adv-x="281" 
d="M105 720h71v-720h-71v720zM6 825q0 18 12 30.5t31 12.5t31 -12.5t12 -30.5t-12 -30.5t-31 -12.5t-31 12.5t-12 30.5zM192 825q0 18 12 30.5t31 12.5t31 -12.5t12 -30.5t-12 -30.5t-31 -12.5t-31 12.5t-12 30.5z" />
    <glyph glyph-name="afii10057" unicode="&#x408;" horiz-adv-x="405" 
d="M31 69q20 -5 43.5 -8t44.5 -3q37 0 62 9.5t39 28.5t20 46t6 62v516h71v-516q0 -51 -10 -90t-33 -66t-60 -40.5t-90 -13.5q-22 0 -47.5 2t-45.5 7v66z" />
    <glyph glyph-name="afii10058" unicode="&#x409;" horiz-adv-x="1040" 
d="M518 0v655h-259l-20 -312q-6 -92 -17.5 -157.5t-34.5 -108.5t-61 -63t-96 -20q-12 0 -18.5 0.5t-11.5 1.5v64q4 -1 10 -1.5t15 -0.5q40 0 65.5 16t41.5 51.5t24 91t13 133.5l24 370h396v-314h173q112 0 174 -50t62 -153t-63.5 -153t-177.5 -50h-239zM757 62
q85 0 127.5 33.5t42.5 107.5q0 73 -42.5 106.5t-127.5 33.5h-168v-281h168z" />
    <glyph glyph-name="afii10059" unicode="&#x40a;" horiz-adv-x="1037" 
d="M515 0v343h-349v-343h-70v720h70v-313h349v313h71v-313h173q112 0 174 -50.5t62 -153.5t-63.5 -153t-178.5 -50h-238zM753 62q86 0 128.5 33.5t42.5 107.5q0 73 -42.5 106.5t-128.5 33.5h-167v-281h167z" />
    <glyph glyph-name="afii10060" unicode="&#x40b;" horiz-adv-x="777" 
d="M31 720h499v-65h-225v-236q58 19 105.5 26t86.5 7q49 0 89.5 -10t69.5 -34t45 -63.5t16 -97.5v-247h-71v236q0 44 -12.5 73t-34.5 46.5t-52 24.5t-65 7t-79 -7t-98 -24v-356h-71v655h-203v65z" />
    <glyph glyph-name="afii10061" unicode="&#x40c;" horiz-adv-x="643" 
d="M96 720h71v-316h73q25 0 41.5 4t29 13t21.5 23t19 34l57 116q17 34 32.5 59t35.5 41t47.5 24t67.5 8v-63q-25 0 -41.5 -4.5t-29 -13.5t-21.5 -23t-19 -33l-57 -115q-18 -36 -37 -60.5t-53 -38.5q28 -8 50.5 -21t41 -31.5t34.5 -42.5t33 -54l129 -226h-80l-117 205
q-20 36 -38.5 61.5t-39 42.5t-45.5 25t-59 8h-75v-342h-71v720zM273 783l96 125h85l-125 -125h-56z" />
    <glyph glyph-name="uni040D" unicode="&#x40d;" horiz-adv-x="709" 
d="M357 783l-125 125h85l96 -125h-56zM613 0h-68v594l-384 -594h-65v720h68v-594l384 594h65v-720z" />
    <glyph glyph-name="afii10062" unicode="&#x40e;" horiz-adv-x="603" 
d="M26 720h77l199 -422l199 422h76l-228 -477q-34 -70 -62 -117.5t-57 -77t-61.5 -42t-75.5 -12.5q-11 0 -26 1t-29 3v66q25 -6 55 -6q28 0 49 6.5t41 26.5t42 56.5t51 95.5h-23zM301 829q48 0 67.5 22t19.5 57h56q0 -59 -34 -92t-109 -33t-109 33t-34 92h56q0 -35 19.5 -57
t67.5 -22z" />
    <glyph glyph-name="afii10145" unicode="&#x40f;" horiz-adv-x="703" 
d="M607 0h-221v-154h-69v154h-221v720h71v-656h369v656h71v-720z" />
    <glyph glyph-name="afii10017" unicode="&#x410;" horiz-adv-x="673" 
d="M637 0h-75l-72 206h-309l-72 -206h-73l261 720h83zM203 267h266l-132 379z" />
    <glyph glyph-name="afii10018" unicode="&#x411;" horiz-adv-x="617" 
d="M96 0v720h416v-65h-345v-249h173q112 0 174 -50t62 -153t-63.5 -153t-177.5 -50h-239zM335 62q85 0 127.5 33.5t42.5 107.5q0 73 -42.5 106.5t-127.5 33.5h-168v-281h168z" />
    <glyph glyph-name="afii10019" unicode="&#x412;" horiz-adv-x="643" 
d="M96 720h223q109 0 171 -46t62 -140q0 -60 -27 -101.5t-84 -61.5q73 -18 107 -65t34 -113q0 -91 -61 -142t-186 -51h-239v720zM335 61q88 0 132.5 33t44.5 105t-44.5 105t-132.5 33h-169v-276h169zM314 396q85 0 126.5 31.5t41.5 99.5q0 69 -41.5 100t-126.5 31h-148v-262
h148z" />
    <glyph glyph-name="afii10020" unicode="&#x413;" horiz-adv-x="530" 
d="M96 720h403v-65h-332v-655h-71v720z" />
    <glyph glyph-name="afii10021" unicode="&#x414;" horiz-adv-x="724" 
d="M36 62h38q20 20 43 52.5t43.5 83t36 122.5t20.5 173l12 227h398v-658h55v-216h-68v154h-510v-154h-68v216zM287 493q-5 -99 -18.5 -170.5t-32 -121.5t-39.5 -83t-40 -54h399v590h-261z" />
    <glyph glyph-name="afii10022" unicode="&#x415;" horiz-adv-x="588" 
d="M96 720h438v-65h-367v-249h323v-63h-323v-279h369v-64h-440v720z" />
    <glyph glyph-name="afii10024" unicode="&#x416;" horiz-adv-x="971" 
d="M450 342h-51q-34 0 -59 -8t-45.5 -25t-39 -42.5t-38.5 -61.5l-117 -205h-78l129 226q17 30 33 54t34.5 42.5t40.5 31.5t50 21q-35 14 -54.5 39t-36.5 60l-57 115q-10 19 -19 33t-21 23t-28.5 13.5t-40.5 4.5v63q40 0 67.5 -8t47.5 -24t35.5 -41t32.5 -59l57 -116
q10 -20 19 -34t21.5 -23t29 -13t41.5 -4h47v316h71v-316h47q25 0 41.5 4t29 13t21.5 23t19 34l57 116q17 34 32.5 59t35.5 41t47.5 24t67.5 8v-63q-25 0 -41.5 -4.5t-29 -13.5t-21.5 -23t-19 -33l-57 -115q-18 -36 -37 -60.5t-53 -38.5q28 -8 50.5 -21t41 -31.5t34.5 -42.5
t33 -54l129 -226h-80l-117 205q-20 36 -38.5 61.5t-39 42.5t-45.5 25t-59 8h-49v-342h-71v342z" />
    <glyph glyph-name="afii10025" unicode="&#x417;" horiz-adv-x="559" 
d="M239 405q36 0 68.5 7.5t57 23.5t39 41.5t14.5 61.5q0 33 -12 57.5t-32 40t-47.5 23.5t-57.5 8q-52 0 -97 -19.5t-86 -51.5l-24 61q42 32 96.5 53t116.5 21q43 0 82 -12t68.5 -35t46.5 -57.5t17 -79.5q0 -67 -37.5 -110t-100.5 -63q73 -21 110.5 -69.5t37.5 -114.5
q0 -45 -17 -82.5t-49 -64.5t-77 -41.5t-102 -14.5q-63 0 -120 17t-102 46l24 65q44 -28 93.5 -46.5t106.5 -18.5q82 0 127 39t45 105q0 71 -52 109.5t-145 38.5h-61v62h69z" />
    <glyph glyph-name="afii10026" unicode="&#x418;" horiz-adv-x="709" 
d="M613 0h-68v594l-384 -594h-65v720h68v-594l384 594h65v-720z" />
    <glyph glyph-name="afii10027" unicode="&#x419;" horiz-adv-x="709" 
d="M613 0h-68v594l-384 -594h-65v720h68v-594l384 594h65v-720zM354 829q48 0 67.5 22t19.5 57h56q0 -59 -34 -92t-109 -33t-109 33t-34 92h56q0 -35 19.5 -57t67.5 -22z" />
    <glyph glyph-name="afii10028" unicode="&#x41a;" horiz-adv-x="643" 
d="M96 720h71v-316h73q25 0 41.5 4t29 13t21.5 23t19 34l57 116q17 34 32.5 59t35.5 41t47.5 24t67.5 8v-63q-25 0 -41.5 -4.5t-29 -13.5t-21.5 -23t-19 -33l-57 -115q-18 -36 -37 -60.5t-53 -38.5q28 -8 50.5 -21t41 -31.5t34.5 -42.5t33 -54l129 -226h-80l-117 205
q-20 36 -38.5 61.5t-39 42.5t-45.5 25t-59 8h-75v-342h-71v720z" />
    <glyph glyph-name="afii10029" unicode="&#x41b;" horiz-adv-x="706" 
d="M30 -6q-12 0 -18.5 0.5t-11.5 1.5v64q4 -1 10 -1.5t15 -0.5q39 0 65 16t41.5 51.5t24 91t13.5 133.5l24 370h417v-720h-71v655h-280l-20 -312q-6 -92 -17.5 -157.5t-34.5 -108.5t-60.5 -63t-96.5 -20z" />
    <glyph glyph-name="afii10030" unicode="&#x41c;" horiz-adv-x="907" 
d="M774 720l55 -720h-73l-29 451q-2 23 -3 50t-2.5 53t-2.5 49.5t-1 38.5h-2q-3 -15 -9.5 -37.5t-15 -47.5l-18 -51.5l-17.5 -48.5l-171 -457h-66l-168 457l-19 52.5t-18 52l-14.5 45.5t-8.5 35h-2q0 -6 -1 -27t-2 -48.5t-3 -56.5t-3 -51l-32 -459h-70l59 720h94l161 -450
l33.5 -97t26.5 -85h2q14 45 29.5 89.5l31.5 88.5l166 454h93z" />
    <glyph glyph-name="afii10031" unicode="&#x41d;" horiz-adv-x="703" 
d="M96 720h71v-312h369v312h71v-720h-71v343h-369v-343h-71v720z" />
    <glyph glyph-name="afii10032" unicode="&#x41e;" horiz-adv-x="716" 
d="M657 362q0 -91 -22.5 -161t-63 -117t-95.5 -71.5t-120 -24.5q-64 0 -118.5 23.5t-94 70t-62 116t-22.5 160.5q0 92 23 162t63 117t95 71t120 24q64 0 118.5 -24t94 -70.5t62 -116t22.5 -159.5zM586 360q0 78 -16.5 136t-46.5 96t-72 57t-93 19t-93 -19t-72 -57t-46.5 -96
t-16.5 -136t16.5 -136t46.5 -96t72 -57t93 -19t93 19t72 57t46.5 96t16.5 136z" />
    <glyph glyph-name="afii10033" unicode="&#x41f;" horiz-adv-x="703" 
d="M96 720h511v-720h-71v655h-369v-655h-71v720z" />
    <glyph glyph-name="afii10034" unicode="&#x420;" horiz-adv-x="617" 
d="M96 720h243q112 0 174.5 -51.5t62.5 -154.5q0 -104 -64 -155.5t-179 -51.5h-166v-307h-71v720zM167 371h166q87 0 129.5 34t42.5 108t-42.5 108t-129.5 34h-166v-284z" />
    <glyph glyph-name="afii10035" unicode="&#x421;" horiz-adv-x="607" 
d="M558 57q-39 -30 -90 -49.5t-113 -19.5q-64 0 -118.5 23t-94 69t-61.5 114.5t-22 159.5q0 92 23 162.5t64 118.5t97.5 72.5t123.5 24.5q57 0 103.5 -17t84.5 -46l-23 -67q-38 29 -78 47.5t-92 18.5q-51 0 -93.5 -19t-73.5 -58t-48 -97t-17 -136t17 -135.5t48 -95.5t73 -57
t93 -19t91.5 17.5t81.5 49.5z" />
    <glyph glyph-name="afii10036" unicode="&#x422;" horiz-adv-x="561" 
d="M245 655h-214v65h499v-65h-214v-655h-71v655z" />
    <glyph glyph-name="afii10037" unicode="&#x423;" horiz-adv-x="603" 
d="M26 720h77l199 -422l199 422h76l-228 -477q-34 -70 -62 -117.5t-57 -77t-61.5 -42t-75.5 -12.5q-11 0 -26 1t-29 3v66q25 -6 55 -6q28 0 49 6.5t41 26.5t42 56.5t51 95.5h-23z" />
    <glyph glyph-name="afii10038" unicode="&#x424;" horiz-adv-x="790" 
d="M360 71q-66 4 -121.5 24.5t-95.5 56.5t-62 87.5t-22 118.5t22 119t62 88.5t95.5 57.5t121.5 26v83h70v-83q66 -4 121.5 -24.5t95 -56.5t62 -87.5t22.5 -118.5t-22.5 -119t-62 -89t-95 -58t-121.5 -25v-83h-70v83zM661 359q0 55 -16.5 96t-47 69.5t-73 44.5t-94.5 20v-460
q52 4 94.5 19.5t73 44t47 70t16.5 96.5zM129 359q0 -55 16.5 -96.5t47 -70t73 -44t94.5 -19.5v460q-52 -4 -94.5 -20t-73 -44.5t-47 -69.5t-16.5 -96z" />
    <glyph glyph-name="afii10039" unicode="&#x425;" horiz-adv-x="625" 
d="M267 371l-219 349h81l184 -297l183 297h80l-220 -349l234 -371h-81l-199 319l-197 -319h-80z" />
    <glyph glyph-name="afii10040" unicode="&#x426;" horiz-adv-x="712" 
d="M607 62h55v-216h-68v154h-498v720h71v-656h369v656h71v-658z" />
    <glyph glyph-name="afii10041" unicode="&#x427;" horiz-adv-x="639" 
d="M295 360q35 0 79 7t98 24v329h71v-720h-71v330q-58 -19 -105.5 -26t-86.5 -7q-49 0 -89.5 10t-69.5 34t-45 63.5t-16 97.5v218h71v-209q0 -44 12.5 -73.5t34.5 -46.5t52 -24t65 -7z" />
    <glyph glyph-name="afii10042" unicode="&#x428;" horiz-adv-x="1063" 
d="M967 0h-871v720h71v-656h329v656h71v-656h329v656h71v-720z" />
    <glyph glyph-name="afii10043" unicode="&#x429;" horiz-adv-x="1074" 
d="M967 62h55v-216h-68v154h-859v720h71v-656h329v656h71v-656h330v656h71v-658z" />
    <glyph glyph-name="afii10044" unicode="&#x42a;" horiz-adv-x="755" 
d="M234 0v655h-203v65h274v-314h173q112 0 174 -50t62 -153t-63.5 -153t-177.5 -50h-239zM473 62q85 0 127.5 33.5t42.5 107.5q0 73 -42.5 106.5t-127.5 33.5h-168v-281h168z" />
    <glyph glyph-name="afii10045" unicode="&#x42b;" horiz-adv-x="848" 
d="M682 720h70v-720h-70v720zM96 0v720h71v-314h173q112 0 174 -50t62 -153t-63.5 -153t-177.5 -50h-239zM335 62q85 0 127.5 33.5t42.5 107.5q0 73 -42.5 106.5t-127.5 33.5h-168v-281h168z" />
    <glyph glyph-name="afii10046" unicode="&#x42c;" horiz-adv-x="617" 
d="M96 0v720h71v-314h173q112 0 174 -50t62 -153t-63.5 -153t-177.5 -50h-239zM335 62q85 0 127.5 33.5t42.5 107.5q0 73 -42.5 106.5t-127.5 33.5h-168v-281h168z" />
    <glyph glyph-name="afii10047" unicode="&#x42d;" horiz-adv-x="607" 
d="M144 398h332q-4 68 -22.5 118.5t-48 84.5t-69 50.5t-85.5 16.5q-51 0 -90.5 -18.5t-77.5 -48.5l-24 62q39 30 88.5 49.5t109.5 19.5q63 0 116.5 -23.5t92 -69.5t60.5 -115t22 -159q0 -93 -23 -163.5t-64.5 -118t-98 -71.5t-123.5 -24q-59 0 -106 17t-85 46l23 66
q42 -32 81.5 -49t89.5 -17q49 0 91 17.5t72.5 53t49 88.5t21.5 125h-332v63z" />
    <glyph glyph-name="afii10048" unicode="&#x42e;" horiz-adv-x="937" 
d="M600 -12q-58 0 -107 23t-85 67.5t-57 111t-22 153.5h-162v-343h-71v720h71v-312h164q6 79 28.5 140t59 101.5t84 61.5t102.5 21q59 0 108.5 -24t85.5 -70.5t56.5 -116t20.5 -159.5q0 -92 -21 -162t-58 -117t-87.5 -71t-109.5 -24zM602 52q45 0 82.5 18.5t64.5 57
t41.5 96.5t14.5 136t-14.5 136t-41.5 96t-64.5 57t-82.5 19t-82.5 -19t-64.5 -57t-41.5 -96t-14.5 -136t14.5 -136t41.5 -96.5t64.5 -57t82.5 -18.5z" />
    <glyph glyph-name="afii10049" unicode="&#x42f;" horiz-adv-x="670" 
d="M341 329l-201 -329h-79l204 334q-166 29 -166 188q0 99 63 148.5t176 49.5h237v-720h-71v329h-163zM504 388v267h-166q-85 0 -126.5 -31.5t-41.5 -101.5q0 -71 41.5 -102.5t126.5 -31.5h166z" />
    <glyph glyph-name="afii10065" unicode="&#x430;" horiz-adv-x="521" 
d="M270 463q-47 0 -88.5 -15.5t-82.5 -39.5l-20 56q40 24 91 41t110 17q78 0 122 -38t44 -130v-238q0 -57 3 -81.5t7 -34.5h-65q-5 8 -7.5 22.5t-4.5 43.5q-35 -36 -79 -57t-95 -21q-68 0 -111.5 39t-43.5 116q0 81 57 125t182 44q16 0 37 -1t52 -6v43q0 63 -27 89t-81 26z
M378 253q-30 5 -49.5 6.5t-40.5 1.5q-93 0 -131.5 -28.5t-38.5 -84.5q0 -52 27.5 -77t72.5 -25q48 0 88 23t72 55v129z" />
    <glyph glyph-name="afii10066" unicode="&#x431;" horiz-adv-x="554" 
d="M285 447q-48 0 -89 -23.5t-78 -62.5v-8q0 -84 11.5 -142.5t33.5 -95.5t52.5 -53.5t68.5 -16.5q31 0 58.5 11.5t48 36t32 62.5t11.5 91q0 103 -41 152t-108 49zM326 660q-92 -1 -143.5 -56.5t-63.5 -178.5q37 38 82 60.5t98 22.5q44 0 81.5 -16.5t64.5 -49t42.5 -80.5
t15.5 -111q0 -68 -17.5 -117.5t-47.5 -81.5t-70 -48t-85 -16q-52 0 -95 21.5t-74 65.5t-48 112t-17 161q0 98 19 169t55 117.5t87.5 69t115.5 22.5q45 0 75.5 1.5t49.5 8.5v-66q-20 -7 -52.5 -8.5t-72.5 -1.5z" />
    <glyph glyph-name="afii10067" unicode="&#x432;" horiz-adv-x="532" 
d="M80 510h208q81 0 126.5 -33.5t45.5 -100.5q0 -85 -77 -113q51 -14 74.5 -47t23.5 -79q0 -65 -44.5 -101t-138.5 -36h-218v510zM292 55q68 0 94.5 23.5t26.5 64.5q0 42 -26.5 65.5t-94.5 23.5h-144v-177h144zM277 287q61 0 88 20t27 63t-27 63t-88 20h-129v-166h129z" />
    <glyph glyph-name="afii10068" unicode="&#x433;" horiz-adv-x="405" 
d="M383 510v-59h-235v-451h-69v510h304z" />
    <glyph glyph-name="afii10069" unicode="&#x434;" horiz-adv-x="612" 
d="M36 55h42q23 21 43.5 53t36.5 84t25 129t9 189h319v-455h51v-185h-67v130h-392v-130h-67v185zM256 451q-2 -93 -10.5 -159t-22 -112t-30.5 -75t-35 -48h284v394h-186z" />
    <glyph glyph-name="afii10070" unicode="&#x435;" horiz-adv-x="537" 
d="M120 241q1 -51 14 -88t35 -61t52.5 -35.5t67.5 -11.5q42 0 80 13.5t79 38.5l20 -55q-41 -26 -90 -40t-98 -14q-51 0 -93.5 16.5t-73 49.5t-47 81.5t-16.5 112.5q0 66 17.5 117t48.5 86t73.5 53t91.5 18q91 0 146 -61.5t55 -181.5v-20q0 -7 -1 -18h-361zM278 466
q-66 0 -108 -44.5t-50 -127.5h295q0 46 -10.5 78.5t-28.5 53.5t-43 30.5t-55 9.5z" />
    <glyph glyph-name="afii10072" unicode="&#x436;" horiz-adv-x="767" 
d="M349 239h-15q-29 0 -49 -5t-35.5 -16t-28.5 -27.5t-27 -40.5l-90 -150h-75l103 171q23 38 47.5 63t68.5 36q-25 9 -37.5 24t-23.5 35l-48 85q-6 11 -12.5 19t-15 13.5t-21 8t-31.5 2.5v59q32 0 54 -5.5t38.5 -17t29 -29.5t26.5 -42l48 -85q6 -12 12.5 -20t15.5 -13.5
t22 -8t33 -2.5h11v217h69v-217h11q20 0 33 2.5t22 8t15.5 13.5t12.5 20l48 85q14 24 26.5 42t29 29.5t38.5 17t54 5.5v-59q-20 0 -32.5 -2.5t-21.5 -8t-15.5 -13.5t-12.5 -19l-48 -85q-13 -23 -25 -37t-35 -22q44 -11 69 -36t48 -63l103 -171h-77l-90 150q-14 24 -27 40.5
t-28.5 27.5t-36 16t-48.5 5h-13v-239h-69v239z" />
    <glyph glyph-name="afii10073" unicode="&#x437;" horiz-adv-x="473" 
d="M423 136q0 -33 -14.5 -60.5t-40.5 -47t-63.5 -30t-83.5 -10.5q-52 0 -98 13.5t-83 36.5l20 59q36 -23 76 -37.5t86 -14.5q61 0 96.5 26t35.5 69q0 42 -39.5 68t-124.5 26h-41v57h51q70 0 107 21t37 65q0 22 -9 38.5t-24.5 27t-36 16t-43.5 5.5q-41 0 -75 -14t-66 -37
l-20 56q33 23 75 38t93 15q35 0 67 -8.5t56 -26t38 -43.5t14 -60q0 -45 -24.5 -75.5t-74.5 -44.5q57 -17 83 -50.5t26 -77.5z" />
    <glyph glyph-name="afii10074" unicode="&#x438;" horiz-adv-x="573" 
d="M493 0h-65v401l-287 -401h-62v510h65v-401l287 401h62v-510z" />
    <glyph glyph-name="afii10075" unicode="&#x439;" horiz-adv-x="573" 
d="M493 0h-65v401l-287 -401h-62v510h65v-401l287 401h62v-510zM286 627q48 0 67.5 25.5t19.5 67.5h56q0 -66 -34 -103t-109 -37t-109 37t-34 103h56q0 -42 19.5 -67.5t67.5 -25.5z" />
    <glyph glyph-name="afii10076" unicode="&#x43a;" horiz-adv-x="524" 
d="M80 510h69v-217h37q20 0 33 2.5t22 8t15.5 13.5t12.5 20l48 85q14 24 26.5 42t29 29.5t38.5 17t54 5.5v-59q-20 0 -32.5 -2.5t-21.5 -8t-15.5 -13.5t-12.5 -19l-48 -85q-13 -23 -25 -37t-35 -22q44 -11 69 -36t48 -63l103 -171h-77l-90 150q-14 24 -27 40.5t-28.5 27.5
t-36 16t-48.5 5h-39v-239h-69v510z" />
    <glyph glyph-name="afii10077" unicode="&#x43b;" horiz-adv-x="573" 
d="M493 510v-510h-69v451h-205q-3 -135 -12 -223t-30 -140t-56 -73t-90 -21q-23 0 -31 2v57q2 -1 9.5 -1.5t15.5 -0.5q43 0 67 26t36.5 81.5t17 142.5t8.5 209h339z" />
    <glyph glyph-name="afii10078" unicode="&#x43c;" horiz-adv-x="733" 
d="M336 0l-122 298q-7 16 -14.5 35.5l-14 38l-12 35t-8.5 27.5h-2q0 -11 -1 -28t-2 -36.5t-2.5 -39.5t-2.5 -38l-25 -292h-64l48 510h83l127 -318q16 -41 25.5 -67.5t16.5 -51.5h2q7 26 17.5 54.5l24.5 64.5l129 318h82l46 -510h-66l-24 290q-4 45 -6 84.5l-3 59.5h-2
q-3 -11 -8.5 -28l-12 -36t-14 -37.5l-13.5 -33.5l-123 -299h-59z" />
    <glyph glyph-name="afii10079" unicode="&#x43d;" horiz-adv-x="572" 
d="M423 241h-275v-241h-69v510h69v-211h275v211h69v-510h-69v241z" />
    <glyph glyph-name="afii10080" unicode="&#x43e;" horiz-adv-x="554" 
d="M119 255q0 -56 12.5 -95.5t33.5 -64.5t50 -37t62 -12t62 12t50 37t33.5 64.5t12.5 95.5q0 55 -12.5 95t-33.5 65t-50 37t-62 12t-62 -12t-50 -37t-33.5 -65t-12.5 -95zM504 257q0 -69 -18 -119.5t-49.5 -83.5t-73 -49.5t-88.5 -16.5q-46 0 -87 15.5t-71.5 48t-48.5 82.5
t-18 119t18.5 120t49.5 84t72.5 49t88.5 16q46 0 87 -16t71.5 -48.5t48.5 -82.5t18 -118z" />
    <glyph glyph-name="afii10081" unicode="&#x43f;" horiz-adv-x="557" 
d="M408 451h-259v-451h-69v510h397v-510h-69v451z" />
    <glyph glyph-name="afii10082" unicode="&#x440;" horiz-adv-x="570" 
d="M149 510v-74q35 40 78 63t94 23q43 0 79.5 -17t63 -50t41.5 -82t15 -114q0 -67 -16 -117.5t-44 -84.5t-66 -51.5t-82 -17.5q-48 0 -88 20t-75 59v-277h-69v720h69zM307 461q-45 0 -84 -23t-74 -63v-248q33 -38 71 -59t82 -21q67 0 108 50.5t41 156.5q0 105 -40 156
t-104 51z" />
    <glyph glyph-name="afii10083" unicode="&#x441;" horiz-adv-x="468" 
d="M404 415q-29 22 -57.5 35t-65.5 13q-35 0 -64.5 -12.5t-51.5 -38.5t-34 -65t-12 -92q0 -105 46 -157t118 -52q38 0 68 13t55 34l20 -56q-31 -25 -70.5 -37t-81.5 -12q-49 0 -90 16t-71 48t-46.5 81.5t-16.5 115.5q0 68 17.5 119t48.5 85.5t73.5 51.5t92.5 17
q45 0 79 -12.5t63 -33.5z" />
    <glyph glyph-name="afii10084" unicode="&#x442;" horiz-adv-x="486" 
d="M25 510h435v-59h-183v-451h-69v451h-183v59z" />
    <glyph glyph-name="afii10085" unicode="&#x443;" horiz-adv-x="505" 
d="M38 -150l21.5 -4t24.5 -2q22 0 40 7t35 25.5t33.5 51t35.5 84.5h-24l-178 498h73l153 -441l156 441h71l-183 -498q-26 -71 -48.5 -115t-46.5 -69.5t-52 -34.5t-64 -9q-11 0 -24 1t-23 3v62z" />
    <glyph glyph-name="afii10086" unicode="&#x444;" horiz-adv-x="718" 
d="M325 -11q-58 4 -108 21.5t-87 50t-58.5 80.5t-21.5 112t21.5 112t58.5 81t87 51.5t108 22.5v200h68v-199q57 -4 107.5 -21.5t87.5 -50.5t58.5 -80.5t21.5 -111.5t-21.5 -112.5t-58.5 -81.5t-87.5 -51t-107.5 -22v-200h-68v199zM600 255q0 51 -16 88.5t-43.5 63
t-65.5 39.5t-82 18v-420q44 4 82 18t65.5 40t43.5 64t16 89zM118 255q0 -51 15.5 -89t43.5 -64t66 -40t82 -18v420q-44 -4 -82 -18t-66 -39.5t-43.5 -63t-15.5 -88.5z" />
    <glyph glyph-name="afii10087" unicode="&#x445;" horiz-adv-x="504" 
d="M210 265l-167 245h78l131 -200l132 200h76l-167 -245l181 -265h-78l-145 220l-147 -220h-75z" />
    <glyph glyph-name="afii10088" unicode="&#x446;" horiz-adv-x="581" 
d="M148 57h262v453h69v-455h51v-185h-67v130h-384v510h69v-453z" />
    <glyph glyph-name="afii10089" unicode="&#x447;" horiz-adv-x="529" 
d="M119 510v-144q0 -35 9.5 -56.5t26 -33t38.5 -15.5t48 -4t60 4t79 17v232h69v-510h-69v223q-48 -13 -85 -18t-69 -5q-40 0 -72.5 7.5t-55.5 25t-35.5 46.5t-12.5 72v159h69z" />
    <glyph glyph-name="afii10090" unicode="&#x448;" horiz-adv-x="865" 
d="M467 58h249v452h69v-510h-705v510h69v-452h249v452h69v-452z" />
    <glyph glyph-name="afii10091" unicode="&#x449;" horiz-adv-x="886" 
d="M466 57h250v453h69v-455h51v-185h-67v130h-690v510h69v-453h249v453h69v-453z" />
    <glyph glyph-name="afii10092" unicode="&#x44a;" horiz-adv-x="651" 
d="M202 0v451h-177v59h246v-198h144q88 0 137 -39t49 -117q0 -79 -50 -117.5t-141 -38.5h-208zM405 55q63 0 95 24t32 76q0 53 -32 77t-95 24h-134v-201h134z" />
    <glyph glyph-name="afii10093" unicode="&#x44b;" horiz-adv-x="756" 
d="M607 510h69v-510h-69v510zM282 55q63 0 95 24t32 76q0 53 -32 77t-95 24h-134v-201h134zM79 0v510h69v-198h144q88 0 137 -39t49 -117q0 -79 -50 -117.5t-141 -38.5h-208z" />
    <glyph glyph-name="afii10094" unicode="&#x44c;" horiz-adv-x="528" 
d="M282 55q63 0 95 24t32 76q0 53 -32 77t-95 24h-134v-201h134zM79 0v510h69v-198h144q88 0 137 -39t49 -117q0 -79 -50 -117.5t-141 -38.5h-208z" />
    <glyph glyph-name="afii10095" unicode="&#x44d;" horiz-adv-x="468" 
d="M109 290h237q-8 88 -50.5 130.5t-105.5 42.5q-34 0 -62.5 -11.5t-56.5 -34.5l-20 56q29 23 66.5 36t81.5 13q47 0 87 -16.5t69 -49.5t45.5 -82t16.5 -115q0 -68 -17.5 -119t-49 -84.5t-74 -50.5t-93.5 -17q-45 0 -80 12.5t-64 33.5l20 59q29 -21 58 -34t67 -13
q68 0 113 46t50 143h-238v55z" />
    <glyph glyph-name="afii10096" unicode="&#x44e;" horiz-adv-x="745" 
d="M486 -12q-41 0 -78 15t-64.5 46t-44.5 79t-18 113h-133v-241h-69v510h69v-211h135q6 57 24 99t46 69.5t63 41t74 13.5q42 0 79.5 -16t65 -48.5t44 -82.5t16.5 -118q0 -69 -16.5 -119.5t-45 -84t-66.5 -49.5t-81 -16zM626 254q0 55 -10.5 95t-29.5 65.5t-44 37.5t-54 12
t-54 -12t-44 -37.5t-29.5 -65.5t-10.5 -95q0 -56 10.5 -95.5t29.5 -65t44 -37.5t54 -12t54 12t44 37.5t29.5 65t10.5 95.5z" />
    <glyph glyph-name="afii10097" unicode="&#x44f;" horiz-adv-x="536" 
d="M456 510v-510h-69v210h-155l-128 -210h-74l138 223q-49 15 -74.5 47.5t-25.5 86.5q0 76 50 114.5t140 38.5h198zM387 262v191h-128q-66 0 -94.5 -24t-28.5 -72t28.5 -71.5t94.5 -23.5h128z" />
    <glyph glyph-name="uni0450" unicode="&#x450;" horiz-adv-x="537" 
d="M120 241q1 -51 14 -88t35 -61t52.5 -35.5t67.5 -11.5q42 0 80 13.5t79 38.5l20 -55q-41 -26 -90 -40t-98 -14q-51 0 -93.5 16.5t-73 49.5t-47 81.5t-16.5 112.5q0 66 17.5 117t48.5 86t73.5 53t91.5 18q91 0 146 -61.5t55 -181.5v-20q0 -7 -1 -18h-361zM278 466
q-66 0 -108 -44.5t-50 -127.5h295q0 46 -10.5 78.5t-28.5 53.5t-43 30.5t-55 9.5zM277 574l-124 146h84l96 -146h-56z" />
    <glyph glyph-name="afii10071" unicode="&#x451;" horiz-adv-x="537" 
d="M120 241q1 -51 14 -88t35 -61t52.5 -35.5t67.5 -11.5q42 0 80 13.5t79 38.5l20 -55q-41 -26 -90 -40t-98 -14q-51 0 -93.5 16.5t-73 49.5t-47 81.5t-16.5 112.5q0 66 17.5 117t48.5 86t73.5 53t91.5 18q91 0 146 -61.5t55 -181.5v-20q0 -7 -1 -18h-361zM278 466
q-66 0 -108 -44.5t-50 -127.5h295q0 46 -10.5 78.5t-28.5 53.5t-43 30.5t-55 9.5zM137 622q0 18 12 30.5t31 12.5t31 -12.5t12 -30.5t-12 -30.5t-31 -12.5t-31 12.5t-12 30.5zM323 622q0 18 12 30.5t31 12.5t31 -12.5t12 -30.5t-12 -30.5t-31 -12.5t-31 12.5t-12 30.5z" />
    <glyph glyph-name="afii10099" unicode="&#x452;" horiz-adv-x="638" 
d="M25 632h117v88h69v-88h197v-57h-197v-185q35 40 90.5 70t121.5 30q28 0 53.5 -7.5t44.5 -24t30 -43.5t11 -67v-382q0 -70 -30 -107t-103 -37q-28 0 -59 6v59q27 -6 49 -6q44 0 59 22t15 63v368q0 53 -25 73.5t-65 20.5q-55 0 -102.5 -28t-89.5 -69v-331h-69v575h-117v57z
" />
    <glyph glyph-name="afii10100" unicode="&#x453;" horiz-adv-x="405" 
d="M174 574l96 146h84l-124 -146h-56zM383 510v-59h-235v-451h-69v510h304z" />
    <glyph glyph-name="afii10101" unicode="&#x454;" horiz-adv-x="468" 
d="M404 415q-29 21 -58 34.5t-67 13.5q-62 0 -106.5 -42.5t-52.5 -130.5h238v-55h-239q5 -97 49.5 -143t112.5 -46q36 0 66.5 12t58.5 35l20 -56q-29 -23 -67.5 -36t-84.5 -13q-48 0 -89 16t-71 48.5t-47 82t-17 115.5q0 67 17.5 118t48.5 85.5t73.5 51.5t92.5 17
q45 0 79 -12.5t63 -33.5z" />
    <glyph glyph-name="afii10102" unicode="&#x455;" horiz-adv-x="454" 
d="M368 413q-30 21 -63.5 36t-70.5 15q-45 0 -70.5 -23t-25.5 -58q0 -32 19.5 -48.5t49.5 -27.5t64 -20t64 -25t49.5 -43t19.5 -73q0 -74 -50.5 -116t-134.5 -42q-47 0 -90 13.5t-79 36.5l20 60q35 -23 73.5 -38t80.5 -15q54 0 83 25t29 67q0 35 -19.5 54t-49.5 31t-64 21
t-64 24t-49.5 40t-19.5 69q0 66 45.5 106t121.5 40q43 0 81 -13t70 -36z" />
    <glyph glyph-name="afii10103" unicode="&#x456;" horiz-adv-x="241" 
d="M86 510h69v-510h-69v510zM167 652q0 -20 -13 -33t-33 -13t-33 13t-13 33t13 33t33 13t33 -13t13 -33z" />
    <glyph glyph-name="afii10104" unicode="&#x457;" horiz-adv-x="241" 
d="M-14 622q0 18 12 30.5t31 12.5t31 -12.5t12 -30.5t-12 -30.5t-31 -12.5t-31 12.5t-12 30.5zM172 622q0 18 12 30.5t31 12.5t31 -12.5t12 -30.5t-12 -30.5t-31 -12.5t-31 12.5t-12 30.5zM86 510h69v-510h-69v510z" />
    <glyph glyph-name="afii10105" unicode="&#x458;" horiz-adv-x="241" 
d="M155 -72q0 -70 -30 -107t-103 -37q-28 0 -59 6v59q27 -6 49 -6q44 0 59 22t15 63v582h69v-582zM167 652q0 -20 -13 -33t-33 -13t-33 13t-13 33t13 33t33 13t33 -13t13 -33z" />
    <glyph glyph-name="afii10106" unicode="&#x459;" horiz-adv-x="853" 
d="M403 0v451h-184q-3 -135 -12 -223t-30 -140t-56.5 -73t-89.5 -21q-23 0 -31 2v57q2 -1 9.5 -1.5t15.5 -0.5q43 0 67 26t36.5 81.5t17 142.5t8.5 209h318v-198h144q88 0 137 -39t49 -117q0 -79 -50 -117.5t-141 -38.5h-208zM606 55q63 0 95 24t32 76q0 53 -32 77t-95 24
h-134v-201h134z" />
    <glyph glyph-name="afii10107" unicode="&#x45a;" horiz-adv-x="852" 
d="M402 0v246h-254v-246h-69v510h69v-206h254v206h69v-206h149q86 0 133.5 -37.5t47.5 -114.5t-49 -114.5t-134 -37.5h-216zM611 55q61 0 91 23t30 74t-30 73.5t-91 22.5h-140v-193h140z" />
    <glyph glyph-name="afii10108" unicode="&#x45b;" horiz-adv-x="638" 
d="M25 632h117v88h69v-88h197v-57h-197v-185q35 40 90.5 70t121.5 30q28 0 53.5 -7.5t44.5 -24t30 -43.5t11 -67v-348h-69v334q0 53 -25 73.5t-65 20.5q-55 0 -102.5 -28t-89.5 -69v-331h-69v575h-117v57z" />
    <glyph glyph-name="afii10109" unicode="&#x45c;" horiz-adv-x="524" 
d="M201 574l96 146h84l-124 -146h-56zM80 510h69v-217h37q20 0 33 2.5t22 8t15.5 13.5t12.5 20l48 85q14 24 26.5 42t29 29.5t38.5 17t54 5.5v-59q-20 0 -32.5 -2.5t-21.5 -8t-15.5 -13.5t-12.5 -19l-48 -85q-13 -23 -25 -37t-35 -22q44 -11 69 -36t48 -63l103 -171h-77
l-90 150q-14 24 -27 40.5t-28.5 27.5t-36 16t-48.5 5h-39v-239h-69v510z" />
    <glyph glyph-name="uni045D" unicode="&#x45d;" horiz-adv-x="573" 
d="M289 574l-124 146h84l96 -146h-56zM493 0h-65v401l-287 -401h-62v510h65v-401l287 401h62v-510z" />
    <glyph glyph-name="afii10110" unicode="&#x45e;" horiz-adv-x="505" 
d="M38 -150l21.5 -4t24.5 -2q22 0 40 7t35 25.5t33.5 51t35.5 84.5h-24l-178 498h73l153 -441l156 441h71l-183 -498q-26 -71 -48.5 -115t-46.5 -69.5t-52 -34.5t-64 -9q-11 0 -24 1t-23 3v62zM252 627q48 0 67.5 25.5t19.5 67.5h56q0 -66 -34 -103t-109 -37t-109 37
t-34 103h56q0 -42 19.5 -67.5t67.5 -25.5z" />
    <glyph glyph-name="afii10193" unicode="&#x45f;" horiz-adv-x="559" 
d="M148 57h262v453h69v-510h-166v-130h-68v130h-166v510h69v-453z" />
    <glyph glyph-name="afii10146" unicode="&#x462;" horiz-adv-x="710" 
d="M187 0v555h-156v63h156v102h71v-102h187v-63h-187v-149h173q112 0 174 -50t62 -153t-63.5 -153t-177.5 -50h-239zM426 62q85 0 127.5 33.5t42.5 107.5q0 73 -42.5 106.5t-127.5 33.5h-168v-281h168z" />
    <glyph glyph-name="afii10194" unicode="&#x463;" horiz-adv-x="587" 
d="M142 0v453h-117v57h117v210h69v-210h176v-57h-176v-141h144q88 0 137 -39t49 -117q0 -79 -50 -117.5t-141 -38.5h-208zM345 55q63 0 95 24t32 76q0 53 -32 77t-95 24h-134v-201h134z" />
    <glyph glyph-name="afii10147" unicode="&#x472;" horiz-adv-x="716" 
d="M246 363q-28 0 -58 -13t-59 -32q9 -135 71 -200.5t158 -65.5q51 0 92.5 18t71.5 55t47 92.5t19 130.5q-26 -16 -56.5 -27.5t-62.5 -11.5q-29 0 -58.5 8.5t-58.5 18.5l-56 18.5t-50 8.5zM468 370q28 0 58 13t59 33q-11 127 -72.5 189.5t-154.5 62.5q-49 0 -90 -17.5
t-71 -52.5t-48 -88t-21 -124q26 15 55.5 26.5t61.5 11.5q28 0 58 -8.5t59 -18.5l56 -18.5t50 -8.5zM657 362q0 -91 -22.5 -161t-63 -117t-95.5 -71.5t-120 -24.5q-64 0 -118.5 23.5t-94 70t-62 116t-22.5 160.5q0 92 23 162t63 117t95 71t120 24q64 0 118.5 -24t94 -70.5
t62 -116t22.5 -159.5z" />
    <glyph glyph-name="afii10195" unicode="&#x473;" horiz-adv-x="554" 
d="M195 255q-17 0 -37 -8.5t-40 -22.5q3 -47 17 -81t35 -55.5t48.5 -31.5t58.5 -10q32 0 60 11t49.5 34t34.5 59.5t15 87.5q-19 -11 -38.5 -18t-39.5 -7t-42 6.5t-43.5 14.5t-41.5 14.5t-36 6.5zM358 268q17 0 37 8t40 22q-10 88 -54 127t-104 39q-31 0 -58.5 -10t-48.5 -32
t-35 -55.5t-17 -80.5q18 11 38 17.5t40 6.5t41.5 -6.5t43 -14.5t41.5 -14.5t36 -6.5zM504 257q0 -69 -18 -119.5t-49.5 -83.5t-73 -49.5t-88.5 -16.5q-46 0 -87 15.5t-71.5 48t-48.5 82.5t-18 119t18.5 120t49.5 84t72.5 49t88.5 16q46 0 87 -16t71.5 -48.5t48.5 -82.5
t18 -118z" />
    <glyph glyph-name="afii10148" unicode="&#x474;" horiz-adv-x="662" 
d="M110 720l212 -628l167 502q11 34 24 59t32 41.5t47 24t70 7.5v-63q-26 0 -43.5 -4.5t-29.5 -13.5t-19.5 -23t-13.5 -33l-199 -589h-72l-249 720h74z" />
    <glyph glyph-name="afii10196" unicode="&#x475;" horiz-adv-x="521" 
d="M356 386q12 34 24.5 58.5t30.5 40.5t44.5 23.5t65.5 7.5v-59q-23 0 -39 -4.5t-27 -13.5t-19 -23.5t-15 -35.5l-135 -380h-72l-189 510h73l152 -421z" />
    <glyph glyph-name="afii10050" unicode="&#x490;" horiz-adv-x="554" 
d="M96 720h354v122h66v-187h-349v-655h-71v720z" />
    <glyph glyph-name="afii10098" unicode="&#x491;" horiz-adv-x="430" 
d="M336 510v122h65v-181h-253v-451h-69v510h257z" />
    <glyph glyph-name="uni0492" unicode="&#x492;" horiz-adv-x="542" 
d="M26 405h82v315h403v-65h-332v-250h191v-57h-191v-348h-71v348h-82v57z" />
    <glyph glyph-name="uni0493" unicode="&#x493;" horiz-adv-x="417" 
d="M395 510v-59h-235v-152h151v-57h-151v-242h-69v242h-80v57h80v211h304z" />
    <glyph glyph-name="uni0496" unicode="&#x496;" horiz-adv-x="992" 
d="M450 342h-51q-34 0 -59 -8t-45.5 -25t-39 -42.5t-38.5 -61.5l-117 -205h-78l129 226q17 30 33 54t34.5 42.5t40.5 31.5t50 21q-35 14 -54.5 39t-36.5 60l-57 115q-10 19 -19 33t-21 23t-28.5 13.5t-40.5 4.5v63q40 0 67.5 -8t47.5 -24t35.5 -41t32.5 -59l57 -116
q10 -20 19 -34t21.5 -23t29 -13t41.5 -4h47v316h71v-316h47q25 0 41.5 4t29 13t21.5 23t19 34l57 116q17 34 32.5 59t35.5 41t47.5 24t67.5 8v-63q-25 0 -41.5 -4.5t-29 -13.5t-21.5 -23t-19 -33l-57 -115q-18 -36 -37 -60.5t-53 -38.5q28 -8 50.5 -21t41 -31.5t34.5 -42.5
t33 -54l93 -164h57v-216h-68v154h-33l-117 205q-20 36 -38.5 61.5t-39 42.5t-45.5 25t-59 8h-49v-342h-71v342z" />
    <glyph glyph-name="uni0497" unicode="&#x497;" horiz-adv-x="786" 
d="M349 239h-15q-29 0 -49 -5t-35.5 -16t-28.5 -27.5t-27 -40.5l-90 -150h-75l103 171q23 38 47.5 63t68.5 36q-25 9 -37.5 24t-23.5 35l-48 85q-6 11 -12.5 19t-15 13.5t-21 8t-31.5 2.5v59q32 0 54 -5.5t38.5 -17t29 -29.5t26.5 -42l48 -85q6 -12 12.5 -20t15.5 -13.5
t22 -8t33 -2.5h11v217h69v-217h11q20 0 33 2.5t22 8t15.5 13.5t12.5 20l48 85q14 24 26.5 42t29 29.5t38.5 17t54 5.5v-59q-20 0 -32.5 -2.5t-21.5 -8t-15.5 -13.5t-12.5 -19l-48 -85q-13 -23 -25 -37t-35 -22q44 -11 69 -36t48 -63l70 -116h52v-185h-67v130h-29l-90 150
q-14 24 -27 40.5t-28.5 27.5t-36 16t-48.5 5h-13v-239h-69v239z" />
    <glyph glyph-name="uni049A" unicode="&#x49a;" horiz-adv-x="664" 
d="M96 720h71v-316h73q25 0 41.5 4t29 13t21.5 23t19 34l57 116q17 34 32.5 59t35.5 41t47.5 24t67.5 8v-63q-25 0 -41.5 -4.5t-29 -13.5t-21.5 -23t-19 -33l-57 -115q-18 -36 -37 -60.5t-53 -38.5q28 -8 50.5 -21t41 -31.5t34.5 -42.5t33 -54l93 -164h57v-216h-68v154h-33
l-117 205q-20 36 -38.5 61.5t-39 42.5t-45.5 25t-59 8h-75v-342h-71v720z" />
    <glyph glyph-name="uni049B" unicode="&#x49b;" horiz-adv-x="543" 
d="M80 510h69v-217h37q20 0 33 2.5t22 8t15.5 13.5t12.5 20l48 85q14 24 26.5 42t29 29.5t38.5 17t54 5.5v-59q-20 0 -32.5 -2.5t-21.5 -8t-15.5 -13.5t-12.5 -19l-48 -85q-13 -23 -25 -37t-35 -22q44 -11 69 -36t48 -63l70 -116h52v-185h-67v130h-29l-90 150
q-14 24 -27 40.5t-28.5 27.5t-36 16t-48.5 5h-39v-239h-69v510z" />
    <glyph glyph-name="uni049C" unicode="&#x49c;" horiz-adv-x="677" 
d="M96 720h71v-316h71v165h53v-165q20 1 34 6.5t24.5 15t18.5 22.5t17 30l57 116q17 34 32.5 59t35.5 41t47.5 24t67.5 8v-63q-25 0 -41.5 -4.5t-29 -13.5t-21.5 -23t-19 -33l-57 -115q-18 -36 -37 -60.5t-53 -38.5q28 -8 50.5 -21t41 -31.5t34.5 -42.5t33 -54l129 -226h-80
l-117 205q-19 33 -36.5 58t-36.5 42t-41.5 25.5t-52.5 10.5v-178h-53v179h-71v-342h-71v720z" />
    <glyph glyph-name="uni049D" unicode="&#x49d;" horiz-adv-x="558" 
d="M80 510h69v-217h52v112h51v-110q20 4 30.5 14.5t20.5 27.5l48 85q14 24 26.5 42t29 29.5t38.5 17t54 5.5v-59q-21 0 -34 -3t-21.5 -8t-14.5 -13.5t-12 -18.5l-48 -85q-11 -19 -24 -34t-36 -25q44 -11 69 -36t48 -63l103 -171h-77l-90 150q-25 41 -47.5 61.5t-62.5 25.5
v-119h-51v121h-52v-239h-69v510z" />
    <glyph glyph-name="uni04A2" unicode="&#x4a2;" horiz-adv-x="712" 
d="M96 720h71v-312h369v312h71v-658h55v-216h-68v154h-58v343h-369v-343h-71v720z" />
    <glyph glyph-name="uni04A3" unicode="&#x4a3;" horiz-adv-x="593" 
d="M423 241h-275v-241h-69v510h69v-211h275v211h69v-455h51v-185h-67v130h-53v241z" />
    <glyph glyph-name="uni04AE" unicode="&#x4ae;" horiz-adv-x="603" 
d="M266 309l-240 411h79l197 -341l198 341h77l-240 -411v-309h-71v309z" />
    <glyph glyph-name="uni04AF" unicode="&#x4af;" horiz-adv-x="504" 
d="M215 0l-190 510h73l153 -422l157 422h71l-195 -510v-210h-69v210z" />
    <glyph glyph-name="uni04B0" unicode="&#x4b0;" horiz-adv-x="603" 
d="M120 309h146l-240 411h79l197 -341l198 341h77l-240 -411h146v-57h-146v-252h-71v252h-146v57z" />
    <glyph glyph-name="uni04B1" unicode="&#x4b1;" horiz-adv-x="504" 
d="M90 13h125l-190 497h73l153 -422l157 422h71l-195 -497h125v-57h-125v-166h-69v166h-125v57z" />
    <glyph glyph-name="uni04B2" unicode="&#x4b2;" horiz-adv-x="625" 
d="M540 0h-31l-199 319l-197 -319h-80l234 371l-219 349h81l184 -297l183 297h80l-220 -349l195 -309h57v-216h-68v154z" />
    <glyph glyph-name="uni04B3" unicode="&#x4b3;" horiz-adv-x="508" 
d="M423 0h-27l-145 220l-147 -220h-75l181 265l-167 245h78l131 -200l132 200h76l-167 -245l143 -210h54v-185h-67v130z" />
    <glyph glyph-name="uni04B6" unicode="&#x4b6;" horiz-adv-x="647" 
d="M295 360q35 0 79 7t98 24v329h71v-658h53v-216h-68v154h-56v330q-58 -19 -105.5 -26t-86.5 -7q-49 0 -89.5 10t-69.5 34t-45 63.5t-16 97.5v218h71v-209q0 -44 12.5 -73.5t34.5 -46.5t52 -24t65 -7z" />
    <glyph glyph-name="uni04B7" unicode="&#x4b7;" horiz-adv-x="551" 
d="M119 510v-144q0 -35 9.5 -56.5t26 -33t38.5 -15.5t48 -4t60 4t79 17v232h69v-455h51v-185h-67v130h-53v223q-48 -13 -85 -18t-69 -5q-40 0 -72.5 7.5t-55.5 25t-35.5 46.5t-12.5 72v159h69z" />
    <glyph glyph-name="uni04B8" unicode="&#x4b8;" horiz-adv-x="659" 
d="M284 297q-50 0 -91 10.5t-70.5 34.5t-46 63.5t-16.5 96.5v218h70v-209q0 -41 12 -69.5t33 -46.5t49 -26.5t60 -9.5v166h53v-165q35 2 71.5 9.5t84.5 21.5v329h70v-720h-70v330q-85 -26 -156 -31v-180h-53v178z" />
    <glyph glyph-name="uni04B9" unicode="&#x4b9;" horiz-adv-x="549" 
d="M233 200q-41 0 -74.5 8t-57.5 27t-37.5 50t-13.5 77v148h68v-144q0 -31 8.5 -51.5t24 -33t36.5 -18.5t46 -7v111h51v-110q26 2 54 6.5t63 14.5v232h68v-510h-68v223q-34 -9 -62.5 -14t-54.5 -7v-122h-51v120z" />
    <glyph glyph-name="uni04BA" unicode="&#x4ba;" horiz-adv-x="639" 
d="M344 387q-35 0 -79 -7t-98 -24v-356h-71v720h71v-301q58 19 105.5 26t86.5 7q49 0 89.5 -10t69.5 -34t45 -63.5t16 -97.5v-247h-71v236q0 44 -12.5 73t-34.5 46.5t-52 24.5t-65 7z" />
    <glyph glyph-name="uni04BB" unicode="&#x4bb;" horiz-adv-x="529" 
d="M409 0v145q0 35 -9.5 56.5t-26 33t-39 15.5t-47.5 4q-26 0 -60 -4t-79 -17v-233h-69v510h69v-221q48 13 85 18t69 5q40 0 72.5 -7.5t55.5 -25t35.5 -46.5t12.5 -72v-161h-69z" />
    <glyph glyph-name="uni04C0" unicode="&#x4c0;" horiz-adv-x="281" 
d="M105 720h71v-720h-71v720z" />
    <glyph glyph-name="uni04CF" unicode="&#x4cf;" horiz-adv-x="241" 
d="M86 720h69v-720h-69v720z" />
    <glyph glyph-name="uni04D8" unicode="&#x4d8;" horiz-adv-x="697" 
d="M343 51q47 0 86.5 17t68.5 52t46.5 88.5t20.5 126.5h-435q5 -145 61.5 -214.5t151.5 -69.5zM329 667q-59 0 -111 -20.5t-100 -53.5l-24 63q49 35 112 55.5t129 20.5q67 0 123 -23.5t95.5 -70t61.5 -116t22 -160.5q0 -92 -22 -162t-61.5 -117t-94 -71t-118.5 -24
q-63 0 -115 23.5t-89 70t-57.5 116t-20.5 162.5v36h506q-8 131 -69 201t-167 70z" />
    <glyph glyph-name="afii10846" unicode="&#x4d9;" horiz-adv-x="537" 
d="M416 287q-8 90 -51.5 133t-112.5 43q-40 0 -77 -13.5t-75 -38.5l-20 57q38 25 84 39.5t95 14.5q51 0 93 -17t72 -50t46 -82.5t16 -115.5q0 -69 -17.5 -119.5t-47.5 -83.5t-71 -49.5t-87 -16.5q-44 0 -82.5 15t-67 46.5t-44.5 81t-16 118.5v16q0 9 1 22h362zM264 43
q66 0 108 46.5t45 145.5h-296q1 -55 12.5 -91.5t31 -59t45 -32t54.5 -9.5z" />
    <glyph glyph-name="uni04E2" unicode="&#x4e2;" horiz-adv-x="709" 
d="M613 0h-68v594l-384 -594h-65v720h68v-594l384 594h65v-720zM214 845h280v-56h-280v56z" />
    <glyph glyph-name="uni04E3" unicode="&#x4e3;" horiz-adv-x="573" 
d="M146 642h280v-57h-280v57zM493 0h-65v401l-287 -401h-62v510h65v-401l287 401h62v-510z" />
    <glyph glyph-name="uni04E8" unicode="&#x4e8;" horiz-adv-x="716" 
d="M358 52q49 0 90.5 17.5t71.5 52.5t47.5 88t20.5 125h-460q3 -72 20.5 -125t47.5 -88t71 -52.5t91 -17.5zM358 668q-48 0 -88.5 -16.5t-70.5 -50t-48 -84.5t-22 -119h458q-4 68 -22 119t-48 84.5t-70.5 50t-88.5 16.5zM657 362q0 -91 -22.5 -161t-63 -117t-95.5 -71.5
t-120 -24.5q-64 0 -118.5 23.5t-94 70t-62 116t-22.5 160.5q0 92 23 162t63 117t95 71t120 24q64 0 118.5 -24t94 -70.5t62 -116t22.5 -159.5z" />
    <glyph glyph-name="uni04E9" unicode="&#x4e9;" horiz-adv-x="554" 
d="M277 46q32 0 60 10.5t49.5 33.5t34.5 58.5t16 85.5h-320q3 -50 16 -85.5t34.5 -58.5t49.5 -33.5t60 -10.5zM277 464q-31 0 -58 -10t-48.5 -31.5t-35 -54.5t-17.5 -79h318q-4 46 -17.5 79t-35 54.5t-48.5 31.5t-58 10zM504 257q0 -69 -18 -119.5t-49.5 -83.5t-73 -49.5
t-88.5 -16.5q-46 0 -87 15.5t-71.5 48t-48.5 82.5t-18 119t18.5 120t49.5 84t72.5 49t88.5 16q46 0 87 -16t71.5 -48.5t48.5 -82.5t18 -118z" />
    <glyph glyph-name="uni04EE" unicode="&#x4ee;" horiz-adv-x="603" 
d="M26 720h77l199 -422l199 422h76l-228 -477q-34 -70 -62 -117.5t-57 -77t-61.5 -42t-75.5 -12.5q-11 0 -26 1t-29 3v66q25 -6 55 -6q28 0 49 6.5t41 26.5t42 56.5t51 95.5h-23zM161 845h280v-56h-280v56z" />
    <glyph glyph-name="uni04EF" unicode="&#x4ef;" horiz-adv-x="505" 
d="M38 -150l21.5 -4t24.5 -2q22 0 40 7t35 25.5t33.5 51t35.5 84.5h-24l-178 498h73l153 -441l156 441h71l-183 -498q-26 -71 -48.5 -115t-46.5 -69.5t-52 -34.5t-64 -9q-11 0 -24 1t-23 3v62zM112 642h280v-57h-280v57z" />
    <glyph glyph-name="Wgrave" unicode="&#x1e80;" horiz-adv-x="953" 
d="M533 415l-22 76.5l-13.5 49t-9.5 38.5l-10 45h-2q-11 -53 -25.5 -102.5l-29.5 -102.5l-124 -419h-69l-188 720h74l106 -415q0 -2 6 -25l14 -54.5l16 -65.5t12 -59h2q6 28 12 52l12 48q6 24 13 49l16 56l121 414h68l119 -413l16 -57l13 -48l12 -47l13 -54h2
q7 39 19.5 92.5t27.5 111.5l108 415h72l-193 -720h-68zM479 783l-125 125h85l96 -125h-56z" />
    <glyph glyph-name="wgrave" unicode="&#x1e81;" horiz-adv-x="751" 
d="M180 0l-154 510h70l87 -292q13 -43 21 -76t13 -65h2q4 24 13 60.5t22 78.5l91 294h65l87 -293l11 -37l9.5 -31.5t8 -32t7.5 -39.5h2q5 32 13 65.5t21 76.5l88 291h68l-158 -510h-67l-85 284q-13 43 -21.5 75.5t-16.5 69.5h-2q-8 -37 -18 -71.5l-21 -71.5l-88 -286h-68z
M378 574l-124 146h84l96 -146h-56z" />
    <glyph glyph-name="Wacute" unicode="&#x1e82;" horiz-adv-x="953" 
d="M533 415l-22 76.5l-13.5 49t-9.5 38.5l-10 45h-2q-11 -53 -25.5 -102.5l-29.5 -102.5l-124 -419h-69l-188 720h74l106 -415q0 -2 6 -25l14 -54.5l16 -65.5t12 -59h2q6 28 12 52l12 48q6 24 13 49l16 56l121 414h68l119 -413l16 -57l13 -48l12 -47l13 -54h2
q7 39 19.5 92.5t27.5 111.5l108 415h72l-193 -720h-68zM416 783l96 125h85l-125 -125h-56z" />
    <glyph glyph-name="wacute" unicode="&#x1e83;" horiz-adv-x="751" 
d="M180 0l-154 510h70l87 -292q13 -43 21 -76t13 -65h2q4 24 13 60.5t22 78.5l91 294h65l87 -293l11 -37l9.5 -31.5t8 -32t7.5 -39.5h2q5 32 13 65.5t21 76.5l88 291h68l-158 -510h-67l-85 284q-13 43 -21.5 75.5t-16.5 69.5h-2q-8 -37 -18 -71.5l-21 -71.5l-88 -286h-68z
M316 574l96 146h84l-124 -146h-56z" />
    <glyph glyph-name="Wdieresis" unicode="&#x1e84;" horiz-adv-x="953" 
d="M533 415l-22 76.5l-13.5 49t-9.5 38.5l-10 45h-2q-11 -53 -25.5 -102.5l-29.5 -102.5l-124 -419h-69l-188 720h74l106 -415q0 -2 6 -25l14 -54.5l16 -65.5t12 -59h2q6 28 12 52l12 48q6 24 13 49l16 56l121 414h68l119 -413l16 -57l13 -48l12 -47l13 -54h2
q7 39 19.5 92.5t27.5 111.5l108 415h72l-193 -720h-68zM340 825q0 18 12 30.5t31 12.5t31 -12.5t12 -30.5t-12 -30.5t-31 -12.5t-31 12.5t-12 30.5zM526 825q0 18 12 30.5t31 12.5t31 -12.5t12 -30.5t-12 -30.5t-31 -12.5t-31 12.5t-12 30.5z" />
    <glyph glyph-name="wdieresis" unicode="&#x1e85;" horiz-adv-x="751" 
d="M180 0l-154 510h70l87 -292q13 -43 21 -76t13 -65h2q4 24 13 60.5t22 78.5l91 294h65l87 -293l11 -37l9.5 -31.5t8 -32t7.5 -39.5h2q5 32 13 65.5t21 76.5l88 291h68l-158 -510h-67l-85 284q-13 43 -21.5 75.5t-16.5 69.5h-2q-8 -37 -18 -71.5l-21 -71.5l-88 -286h-68z
M239 622q0 18 12 30.5t31 12.5t31 -12.5t12 -30.5t-12 -30.5t-31 -12.5t-31 12.5t-12 30.5zM425 622q0 18 12 30.5t31 12.5t31 -12.5t12 -30.5t-12 -30.5t-31 -12.5t-31 12.5t-12 30.5z" />
    <glyph glyph-name="uni1E8A" unicode="&#x1e8a;" horiz-adv-x="625" 
d="M267 371l-219 349h81l184 -297l183 297h80l-220 -349l234 -371h-81l-199 319l-197 -319h-80zM358 827q0 -20 -13 -33t-33 -13t-33 13t-13 33t13 33t33 13t33 -13t13 -33z" />
    <glyph glyph-name="uni1E8B" unicode="&#x1e8b;" horiz-adv-x="504" 
d="M210 265l-167 245h78l131 -200l132 200h76l-167 -245l181 -265h-78l-145 220l-147 -220h-75zM297 619q0 -20 -13 -33t-33 -13t-33 13t-13 33t13 33t33 13t33 -13t13 -33z" />
    <glyph glyph-name="uni1E9E" unicode="&#x1e9e;" horiz-adv-x="1138" 
d="M642 121q45 -31 95 -50.5t106 -19.5q76 0 120.5 37.5t44.5 102.5q0 38 -16 63.5t-41.5 42.5t-59 28.5l-68 23t-67.5 25t-58.5 34t-41.5 51t-16 76.5q0 45 16.5 81.5t45.5 62t70 39.5t90 14q57 0 106.5 -17.5t91.5 -48.5l-23 -67q-41 31 -84.5 50t-94.5 19
q-69 0 -108 -33.5t-39 -90.5q0 -48 27.5 -74.5t68 -43t88.5 -29.5t88.5 -35t68 -59.5t27.5 -101.5q0 -50 -17 -89t-48.5 -67t-75.5 -42.5t-98 -14.5q-61 0 -117.5 18t-104.5 50zM83 121q45 -31 95 -50.5t106 -19.5q76 0 120.5 37.5t44.5 102.5q0 38 -16 63.5t-41.5 42.5
t-59 28.5l-68 23t-67.5 25t-58.5 34t-41.5 51t-16 76.5q0 45 16.5 81.5t45.5 62t70 39.5t90 14q57 0 106.5 -17.5t91.5 -48.5l-23 -67q-41 31 -84.5 50t-94.5 19q-69 0 -108 -33.5t-39 -90.5q0 -48 27.5 -74.5t68 -43t88.5 -29.5t88.5 -35t68 -59.5t27.5 -101.5
q0 -50 -17 -89t-48.5 -67t-75.5 -42.5t-98 -14.5q-61 0 -117.5 18t-104.5 50z" />
    <glyph glyph-name="Ygrave" unicode="&#x1ef2;" horiz-adv-x="603" 
d="M266 309l-240 411h79l197 -341l198 341h77l-240 -411v-309h-71v309zM304 783l-125 125h85l96 -125h-56z" />
    <glyph glyph-name="ygrave" unicode="&#x1ef3;" horiz-adv-x="505" 
d="M38 -150l21.5 -4t24.5 -2q22 0 40 7t35 25.5t33.5 51t35.5 84.5h-24l-178 498h73l153 -441l156 441h71l-183 -498q-26 -71 -48.5 -115t-46.5 -69.5t-52 -34.5t-64 -9q-11 0 -24 1t-23 3v62zM255 574l-124 146h84l96 -146h-56z" />
    <glyph glyph-name="uni2007" unicode="&#x2007;" horiz-adv-x="572" 
 />
    <glyph glyph-name="uni2008" unicode="&#x2008;" horiz-adv-x="279" 
 />
    <glyph glyph-name="uni200B" unicode="&#x200b;" horiz-adv-x="0" 
 />
    <glyph glyph-name="endash" unicode="&#x2013;" horiz-adv-x="500" 
d="M64 343h372v-63h-372v63z" />
    <glyph glyph-name="emdash" unicode="&#x2014;" 
d="M64 343h872v-63h-872v63z" />
    <glyph glyph-name="afii00208" unicode="&#x2015;" 
d="M64 343h872v-63h-872v63z" />
    <glyph glyph-name="quoteleft" unicode="&#x2018;" horiz-adv-x="262" 
d="M216 699q-49 -30 -71 -61.5t-27 -60.5h5q24 0 37.5 -14t13.5 -34q0 -21 -13 -35t-36 -14q-26 0 -43 20.5t-17 57.5q0 39 25 86t88 88z" />
    <glyph glyph-name="quoteright" unicode="&#x2019;" horiz-adv-x="262" 
d="M45 513q49 30 71 61.5t27 60.5h-5q-24 0 -37.5 14t-13.5 34q0 21 13 35t36 14q26 0 43 -20.5t17 -57.5q0 -39 -25 -86t-88 -88z" />
    <glyph glyph-name="quotesinglbase" unicode="&#x201a;" horiz-adv-x="262" 
d="M45 -131q49 30 71 61.5t27 60.5h-5q-24 0 -37.5 14t-13.5 34q0 21 13 35t36 14q26 0 43 -20.5t17 -57.5q0 -39 -25 -86t-88 -88z" />
    <glyph glyph-name="quotedblleft" unicode="&#x201c;" horiz-adv-x="433" 
d="M216 699q-49 -30 -71 -61.5t-27 -60.5h5q24 0 37.5 -14t13.5 -34q0 -21 -13 -35t-36 -14q-26 0 -43 20.5t-17 57.5q0 39 25 86t88 88zM387 699q-49 -30 -71 -61.5t-27 -60.5h5q24 0 37.5 -14t13.5 -34q0 -21 -13 -35t-36 -14q-26 0 -43 20.5t-17 57.5q0 39 25 86t88 88z
" />
    <glyph glyph-name="quotedblright" unicode="&#x201d;" horiz-adv-x="433" 
d="M45 513q49 30 71 61.5t27 60.5h-5q-24 0 -37.5 14t-13.5 34q0 21 13 35t36 14q26 0 43 -20.5t17 -57.5q0 -39 -25 -86t-88 -88zM216 513q49 30 71 61.5t27 60.5h-5q-24 0 -37.5 14t-13.5 34q0 21 13 35t36 14q26 0 43 -20.5t17 -57.5q0 -39 -25 -86t-88 -88z" />
    <glyph glyph-name="quotedblbase" unicode="&#x201e;" horiz-adv-x="433" 
d="M45 -131q49 30 71 61.5t27 60.5h-5q-24 0 -37.5 14t-13.5 34q0 21 13 35t36 14q26 0 43 -20.5t17 -57.5q0 -39 -25 -86t-88 -88zM216 -131q49 30 71 61.5t27 60.5h-5q-24 0 -37.5 14t-13.5 34q0 21 13 35t36 14q26 0 43 -20.5t17 -57.5q0 -39 -25 -86t-88 -88z" />
    <glyph glyph-name="dagger" unicode="&#x2020;" horiz-adv-x="572" 
d="M259 416l-186 -7v62l186 -7l-7 216h67l-7 -216l186 7v-62l-186 7l8 -499h-69z" />
    <glyph glyph-name="daggerdbl" unicode="&#x2021;" horiz-adv-x="572" 
d="M312 484l186 7v-62l-186 7v-275l186 7v-62l-186 7l7 -196h-67l7 196l-186 -7v62l186 -7v275l-186 -7v62l186 -7l-7 196h67z" />
    <glyph glyph-name="bullet" unicode="&#x2022;" horiz-adv-x="464" 
d="M350 350q0 -26 -9 -48t-24.5 -37.5t-37.5 -24.5t-47 -9q-26 0 -47.5 9t-37 24.5t-24.5 37.5t-9 48t9 48t24.5 37.5t37 24.5t47.5 9q25 0 47 -9t37.5 -24.5t24.5 -37.5t9 -48z" />
    <glyph glyph-name="onedotenleader" unicode="&#x2024;" horiz-adv-x="279" 
d="M190 38q0 -21 -13.5 -35.5t-36.5 -14.5t-36.5 14.5t-13.5 35.5t13.5 35.5t36.5 14.5t36.5 -14.5t13.5 -35.5z" />
    <glyph glyph-name="twodotenleader" unicode="&#x2025;" horiz-adv-x="505" 
d="M190 38q0 -21 -13.5 -35.5t-36.5 -14.5t-36.5 14.5t-13.5 35.5t13.5 35.5t36.5 14.5t36.5 -14.5t13.5 -35.5zM415 38q0 -21 -13.5 -35.5t-36.5 -14.5t-36.5 14.5t-13.5 35.5t13.5 35.5t36.5 14.5t36.5 -14.5t13.5 -35.5z" />
    <glyph glyph-name="ellipsis" unicode="&#x2026;" horiz-adv-x="730" 
d="M190 38q0 -21 -13.5 -35.5t-36.5 -14.5t-36.5 14.5t-13.5 35.5t13.5 35.5t36.5 14.5t36.5 -14.5t13.5 -35.5zM415 38q0 -21 -13.5 -35.5t-36.5 -14.5t-36.5 14.5t-13.5 35.5t13.5 35.5t36.5 14.5t36.5 -14.5t13.5 -35.5zM640 38q0 -21 -13.5 -35.5t-36.5 -14.5
t-36.5 14.5t-13.5 35.5t13.5 35.5t36.5 14.5t36.5 -14.5t13.5 -35.5z" />
    <glyph glyph-name="perthousand" unicode="&#x2030;" horiz-adv-x="1089" 
d="M735 158q0 34 10 63.5t29 52t46 35.5t62 13q34 0 60.5 -12.5t45.5 -34.5t29 -52t10 -64q0 -35 -10 -65t-29 -52t-46.5 -35t-61.5 -13t-61 12.5t-45.5 35t-28.5 52t-10 64.5zM790 158q0 -51 22 -84.5t69 -33.5t69 33.5t22 84.5t-22 84.5t-69 33.5t-69 -33.5t-22 -84.5z
M354 563q0 -35 -10 -65t-29 -52t-46.5 -35t-61.5 -13t-61 12.5t-45.5 34.5t-28.5 51.5t-10 64.5q0 34 10 64.5t29 52.5t46 35t62 13q34 0 60.5 -12.5t45.5 -34.5t29 -52t10 -64zM299 562q0 51 -22 84.5t-69 33.5t-69 -33.5t-22 -84.5t22 -84.5t69 -33.5t69 33.5t22 84.5z
M564 720h61l-446 -720h-61zM389 158q0 34 10 63.5t29 52t46 35.5t62 13q34 0 60.5 -12.5t45.5 -34.5t29 -52t10 -64q0 -35 -10 -65t-29 -52t-46.5 -35t-61.5 -13t-61 12.5t-45.5 35t-28.5 52t-10 64.5zM444 158q0 -51 22 -84.5t69 -33.5t69 33.5t22 84.5t-22 84.5t-69 33.5
t-69 -33.5t-22 -84.5z" />
    <glyph glyph-name="minute" unicode="&#x2032;" horiz-adv-x="163" 
d="M69 720h64l-48 -253h-54z" />
    <glyph glyph-name="second" unicode="&#x2033;" horiz-adv-x="321" 
d="M226 720h64l-48 -253h-54zM69 720h64l-48 -253h-54z" />
    <glyph glyph-name="guilsinglleft" unicode="&#x2039;" horiz-adv-x="316" 
d="M48 255l138 231h66l-133 -231l133 -231h-66z" />
    <glyph glyph-name="guilsinglright" unicode="&#x203a;" horiz-adv-x="316" 
d="M129 24h-66l133 231l-133 231h66l138 -231z" />
    <glyph glyph-name="exclamdbl" unicode="&#x203c;" horiz-adv-x="533" 
d="M120 720h74l-12 -523h-50zM204 35q0 -20 -13 -33.5t-34 -13.5t-34 13.5t-13 33.5t13 33.5t34 13.5t34 -13.5t13 -33.5zM337 720h74l-12 -523h-50zM421 35q0 -20 -13 -33.5t-34 -13.5t-34 13.5t-13 33.5t13 33.5t34 13.5t34 -13.5t13 -33.5z" />
    <glyph glyph-name="fraction" unicode="&#x2044;" horiz-adv-x="64" 
d="M293 720h58l-450 -720h-58z" />
    <glyph glyph-name="uni2070" unicode="&#x2070;" horiz-adv-x="397" 
d="M360 604q0 -57 -12.5 -100.5t-34 -73t-51.5 -44t-65 -14.5t-64.5 14.5t-51 43.5t-33.5 72t-12 100t12.5 100.5t34 73t51.5 44t65 14.5t64.5 -14.5t51 -43.5t33.5 -72t12 -100zM307 603q0 96 -29.5 139.5t-79.5 43.5t-79.5 -43.5t-29.5 -139.5t29.5 -139.5t79.5 -43.5
t79.5 43.5t29.5 139.5z" />
    <glyph glyph-name="uni2071" unicode="&#x2071;" horiz-adv-x="163" 
d="M55 696h53v-316h-53v316zM115 784q0 -15 -9.5 -24.5t-23.5 -9.5q-15 0 -24.5 9.5t-9.5 24.5t9.5 24.5t24.5 9.5q14 0 23.5 -9.5t9.5 -24.5z" />
    <glyph glyph-name="uni2074" unicode="&#x2074;" horiz-adv-x="373" 
d="M22 519l203 307h64v-306h68v-47h-68v-93h-52v93h-215v46zM237 520v243l-161 -243h161z" />
    <glyph glyph-name="uni2075" unicode="&#x2075;" horiz-adv-x="341" 
d="M260 514q0 51 -31 75t-88 24q-17 0 -42.5 -3t-57.5 -13l8 229h244v-48h-195l-5 -126q18 4 34 5t26 1q70 0 115 -35.5t45 -106.5t-45 -107.5t-115 -36.5q-38 0 -70.5 9t-57.5 22l17 49q24 -14 52 -24t61 -10q49 0 77 23.5t28 72.5z" />
    <glyph glyph-name="uni2076" unicode="&#x2076;" horiz-adv-x="369" 
d="M214 834q30 0 57 -8t47 -21l-18 -47q-19 12 -41 20t-48 8q-54 0 -86 -39t-36 -127q27 26 56.5 38.5t61.5 12.5q59 0 96 -39.5t37 -106.5q0 -37 -11.5 -65.5t-31.5 -48t-46 -29.5t-55 -10q-70 0 -114.5 58t-44.5 170q0 59 13.5 103t37 73t56 43.5t70.5 14.5zM195 625
q-27 0 -52 -12t-53 -38q5 -81 33 -119t75 -38q38 0 64 26t26 77q0 48 -24.5 76t-68.5 28z" />
    <glyph glyph-name="uni2077" unicode="&#x2077;" horiz-adv-x="344" 
d="M81 380q46 120 88.5 215.5t85.5 181.5h-222v49h282v-46q-44 -86 -86.5 -182.5t-89.5 -217.5h-58z" />
    <glyph glyph-name="uni2078" unicode="&#x2078;" horiz-adv-x="365" 
d="M25 493q0 25 9 43.5t23.5 33t33.5 24.5t39 19q-35 16 -59.5 40t-24.5 65q0 26 10.5 47.5t29.5 36.5t44 23.5t55 8.5q60 0 97.5 -30.5t37.5 -81.5q0 -21 -7 -36.5t-19 -27.5t-28 -21.5t-34 -18.5q20 -8 39.5 -18.5t34.5 -24.5t24.5 -33t9.5 -45q0 -30 -12 -53t-33.5 -39
t-51 -24.5t-63.5 -8.5q-69 0 -112 32t-43 89zM98 720q0 -31 22 -47.5t65 -33.5q42 17 62.5 34t20.5 46q0 33 -24 52t-62 19t-61 -18.5t-23 -51.5zM288 495q0 19 -8 32.5t-23 24.5t-35.5 20l-44.5 20q-44 -18 -72 -38.5t-28 -57.5q0 -38 28.5 -59t76.5 -21q47 0 76.5 20.5
t29.5 58.5z" />
    <glyph glyph-name="uni2079" unicode="&#x2079;" horiz-adv-x="369" 
d="M155 372q-30 0 -57 8t-47 21l18 46q19 -12 41 -20t48 -8q54 0 86 39t35 127q-27 -26 -56.5 -38t-59.5 -12t-54.5 10.5t-42 29.5t-27.5 46t-10 60q0 37 11.5 65.5t31.5 48t46 29.5t55 10q69 0 114 -58t45 -169q0 -59 -13.5 -103.5t-37 -73.5t-56 -43.5t-70.5 -14.5z
M174 580q24 0 49 10.5t56 38.5q-5 80 -33.5 119t-75.5 39q-38 0 -63.5 -26t-25.5 -77q0 -48 24.5 -76t68.5 -28z" />
    <glyph glyph-name="uni207A" unicode="&#x207a;" horiz-adv-x="364" 
d="M160 380v135h-129v46h129v135h44v-135h129v-46h-129v-135h-44z" />
    <glyph glyph-name="uni207B" unicode="&#x207b;" horiz-adv-x="364" 
d="M333 515h-302v46h302v-46z" />
    <glyph glyph-name="uni207C" unicode="&#x207c;" horiz-adv-x="364" 
d="M333 453h-302v44h302v-44zM333 579h-302v44h302v-44z" />
    <glyph glyph-name="uni207D" unicode="&#x207d;" horiz-adv-x="233" 
d="M84 549q0 -47 11 -86t28.5 -70.5t39.5 -56t44 -42.5l-27 -30q-24 19 -50 44.5t-47.5 60t-36 79t-14.5 101.5t14.5 101.5t36 79t47.5 60t50 44.5l27 -29q-22 -18 -44 -42.5t-39.5 -56t-28.5 -70.5t-11 -87z" />
    <glyph glyph-name="uni207E" unicode="&#x207e;" horiz-adv-x="233" 
d="M149 549q0 47 -11 86t-28.5 70.5t-39.5 56t-44 42.5l27 30q24 -19 50 -44.5t47.5 -60t36 -79t14.5 -101.5t-14.5 -101.5t-36 -79t-47.5 -60t-50 -44.5l-27 29q22 18 44 42.5t39.5 56t28.5 70.5t11 87z" />
    <glyph glyph-name="uni207F" unicode="&#x207f;" horiz-adv-x="361" 
d="M51 696h53v-47q21 22 53.5 38.5t70.5 16.5q35 0 60 -19.5t25 -69.5v-235h-53v222q0 32 -13 43.5t-36 11.5q-31 0 -58.5 -15.5t-48.5 -35.5v-226h-53v316z" />
    <glyph glyph-name="uni2080" unicode="&#x2080;" horiz-adv-x="387" 
d="M360 118q0 -57 -12.5 -100.5t-34 -73t-51.5 -44t-65 -14.5t-64.5 14.5t-51 43.5t-33.5 72t-12 100t12.5 100.5t34 73t51.5 44t65 14.5t64.5 -14.5t51 -43.5t33.5 -72t12 -100zM307 117q0 96 -29.5 139.5t-79.5 43.5t-79.5 -43.5t-29.5 -139.5t29.5 -139.5t79.5 -43.5
t79.5 43.5t29.5 139.5z" />
    <glyph glyph-name="uni2081" unicode="&#x2081;" horiz-adv-x="225" 
d="M20 287l101 53h43v-446h-53v386l-72 -38z" />
    <glyph glyph-name="uni2082" unicode="&#x2082;" horiz-adv-x="349" 
d="M253 219q0 35 -20 58t-60 23q-37 0 -65 -19t-54 -49l-18 45q26 32 61 51.5t81 19.5q60 0 94 -34t34 -92q0 -29 -10 -57.5t-32.5 -61.5t-59.5 -72t-92 -89h207v-48h-283v42q59 53 100.5 94t67.5 74.5t37.5 61t11.5 53.5z" />
    <glyph glyph-name="uni2083" unicode="&#x2083;" horiz-adv-x="338" 
d="M168 348q56 0 93 -29t37 -83q0 -42 -24 -69.5t-66 -41.5q53 -12 77 -42t24 -72q0 -30 -11.5 -53.5t-32.5 -39.5t-50 -24t-63 -8q-39 0 -72.5 9t-57.5 23l16 48q24 -14 52 -23.5t63 -9.5q47 0 75 20t28 60q0 43 -33 63t-92 20q-11 0 -20.5 -0.5t-21.5 -1.5v47
q72 0 114.5 22.5t42.5 67.5q0 33 -23.5 51t-61.5 18q-29 0 -54 -10t-53 -30l-15 45q29 20 60.5 31.5t68.5 11.5z" />
    <glyph glyph-name="uni2084" unicode="&#x2084;" horiz-adv-x="368" 
d="M22 33l203 307h64v-306h68v-47h-68v-93h-52v93h-215v46zM237 34v243l-161 -243h161z" />
    <glyph glyph-name="uni2085" unicode="&#x2085;" horiz-adv-x="334" 
d="M260 28q0 51 -31 75t-88 24q-17 0 -42.5 -3t-57.5 -13l8 229h244v-48h-195l-5 -126q18 4 34 5t26 1q70 0 115 -35.5t45 -106.5t-45 -107.5t-115 -36.5q-38 0 -70.5 9t-57.5 22l17 49q24 -14 52 -24t61 -10q49 0 77 23.5t28 72.5z" />
    <glyph glyph-name="uni2086" unicode="&#x2086;" horiz-adv-x="361" 
d="M214 348q30 0 57 -8t47 -21l-18 -47q-19 12 -41 20t-48 8q-54 0 -86 -39t-36 -127q27 26 56.5 38.5t61.5 12.5q59 0 96 -39.5t37 -106.5q0 -37 -11.5 -65.5t-31.5 -48t-46 -29.5t-55 -10q-70 0 -114.5 58t-44.5 170q0 59 13.5 103t37 73t56 43.5t70.5 14.5zM195 139
q-27 0 -52 -12t-53 -38q5 -81 33 -119t75 -38q38 0 64 26t26 77q0 48 -24.5 76t-68.5 28z" />
    <glyph glyph-name="uni2087" unicode="&#x2087;" horiz-adv-x="333" 
d="M81 -106q46 120 88.5 215.5t85.5 181.5h-222v49h282v-46q-44 -86 -86.5 -182.5t-89.5 -217.5h-58z" />
    <glyph glyph-name="uni2088" unicode="&#x2088;" horiz-adv-x="360" 
d="M25 7q0 25 9 43.5t23.5 33t33.5 24.5t39 19q-35 16 -59.5 40t-24.5 65q0 26 10.5 47.5t29.5 36.5t44 23.5t55 8.5q60 0 97.5 -30.5t37.5 -81.5q0 -21 -7 -36.5t-19 -27.5t-28 -21.5t-34 -18.5q20 -8 39.5 -18.5t34.5 -24.5t24.5 -33t9.5 -45q0 -30 -12 -53t-33.5 -39
t-51 -24.5t-63.5 -8.5q-69 0 -112 32t-43 89zM98 234q0 -31 22 -47.5t65 -33.5q42 17 62.5 34t20.5 46q0 33 -24 52t-62 19t-61 -18.5t-23 -51.5zM288 9q0 19 -8 32.5t-23 24.5t-35.5 20l-44.5 20q-44 -18 -72 -38.5t-28 -57.5q0 -38 28.5 -59t76.5 -21q47 0 76.5 20.5
t29.5 58.5z" />
    <glyph glyph-name="uni2089" unicode="&#x2089;" horiz-adv-x="361" 
d="M155 -114q-30 0 -57 8t-47 21l18 46q19 -12 41 -20t48 -8q54 0 86 39t35 127q-27 -26 -56.5 -38t-59.5 -12t-54.5 10.5t-42 29.5t-27.5 46t-10 60q0 37 11.5 65.5t31.5 48t46 29.5t55 10q69 0 114 -58t45 -169q0 -59 -13.5 -103.5t-37 -73.5t-56 -43.5t-70.5 -14.5z
M174 94q24 0 49 10.5t56 38.5q-5 80 -33.5 119t-75.5 39q-38 0 -63.5 -26t-25.5 -77q0 -48 24.5 -76t68.5 -28z" />
    <glyph glyph-name="uni208A" unicode="&#x208a;" horiz-adv-x="362" 
d="M160 -106v135h-129v46h129v135h44v-135h129v-46h-129v-135h-44z" />
    <glyph glyph-name="uni208B" unicode="&#x208b;" horiz-adv-x="362" 
d="M333 29h-302v46h302v-46z" />
    <glyph glyph-name="uni208C" unicode="&#x208c;" horiz-adv-x="362" 
d="M333 -33h-302v44h302v-44zM333 93h-302v44h302v-44z" />
    <glyph glyph-name="uni208D" unicode="&#x208d;" horiz-adv-x="225" 
d="M84 63q0 -47 11 -86t28.5 -70.5t39.5 -56t44 -42.5l-27 -30q-24 19 -50 44.5t-47.5 60t-36 79t-14.5 101.5t14.5 101.5t36 79t47.5 60t50 44.5l27 -29q-22 -18 -44 -42.5t-39.5 -56t-28.5 -70.5t-11 -87z" />
    <glyph glyph-name="uni208E" unicode="&#x208e;" horiz-adv-x="225" 
d="M149 63q0 47 -11 86t-28.5 70.5t-39.5 56t-44 42.5l27 30q24 -19 50 -44.5t47.5 -60t36 -79t14.5 -101.5t-14.5 -101.5t-36 -79t-47.5 -60t-50 -44.5l-27 29q22 18 44 42.5t39.5 56t28.5 70.5t11 87z" />
    <glyph glyph-name="Euro" unicode="&#x20ac;" horiz-adv-x="572" 
d="M5 299h107q-1 8 -1 17v40q0 12 1 23h-107v55h113q21 128 92 193t170 65q51 0 92 -16t73 -44l-22 -63q-32 29 -66.5 45.5t-79.5 16.5q-71 0 -122.5 -48.5t-68.5 -148.5h225v-55h-231q-1 -10 -1 -20v-41q0 -9 1 -19h231v-55h-225q17 -100 68.5 -148.5t122.5 -48.5
q44 0 79 16.5t70 44.5l21 -57q-35 -27 -79.5 -45t-98.5 -18q-48 0 -90 16t-75 47.5t-55.5 79.5t-31.5 113h-112v55z" />
    <glyph glyph-name="uni20B1" unicode="&#x20b1;" horiz-adv-x="572" 
d="M-1 500h86v180h209q99 0 157 -44.5t66 -135.5h63v-55h-64q-8 -90 -67 -134t-160 -44h-135v-267h-69v445h-86v55zM154 500h295q-13 120 -160 120h-135v-120zM289 326q72 0 112.5 29t47.5 90h-295v-119h135z" />
    <glyph glyph-name="uni20B4" unicode="&#x20b4;" horiz-adv-x="572" 
d="M112 626q38 29 85 47.5t103 18.5q43 0 78.5 -12t61 -34t39 -54t13.5 -71q0 -27 -6 -48.5t-17 -38.5h73v-55h-130q-20 -13 -44 -23l-49 -19.5l-49 -18.5t-45 -19h317v-55h-379q-11 -15 -17 -32.5t-6 -40.5q0 -58 39 -91t109 -33q53 0 97.5 18.5t84.5 47.5l22 -57
q-42 -30 -94.5 -49t-115.5 -19q-96 0 -153.5 47.5t-57.5 135.5q0 40 14 73h-55v55h94q15 14 34.5 25.5t41.5 21t44.5 17.5t42.5 16h-257v55h353q18 16 29 36t11 49q0 50 -33.5 81t-94.5 31q-47 0 -86.5 -17.5t-74.5 -45.5z" />
    <glyph glyph-name="afii61289" unicode="&#x2113;" horiz-adv-x="572" 
d="M42 290q53 0 101 6l45 257q16 89 60 134t109 45q30 0 55.5 -10t45 -30.5t30.5 -52.5t11 -77q0 -60 -21 -110.5t-59.5 -90t-93.5 -67.5t-123 -43l-11 -65l-3.5 -25t-1.5 -23q0 -52 27 -72t75 -20q34 0 63 8.5t55 25.5l11 -59q-26 -17 -61 -25t-74 -8q-37 0 -67 7.5
t-51.5 25t-33.5 44.5t-12 66q0 17 2 32t5 32l8 44q-24 -3 -49.5 -4t-51.5 -1zM213 311q104 29 164.5 92.5t60.5 159.5q0 61 -23.5 86t-54.5 25q-34 0 -63.5 -29t-42.5 -101z" />
    <glyph glyph-name="afii61352" unicode="&#x2116;" horiz-adv-x="1053" 
d="M699 528q0 34 10 63.5t29 52t46 35.5t62 13q34 0 60.5 -12.5t45.5 -34.5t29 -52t10 -64q0 -35 -10 -65t-29 -52t-46.5 -35t-61.5 -13t-61 12.5t-45.5 35t-28.5 52t-10 64.5zM754 528q0 -51 22 -84.5t69 -33.5t69 33.5t22 84.5t-22 84.5t-69 33.5t-69 -33.5t-22 -84.5z
M96 720h81l369 -579v579h67v-720h-59l-391 612v-612h-67v720z" />
    <glyph glyph-name="uni2117" unicode="&#x2117;" horiz-adv-x="838" 
d="M439 541q63 0 99 -27.5t36 -82.5q0 -56 -36.5 -83t-102.5 -27h-75v-146h-57v366h136zM436 369q81 0 81 61t-81 61h-76v-122h76zM92 360q0 -70 25.5 -130t69.5 -103.5t103.5 -68.5t128.5 -25t128.5 25t103.5 68.5t69.5 103.5t25.5 130t-25.5 130t-69.5 103.5t-103.5 68.5
t-128.5 25t-128.5 -25t-103.5 -68.5t-69.5 -103.5t-25.5 -130zM791 360q0 -80 -28.5 -148t-79 -118t-118.5 -78t-146 -28t-146 28t-118.5 78t-79 118t-28.5 148t28.5 148t79 118t118.5 78t146 28t146 -28t118.5 -78t79 -118t28.5 -148z" />
    <glyph glyph-name="uni2120" unicode="&#x2120;" horiz-adv-x="770" 
d="M499 380l-75 203q-13 34 -18 49.5t-8 28.5h-2q0 -14 -1 -35t-3 -45l-16 -201h-49l33 340h65l72 -202q2 -5 10 -27.5t15 -51.5h2q5 20 11 37l14 39l77 205h65l28 -340h-50l-15 206q-3 48 -3 75h-2q-1 -6 -5 -17.5l-8.5 -24.5t-8.5 -23.5t-5 -14.5l-77 -201h-46zM51 448
q24 -14 49 -23t51 -9q33 0 53 15.5t20 41.5q0 20 -13 32t-32 19.5t-42 14.5t-42 17.5t-32 27t-13 45.5q0 45 31.5 71.5t84.5 26.5q29 0 55 -8.5t47 -22.5l-13 -45q-21 14 -42.5 22.5t-46.5 8.5q-31 0 -48.5 -13t-17.5 -35q0 -19 13 -29.5t32 -18t42 -14t42 -17.5t32 -29
t13 -49q0 -48 -33.5 -76t-90.5 -28q-32 0 -60 8.5t-52 23.5z" />
    <glyph glyph-name="trademark" unicode="&#x2122;" horiz-adv-x="753" 
d="M482 380l-75 203q-13 34 -18 49.5t-8 28.5h-2q0 -14 -1 -35t-3 -45l-16 -201h-49l33 340h65l72 -202q2 -5 10 -27.5t15 -51.5h2q5 20 11 37l14 39l77 205h65l28 -340h-50l-15 206q-3 48 -3 75h-2q-1 -6 -5 -17.5l-8.5 -24.5t-8.5 -23.5t-5 -14.5l-77 -201h-46zM122 675
h-102v45h255v-45h-102v-295h-51v295z" />
    <glyph glyph-name="Omega" unicode="&#x2126;" horiz-adv-x="716" 
d="M359 732q64 0 119 -23.5t94.5 -67t62 -106t22.5 -141.5q0 -106 -40 -187.5t-114 -142.5h184v-64h-267v55q84 69 125 148.5t41 184.5q0 67 -16.5 119t-46.5 88t-72 54.5t-93 18.5t-93 -18.5t-72 -54.5t-46.5 -88t-16.5 -119q0 -105 41 -184.5t125 -148.5v-55h-267v64h183
q-75 63 -114 142.5t-39 182.5q0 80 22.5 143.5t63 108t95 68t119.5 23.5z" />
    <glyph glyph-name="estimated" unicode="&#x212e;" horiz-adv-x="736" 
d="M368 15q60 0 110.5 22t85.5 60h48q-42 -49 -105.5 -79t-138.5 -30q-63 0 -119 22t-98 59.5t-66.5 88t-24.5 107.5t24.5 107.5t66.5 88t98 59.5t119 22t119 -22t98 -59.5t66.5 -88t24.5 -107.5v-14h-513v-146q37 -42 89.5 -66t115.5 -24zM368 515q-63 0 -115.5 -24
t-89.5 -66v-146h410v146q-37 42 -89.5 66t-115.5 24z" />
    <glyph glyph-name="uni2150" unicode="&#x2150;" horiz-adv-x="796" 
d="M538 720h58l-450 -720h-58zM20 667l101 53h43v-446h-53v386l-72 -38zM540 0q46 120 88.5 215.5t85.5 181.5h-222v49h282v-46q-44 -86 -86.5 -182.5t-89.5 -217.5h-58z" />
    <glyph glyph-name="uni2151" unicode="&#x2151;" horiz-adv-x="785" 
d="M538 720h58l-450 -720h-58zM573 -5q-30 0 -57 8t-47 21l18 46q19 -12 41 -20t48 -8q54 0 86 39t35 127q-27 -26 -56.5 -38t-59.5 -12t-54.5 10.5t-42 29.5t-27.5 46t-10 60q0 37 11.5 65.5t31.5 48t46 29.5t55 10q69 0 114 -58t45 -169q0 -59 -13.5 -103.5t-37 -73.5
t-56 -43.5t-70.5 -14.5zM592 203q24 0 49 10.5t56 38.5q-5 80 -33.5 119t-75.5 39q-38 0 -63.5 -26t-25.5 -77q0 -48 24.5 -76t68.5 -28zM20 667l101 53h43v-446h-53v386l-72 -38z" />
    <glyph glyph-name="uni2152" unicode="&#x2152;" horiz-adv-x="1073" 
d="M538 720h58l-450 -720h-58zM20 667l101 53h43v-446h-53v386l-72 -38zM453 393l101 53h43v-446h-53v386l-72 -38zM1039 224q0 -57 -12.5 -100.5t-34 -73t-51.5 -44t-65 -14.5t-64.5 14.5t-51 43.5t-33.5 72t-12 100t12.5 100.5t34 73t51.5 44t65 14.5t64.5 -14.5t51 -43.5
t33.5 -72t12 -100zM986 223q0 96 -29.5 139.5t-79.5 43.5t-79.5 -43.5t-29.5 -139.5t29.5 -139.5t79.5 -43.5t79.5 43.5t29.5 139.5z" />
    <glyph glyph-name="onethird" unicode="&#x2153;" horiz-adv-x="785" 
d="M538 720h58l-450 -720h-58zM609 454q56 0 93 -29t37 -83q0 -42 -24 -69.5t-66 -41.5q53 -12 77 -42t24 -72q0 -30 -11.5 -53.5t-32.5 -39.5t-50 -24t-63 -8q-39 0 -72.5 9t-57.5 23l16 48q24 -14 52 -23.5t63 -9.5q47 0 75 20t28 60q0 43 -33 63t-92 20q-11 0 -20.5 -0.5
t-21.5 -1.5v47q72 0 114.5 22.5t42.5 67.5q0 33 -23.5 51t-61.5 18q-29 0 -54 -10t-53 -30l-15 45q29 20 60.5 31.5t68.5 11.5zM20 667l101 53h43v-446h-53v386l-72 -38z" />
    <glyph glyph-name="twothirds" unicode="&#x2154;" horiz-adv-x="894" 
d="M684 720h58l-450 -720h-58zM726 454q56 0 93 -29t37 -83q0 -42 -24 -69.5t-66 -41.5q53 -12 77 -42t24 -72q0 -30 -11.5 -53.5t-32.5 -39.5t-50 -24t-63 -8q-39 0 -72.5 9t-57.5 23l16 48q24 -14 52 -23.5t63 -9.5q47 0 75 20t28 60q0 43 -33 63t-92 20q-11 0 -20.5 -0.5
t-21.5 -1.5v47q72 0 114.5 22.5t42.5 67.5q0 33 -23.5 51t-61.5 18q-29 0 -54 -10t-53 -30l-15 45q29 20 60.5 31.5t68.5 11.5zM253 599q0 35 -20 58t-60 23q-37 0 -65 -19t-54 -49l-18 45q26 32 61 51.5t81 19.5q60 0 94 -34t34 -92q0 -29 -10 -57.5t-32.5 -61.5t-59.5 -72
t-92 -89h207v-48h-283v42q59 53 100.5 94t67.5 74.5t37.5 61t11.5 53.5z" />
    <glyph glyph-name="uni2155" unicode="&#x2155;" horiz-adv-x="784" 
d="M538 720h58l-450 -720h-58zM702 134q0 51 -31 75t-88 24q-17 0 -42.5 -3t-57.5 -13l8 229h244v-48h-195l-5 -126q18 4 34 5t26 1q70 0 115 -35.5t45 -106.5t-45 -107.5t-115 -36.5q-38 0 -70.5 9t-57.5 22l17 49q24 -14 52 -24t61 -10q49 0 77 23.5t28 72.5zM20 667
l101 53h43v-446h-53v386l-72 -38z" />
    <glyph glyph-name="uni2156" unicode="&#x2156;" horiz-adv-x="926" 
d="M680 720h58l-450 -720h-58zM253 599q0 35 -20 58t-60 23q-37 0 -65 -19t-54 -49l-18 45q26 32 61 51.5t81 19.5q60 0 94 -34t34 -92q0 -29 -10 -57.5t-32.5 -61.5t-59.5 -72t-92 -89h207v-48h-283v42q59 53 100.5 94t67.5 74.5t37.5 61t11.5 53.5zM844 134q0 51 -31 75
t-88 24q-17 0 -42.5 -3t-57.5 -13l8 229h244v-48h-195l-5 -126q18 4 34 5t26 1q70 0 115 -35.5t45 -106.5t-45 -107.5t-115 -36.5q-38 0 -70.5 9t-57.5 22l17 49q24 -14 52 -24t61 -10q49 0 77 23.5t28 72.5z" />
    <glyph glyph-name="uni2157" unicode="&#x2157;" horiz-adv-x="853" 
d="M610 720h58l-450 -720h-58zM774 134q0 51 -31 75t-88 24q-17 0 -42.5 -3t-57.5 -13l8 229h244v-48h-195l-5 -126q18 4 34 5t26 1q70 0 115 -35.5t45 -106.5t-45 -107.5t-115 -36.5q-38 0 -70.5 9t-57.5 22l17 49q24 -14 52 -24t61 -10q49 0 77 23.5t28 72.5zM168 728
q56 0 93 -29t37 -83q0 -42 -24 -69.5t-66 -41.5q53 -12 77 -42t24 -72q0 -30 -11.5 -53.5t-32.5 -39.5t-50 -24t-63 -8q-39 0 -72.5 9t-57.5 23l16 48q24 -14 52 -23.5t63 -9.5q47 0 75 20t28 60q0 43 -33 63t-92 20q-11 0 -20.5 -0.5t-21.5 -1.5v47q72 0 114.5 22.5
t42.5 67.5q0 33 -23.5 51t-61.5 18q-29 0 -54 -10t-53 -30l-15 45q29 20 60.5 31.5t68.5 11.5z" />
    <glyph glyph-name="uni2158" unicode="&#x2158;" horiz-adv-x="894" 
d="M650 720h58l-450 -720h-58zM22 413l203 307h64v-306h68v-47h-68v-93h-52v93h-215v46zM237 414v243l-161 -243h161zM815 134q0 51 -31 75t-88 24q-17 0 -42.5 -3t-57.5 -13l8 229h244v-48h-195l-5 -126q18 4 34 5t26 1q70 0 115 -35.5t45 -106.5t-45 -107.5t-115 -36.5
q-38 0 -70.5 9t-57.5 22l17 49q24 -14 52 -24t61 -10q49 0 77 23.5t28 72.5z" />
    <glyph glyph-name="uni2159" unicode="&#x2159;" horiz-adv-x="754" 
d="M538 720h58l-450 -720h-58zM603 454q30 0 57 -8t47 -21l-18 -47q-19 12 -41 20t-48 8q-54 0 -86 -39t-36 -127q27 26 56.5 38.5t61.5 12.5q59 0 96 -39.5t37 -106.5q0 -37 -11.5 -65.5t-31.5 -48t-46 -29.5t-55 -10q-70 0 -114.5 58t-44.5 170q0 59 13.5 103t37 73
t56 43.5t70.5 14.5zM584 245q-27 0 -52 -12t-53 -38q5 -81 33 -119t75 -38q38 0 64 26t26 77q0 48 -24.5 76t-68.5 28zM20 667l101 53h43v-446h-53v386l-72 -38z" />
    </font>
</defs>
</svg>
